M48
INCH,TZ
T01C.00394
T02C.00591
T03C.00984
T04C.039
T05C.03937
T06C.04016
T07C.0669
;LEADER: 12 
;HEADER: 
;CODE  : ASCII 
;FILE  : 600-90698-01_CYW9BTAUDIO3_REV1_0-1-2.drl for board C:/Users/yjun/Desktop/Project/CLEU-89/#Taaaaak04228.tmp ... layers TOP and L02_SIG
;T01 Holesize 1. = 3.940000 Tolerance = +1.970000/-5.910000 PLATED MILS Quantity = 109
%
G90
T01
X109500Y82800
X113500
X117500Y82900
X109500Y83800
X117500Y83900
X113500Y84000
X117500Y86000
X118500
X109500Y86100
X110500
X113500
X114500
X117500Y87200
X118500
X109500Y87300
X110500
X113500
X114500
X107600Y92700
Y93600
X112800Y93900
X107400Y96300
Y97200
X112000
X112900
X112800Y101000
Y102000
X99000Y108500
X101500
X95500Y110500
X112000Y111000
X104000Y113500
X107700Y113488
X110498
X113226
X117317Y114276
X105000Y115000
X113226Y115063
X115955
X118683
X117317Y115850
X115955Y116638
X111860Y117425
X117317
X110498Y118213
X111860Y119000
X114589
X113226Y119787
X111860Y120575
X113226Y121362
X111860Y122150
X113226Y122937
X115955
X118683
X111860Y123724
X115955Y124512
X115300Y127900
X101973Y128000
X110673Y130500
X101973Y131500
X116000Y134000
X111300Y134500
X116000Y135000
X110000Y138000
X115531Y139193
Y140807
X130500Y137827
X127000
X121500Y135000
Y134000
X127500Y130000
X122774Y125299
X121411Y124512
X122774Y123724
X120045
X127800Y123300
X124140Y122937
X121411
X122774Y122150
X120045
X124140Y121362
X122774Y120575
X124140Y119787
X121411Y118213
X122774Y117425
X124140Y116638
X121411
X122774Y115850
X120045
X124140Y115063
X120045Y114276
X126000Y93900
X125000
X122500
X121500
X126000Y92700
X125000
X122500
X121500
X123800Y87100
X122800
X127100Y87000
X126100
X123800Y85900
X122800
X122700Y83000
Y82000
X211000Y95500
X227580Y103213
M30
