M48
INCH,TZ
T01C.00394
T02C.00591
T03C.00984
T04C.039
T05C.03937
T06C.04016
T07C.0669
;LEADER: 12 
;HEADER: 
;CODE  : ASCII 
;FILE  : 600-90698-01_CYW9BTAUDIO3_REV1_0-2-3.drl for board C:/Users/yjun/Desktop/Project/CLEU-89/#Taaaaak04228.tmp ... layers L02_SIG and L03_SIG
;T01 Holesize 1. = 3.940000 Tolerance = +1.970000/-5.910000 PLATED MILS Quantity = 99
%
G90
T01
X88000Y116000
X101000Y97000
X103000Y107000
X106500Y109500
X108000Y111500
X104500Y116000
X103000Y117000
X106500Y117500
X108000Y127000
X101973Y128000
X109000Y129000
X101973Y131500
X114000Y140000
X110000Y138000
X117000Y135000
X116000
X111300Y134500
X117000Y134000
X116000
X110673Y130500
X117000Y129000
X115300Y127900
X111000Y127500
X116500Y126500
X111000Y125500
X118683Y122937
X113226
X116000Y121500
X113226Y121362
X116500Y120500
X113226Y119787
X117000Y119500
X117317Y117425
X115955Y116638
X117317Y115850
X113226Y115063
X110000Y111500
X112000Y111000
X118000Y98000
Y95500
X112800Y93900
X118500Y93000
X113500Y84000
X117500Y83900
Y82900
X113500Y82800
X122700Y82000
Y83000
X126100Y87000
X127100
X122000Y89000
X122500Y91000
X124000
X123500Y93500
X124500Y98500
X120000Y100500
X124000Y102000
X122000Y103000
X126500Y107000
X129500
X123500Y109000
X127000Y109500
X123500Y111500
X123000Y113500
X120045Y115850
X122774
X121411Y116638
X122774Y117425
X121411Y118213
X122774Y120575
X124140Y121362
X120045Y122150
X122774
X121411Y122937
X126500Y124000
Y125000
X127000Y126000
X120000Y127000
X128000
X129500Y128000
X120000Y129000
X120500Y134000
X121500
X120500Y135000
X121500
X123000Y138000
X130500Y137827
X134000Y130500
X136000Y129000
X132500
X131000Y122000
X136500Y118500
X133000
X137500Y109500
X133500
X131500
X140000Y118500
X211000Y95500
X227580Y103213
M30
