M48
INCH,TZ
T01C.00394
T02C.00591
T03C.00984
T04C.039
T05C.03937
T06C.04016
T07C.0669
;LEADER: 12 
;HEADER: 
;CODE  : ASCII 
;FILE  : 600-90698-01_CYW9BTAUDIO3_REV1_0-1-8.drl for board C:/Users/yjun/Desktop/Project/CLEU-89/#Taaaaak04228.tmp ... layers TOP and BOTTOM
;T02 Holesize 1. = 5.910000 Tolerance = +1.970000/-5.910000 PLATED MILS Quantity = 19
;T03 Holesize 2. = 9.840000 Tolerance = +1.970000/-9.840000 PLATED MILS Quantity = 442
;T04 Holesize 3. = 39.000000 Tolerance = +3.000000/-3.000000 PLATED MILS Quantity = 4
;T05 Holesize 4. = 39.370000 Tolerance = +2.950000/-2.950000 PLATED MILS Quantity = 74
;T06 Holesize 5. = 40.160000 Tolerance = +3.000000/-3.000000 PLATED MILS Quantity = 2
%
G90
T02
X114589Y115850
X115955Y118213
X118683Y119787
X114589Y120575
X118683Y121362
X121411
X120045Y120575
X121411Y119787
X120045Y117425
X226580Y107937
X233903Y110299
X231000Y108724
X233903Y107150
X230903Y105575
X234000Y104000
X230903Y102425
X232403Y100850
X230903Y99276
X232403Y97701
T03
X14501Y7501
X4001Y17001
X14001
X14501Y39001
Y43001
Y47001
X19501Y61501
X16001Y70501
Y73501
X19001Y76001
X3001Y150001
X13001
X3001Y159001
X13001
X3001Y168501
X13001
X3001Y177001
X13001
X3001Y186001
X13001
X3001Y195501
X13001
X17001Y209001
X36000Y209000
X27001Y209001
X22000Y195500
Y186000
Y177000
Y168500
Y159000
Y150000
X33001Y138001
X36500Y137500
X31000Y132000
X29000Y128500
X38500Y124000
X25500Y118500
X34500Y111000
X23500Y110000
X34000Y107500
X34500Y103500
X34000Y98100
X38800Y96300
X35500Y95500
Y90500
X24500Y90000
X28500Y82000
X37500Y78000
X33827Y77500
X30501Y77501
X22501Y76001
X27323Y75823
X33000Y65500
X22500Y61500
X36001Y56001
X31000Y50500
X27500Y47000
X25501Y40501
X39501Y38501
X25501Y37001
X29100Y33900
X36100Y33600
X26501Y33501
X39501Y33001
X34306Y31812
X30816Y31784
X36001Y30001
X29001
X30001Y21501
X23000Y17000
X23500Y7500
X41001Y6501
X52501
X46501Y11001
X48400Y18400
X40001Y21501
X44670Y36155
X53332Y42847
X57501Y48501
X40000Y50000
X52001Y52501
X57500Y57500
X41500Y61000
X53001Y72001
X49500Y77000
X52500Y78500
X51000Y82000
X41001Y84501
X50501Y91501
X56500Y99000
Y113500
X58001Y140001
X45001Y140501
X45501Y209001
X55501
X75001
X64500Y209000
X77000Y150500
X76501Y130501
X61500Y122000
X67501Y121501
X65000Y121000
X76500Y118000
X69501Y112001
X67001Y109501
X67000Y109500
X79001Y105001
X73001Y104501
X75500Y95500
X72000
X68001Y95501
X64500Y89000
X67501Y84001
X76000Y76500
X62549Y68951
X63000Y50000
X74000Y44000
X60501Y44001
X60500Y37327
X74501Y23001
X72501Y16001
X62501
X75001Y6501
X65001
X84000Y6500
X81500Y16000
X88501Y23001
X85000Y23260
X80000Y34000
X95500Y35500
X88501Y36001
X82001Y37501
X90500Y40000
X85327Y43673
X91001Y47001
X99200Y48800
X86000Y63000
X91000Y76500
X82501Y85501
X95500Y94500
X99500
X84501Y95001
X82000Y95500
X97500Y98000
X82501Y104001
X95500Y108500
X85500Y109000
X82001Y112501
X99001Y113001
X92600Y116400
X95800Y123500
X85500Y125000
X83500Y128000
X87500Y130400
X95000Y131500
X90500Y132700
X91001Y140501
X94000Y140500
X97500
X91001Y150001
X98001
X80001Y151501
X91001Y156501
X94000Y159500
X91001Y161001
X93500Y163500
X89000Y166000
X93500Y169000
X89500Y173500
X82000Y175500
X99500Y177500
X82501Y180501
X94501Y182001
X99501Y182501
X81600Y196800
X85001Y209001
X94000Y209000
X114001Y209001
X104001
X111501Y171501
X104501Y171001
X110227Y168327
X100000Y165600
X111501Y161501
X116000Y159500
X118000Y156500
X114000Y156000
X103000
X111500Y152000
X109000
X100000Y147000
X107327Y141000
X116000Y131327
X101500Y113500
X102001Y88001
X106000Y83500
X119500Y55000
X104827Y53500
X100327Y44173
X100500Y38000
X127001Y34501
X122001Y37001
X123501Y43001
X138001Y44001
X139000Y57500
X121201Y67601
X134000Y73500
X123000Y77500
X131500Y79500
X138500Y80000
X126673Y82500
X135001Y85001
Y92501
X122000Y96673
X135001Y97501
X130001Y100501
X132600Y102100
X138500Y103000
X136000Y116000
X138501Y116001
X132000Y124400
X136001Y124501
X139000Y130000
X121500Y131327
X139000Y133000
X135500Y135000
X139000Y137500
X123000Y145000
X127000
X130500
X132501Y147001
X131501Y156001
X123501Y157501
X120501Y161501
X135500Y161500
X124001Y170001
X132800Y170000
X137501Y174501
X138501Y182501
X132327Y183327
X122400Y186400
X123000Y209000
X133001Y209001
X152000Y209000
X143001Y209001
X141500Y185000
X156501Y180501
X152500Y175500
X150501Y170501
X157501Y165501
X156001Y159501
X158001Y154501
X156000Y152000
X146000Y146500
X154000Y146000
X141501Y145501
X147000Y139500
X153200Y138800
X154000Y135600
X158500Y134500
X154000Y132000
X158000Y130500
X155500Y127500
X144800Y125000
X157200Y122000
X158500Y118000
X148000Y117000
X145500Y116000
X157500Y115000
X146500Y113500
X147000Y109000
X140500Y107000
X153201Y105201
X158000Y102000
X152801Y101601
X142800Y101600
X158000Y98500
X144500Y97000
X140001Y92501
X152801Y92401
X158500Y90000
X144500Y89000
X152801Y88801
X146400Y85600
X148000Y73500
X145001Y41501
X151500Y38000
X173001Y16501
X170400Y39200
X163500Y43000
X168801Y68801
X165601Y72001
X160000Y77500
X168501Y80001
X160000Y80500
X167390Y84610
X160000Y87500
X168501Y94501
X161000Y95500
X166600Y103000
X167000Y107000
Y115000
X166800Y123500
X167200Y127000
X167001Y136501
X167500Y146500
X167000Y150500
X166500Y154000
Y157510
X165001Y161001
X176001Y167001
X164000Y167200
X172001Y175501
X167200Y184400
X160501Y209001
X170501
X179500Y209000
X190501Y209001
X198000Y185600
X193501Y177001
X186501Y166001
X195501Y141501
X191501Y135001
X198000Y129000
X194000Y127500
X195200Y111200
X194000Y108800
X196501Y104501
X196000Y95500
X199000Y90000
X199001Y84001
X197500Y81500
X195500Y78500
X193501Y68001
Y62001
Y43001
X196000Y37500
X190001Y22501
X182001Y22001
X219500Y20500
X207001Y27501
X207501Y33501
X218400Y34000
X219200Y38800
X219500Y43500
X216800Y50000
X201200Y50800
X208400Y51600
X202000Y55200
X219501Y56501
X219000Y60000
X202501Y60501
X219000Y64500
X202500Y65500
X200500Y70500
X210500Y73500
X218800Y73600
X206500Y76000
X216800Y76800
X201500Y77000
X204500Y78500
X201000Y79500
X216800Y80000
X210280Y83000
X204500Y87000
X216500Y94500
X218501Y96501
X203000Y104000
X205000Y105500
Y109500
X216501Y110001
X205001Y112001
X217673Y119000
X217500Y124000
X200500Y126000
X218001Y133501
X202001Y135001
X211600Y137600
X219001Y139501
X209200Y140000
X206501Y145501
X208501Y159001
X215600Y181600
X200501Y209001
X209500Y209000
X219501Y209001
X238500Y209000
X229501Y209001
X234500Y196500
X231000
X222001Y164501
X230001Y156001
X222500Y152500
X226501Y147001
X235501Y141501
X236001Y130001
X222800Y128800
X220500Y126000
X237501Y125001
X220800Y111600
X224000Y104500
X220000Y103500
X221000Y95500
X221500Y92000
X221001Y84501
X228001Y83501
X236501Y80001
X233501Y76001
X225600Y73600
X235000Y71000
X234001Y64001
X239501Y38501
X230000Y28750
X223001Y28001
X229500Y18000
X231501Y8001
X243001Y7001
X242001Y13501
X240501Y18001
X251501Y18501
X249673Y37673
X242800Y40500
X252501Y44001
X244400Y46000
X252501Y51501
Y56501
X252500Y62500
X246500Y63500
X240000Y66000
X252000Y67500
X247001Y75001
X247501Y82001
X249501Y124501
Y133501
X240501Y150501
X251501
X242500Y168000
X251001Y168501
X241001Y174501
X250001Y184001
X250501Y193501
X243001Y200501
T04
X48000Y108040
X38000Y118040
X48000
Y128040
T05
X9480Y84989
X19480
X9480Y94989
X19480
X9480Y104989
X19480
X9480Y114989
X19480
X9480Y124989
X19480
X9480Y134989
X19480
X58734Y203268
X68734
X78734
X88734
X174734
X164734
X148734
X138734
X128734
X118734
X108734
X98734
X163774Y192000
X153774
X136274
X126274
X108734
X98734
X175520Y157510
Y147510
Y137510
Y127510
Y117510
Y107510
X175500Y92500
Y82500
Y72500
Y60000
X164734Y13268
X154734
X144734
X134734
X124734
X114734
X104734
X94734
X184734
X194734
X204734
X214734
X224734
X234734
X185500Y60000
Y72500
Y82500
Y92500
X185520Y107510
Y117510
Y127510
Y137510
Y147510
Y157510
X181274Y192000
X191274
X207574
X217574
X184734Y203268
X194734
X204734
X214734
X224734
X234734
T06
X10817Y22028
Y62972
M30
