M48
INCH,TZ
T01C.02559
T02C.02756
T03C.03937
;EXTENTS: -0.024  -0.015  0.030   0.021   
;LEADER: 12 
;HEADER: 
;CODE  : ASCII 
;FILE  : C:/Users/yjun/Desktop/Project/CLEU-89/600-90698-01_CYW9BTAUDIO3_REV1.0_gerber/600-90698-01_CYW9BTAUDIO3_REV1_0_plated.rou for board C:/Users/yjun/Desktop/Project/CLEU-89/#Taaaaam04228.tmp
%
G90
F1
M16
T03
M16
G00X37893Y155768
G40
M15
G01X45965
M16
G00X30118Y170236
G40
M15
G01Y178308
M16
G00X53740Y169449
G40
M15
G01Y179095
M16
T02
M16
G00X7471Y53227
G40
M15
G01X9439
M16
G00X7471Y31772
G40
M15
G01X9439
M16
T01
M16
G00X19793Y52047
G40
M15
G01X20975
M16
G00X19793Y32953
G40
M15
G01X20975
M16
G00X244312Y116205
G40
M15
G01X248446
M16
G00X244312Y91795
G40
M15
G01X248446
M16
G00X231084Y116205
G40
M15
G01X235218
M16
G00X231084Y91795
G40
M15
G01X235218
M16
G40
M30
