G04 ================== begin FILE IDENTIFICATION RECORD ==================*
G04 Layout Name:  600-90698-01_CYW9BTAUDIO3_REV1.0.brd*
G04 Film Name:    spb*
G04 File Format:  Gerber RS274X*
G04 File Origin:  Cadence Allegro 16.6-2015-S077*
G04 Origin Date:  Tue Mar 03 08:59:59 2020*
G04 *
G04 Layer:  DRAWING FORMAT/FAB_FILM*
G04 Layer:  PACKAGE GEOMETRY/PASTEMASK_BOTTOM*
G04 Layer:  BOARD GEOMETRY/PASTEMASK_BOTTOM*
G04 Layer:  VIA CLASS/PASTEMASK_BOTTOM*
G04 Layer:  PIN/PASTEMASK_BOTTOM*
G04 *
G04 Offset:    (0.00 0.00)*
G04 Mirror:    No*
G04 Mode:      Positive*
G04 Rotation:  0*
G04 FullContactRelief:  No*
G04 UndefLineWidth:     5.00*
G04 ================== end FILE IDENTIFICATION RECORD ====================*
%FSLAX35Y35*MOIN*%
%IR0*IPPOS*OFA0.00000B0.00000*MIA0B0*SFA1.00000B1.00000*%
%ADD31R,.0866X.1102*%
%ADD30R,.0787X.1102*%
%ADD23R,.0315X.0315*%
%ADD11C,.04724*%
%ADD26R,.03543X.03543*%
%AMMACRO27*
4,1,23,.01702,.0045,
.01702,-.0045,
-.01198,-.0045,
-.012769,-.004518,
-.013549,-.0044,
-.014297,-.004147,
-.01499,-.003769,
-.015606,-.003276,
-.016127,-.002683,
-.016538,-.002009,
-.016825,-.001274,
-.01698,-.0005,
-.016998,.000289,
-.01688,.001069,
-.016627,.001817,
-.016249,.00251,
-.015756,.003126,
-.015163,.003647,
-.014489,.004058,
-.013754,.004345,
-.01298,.0045,
-.012191,.004518,
-.01198,.0045,
.01702,.0045,
0.0*
%
%ADD27MACRO27*%
%AMMACRO21*
4,1,23,.0045,-.01702,
-.0045,-.01702,
-.0045,.01198,
-.004518,.012769,
-.0044,.013549,
-.004147,.014297,
-.003769,.01499,
-.003276,.015606,
-.002683,.016127,
-.002009,.016538,
-.001274,.016825,
-.0005,.01698,
.000289,.016998,
.001069,.01688,
.001817,.016627,
.00251,.016249,
.003126,.015756,
.003647,.015163,
.004058,.014489,
.004345,.013754,
.0045,.01298,
.004518,.012191,
.0045,.01198,
.0045,-.01702,
0.0*
%
%ADD21MACRO21*%
%ADD15R,.02559X.00984*%
%ADD25R,.12992X.07874*%
%ADD29R,.1102X.1102*%
%ADD18R,.04331X.02362*%
%ADD17R,.05512X.04724*%
%ADD16R,.01378X.02362*%
%ADD10R,.05512X.03937*%
%ADD19R,.01969X.02165*%
%ADD14R,.02559X.01575*%
%ADD12R,.02165X.01969*%
%AMMACRO22*
4,1,23,-.0045,.01702,
.0045,.01702,
.0045,-.01198,
.004518,-.012769,
.0044,-.013549,
.004147,-.014297,
.003769,-.01499,
.003276,-.015606,
.002683,-.016127,
.002009,-.016538,
.001274,-.016825,
.0005,-.01698,
-.000289,-.016998,
-.001069,-.01688,
-.001817,-.016627,
-.00251,-.016249,
-.003126,-.015756,
-.003647,-.015163,
-.004058,-.014489,
-.004345,-.013754,
-.0045,-.01298,
-.004518,-.012191,
-.0045,-.01198,
-.0045,.01702,
0.0*
%
%ADD22MACRO22*%
%AMMACRO20*
4,1,23,-.01702,-.0045,
-.01702,.0045,
.01198,.0045,
.012769,.004518,
.013549,.0044,
.014297,.004147,
.01499,.003769,
.015606,.003276,
.016127,.002683,
.016538,.002009,
.016825,.001274,
.01698,.0005,
.016998,-.000289,
.01688,-.001069,
.016627,-.001817,
.016249,-.00251,
.015756,-.003126,
.015163,-.003647,
.014489,-.004058,
.013754,-.004345,
.01298,-.0045,
.012191,-.004518,
.01198,-.0045,
-.01702,-.0045,
0.0*
%
%ADD20MACRO20*%
%ADD28R,.03937X.02559*%
%ADD13R,.03937X.07087*%
%ADD24R,.09843X.08268*%
%ADD32C,.005*%
%ADD33C,.007*%
%ADD34C,.008*%
%ADD35C,.00135*%
G75*
%LPD*%
G75*
G36*
G01X80638Y64425D02*
Y56551D01*
X72764D01*
Y64425D01*
X80638D01*
G37*
G36*
G01Y75449D02*
Y67575D01*
X72764D01*
Y75449D01*
X80638D01*
G37*
G36*
G01X93236Y64425D02*
Y56551D01*
X85362D01*
Y64425D01*
X93236D01*
G37*
G36*
G01Y75449D02*
Y67575D01*
X85362D01*
Y75449D01*
X93236D01*
G37*
G54D10*
X21000Y65035D03*
Y71965D03*
G54D20*
X67843Y53203D03*
Y55172D03*
Y57140D03*
Y59109D03*
Y61077D03*
Y63046D03*
Y65014D03*
Y66983D03*
Y68951D03*
Y70920D03*
Y72888D03*
Y74857D03*
Y76825D03*
Y78794D03*
G54D11*
X35500Y42500D03*
X114500Y70500D03*
G54D12*
X41173Y63980D03*
X37827D03*
X59173Y60500D03*
X55827D03*
X43327Y48500D03*
X46673D03*
X54673D03*
X51327D03*
X56327Y75000D03*
X59673D03*
X108173Y65000D03*
X104827D03*
X107673Y74500D03*
X104327D03*
X108827Y180000D03*
X112173D03*
X119173D03*
X115827D03*
X132327D03*
X135673D03*
X140827D03*
X144173D03*
G54D21*
X74140Y50843D03*
X72172D03*
X70203D03*
X91857D03*
X89888D03*
X87920D03*
X85951D03*
X83983D03*
X82014D03*
X80046D03*
X78077D03*
X76109D03*
X95794D03*
X93825D03*
G54D30*
X228850Y56070D03*
Y188070D03*
X239870Y56070D03*
Y188070D03*
G54D13*
X33000Y71000D03*
G54D22*
X70203Y81157D03*
X72172D03*
X74140D03*
X76109D03*
X78077D03*
X80046D03*
X82014D03*
X83983D03*
X85951D03*
X87920D03*
X89888D03*
X91857D03*
X93825D03*
X95794D03*
G54D31*
X236330Y26930D03*
X247350D03*
X236330Y158930D03*
X247350D03*
G54D32*
G01X-108044Y-107585D02*
Y-110085D01*
G01X-108657Y-107585D02*
X-107431D01*
G01X-106404Y-110085D02*
Y-107585D01*
G01X-105284D02*
Y-110085D01*
G01Y-108835D02*
X-106404D01*
G01X-103111Y-110085D02*
X-104177D01*
Y-107585D01*
X-103111D01*
G01X-103537Y-108793D02*
X-104177D01*
G01X-99564Y-107585D02*
X-98924D01*
G01X-99244D02*
Y-110085D01*
G01X-99564D02*
X-98924D01*
G01X-97657D02*
Y-107585D01*
X-96431Y-110085D01*
Y-107585D01*
G01X-95351Y-110085D02*
Y-107585D01*
X-94337D01*
G01X-94711Y-108793D02*
X-95351D01*
G01X-92644Y-110085D02*
X-92857Y-110043D01*
X-93044Y-109877D01*
X-93204Y-109627D01*
X-93311Y-109335D01*
X-93364Y-109002D01*
Y-108668D01*
X-93311Y-108335D01*
X-93204Y-108043D01*
X-93044Y-107793D01*
X-92857Y-107627D01*
X-92644Y-107585D01*
X-92431Y-107627D01*
X-92244Y-107793D01*
X-92084Y-108043D01*
X-91977Y-108335D01*
X-91924Y-108668D01*
Y-109002D01*
X-91977Y-109335D01*
X-92084Y-109627D01*
X-92244Y-109877D01*
X-92431Y-110043D01*
X-92644Y-110085D01*
G01X-90977D02*
Y-107585D01*
X-90311D01*
X-90097Y-107710D01*
X-89964Y-107877D01*
X-89911Y-108210D01*
X-89964Y-108543D01*
X-90124Y-108752D01*
X-90311Y-108877D01*
X-90977D01*
G01X-90311D02*
X-89911Y-110085D01*
G01X-88937D02*
Y-107585D01*
X-88244Y-109668D01*
X-87551Y-107585D01*
Y-110085D01*
G01X-86711D02*
X-86044Y-107585D01*
X-85377Y-110085D01*
G01X-85617Y-109210D02*
X-86471D01*
G01X-83844Y-107585D02*
Y-110085D01*
G01X-84457Y-107585D02*
X-83231D01*
G01X-81964D02*
X-81324D01*
G01X-81644D02*
Y-110085D01*
G01X-81964D02*
X-81324D01*
G01X-79444D02*
X-79657Y-110043D01*
X-79844Y-109877D01*
X-80004Y-109627D01*
X-80111Y-109335D01*
X-80164Y-109002D01*
Y-108668D01*
X-80111Y-108335D01*
X-80004Y-108043D01*
X-79844Y-107793D01*
X-79657Y-107627D01*
X-79444Y-107585D01*
X-79231Y-107627D01*
X-79044Y-107793D01*
X-78884Y-108043D01*
X-78777Y-108335D01*
X-78724Y-108668D01*
Y-109002D01*
X-78777Y-109335D01*
X-78884Y-109627D01*
X-79044Y-109877D01*
X-79231Y-110043D01*
X-79444Y-110085D01*
G01X-77857D02*
Y-107585D01*
X-76631Y-110085D01*
Y-107585D01*
G01X-73404Y-110085D02*
Y-107585D01*
G01X-72284D02*
Y-110085D01*
G01Y-108835D02*
X-73404D01*
G01X-70111Y-110085D02*
X-71177D01*
Y-107585D01*
X-70111D01*
G01X-70537Y-108793D02*
X-71177D01*
G01X-68977Y-110085D02*
Y-107585D01*
X-68311D01*
X-68097Y-107710D01*
X-67964Y-107877D01*
X-67911Y-108210D01*
X-67964Y-108543D01*
X-68124Y-108752D01*
X-68311Y-108877D01*
X-68977D01*
G01X-68311D02*
X-67911Y-110085D01*
G01X-65711D02*
X-66777D01*
Y-107585D01*
X-65711D01*
G01X-66137Y-108793D02*
X-66777D01*
G01X-64364Y-107585D02*
X-63724D01*
G01X-64044D02*
Y-110085D01*
G01X-64364D02*
X-63724D01*
G01X-62457D02*
Y-107585D01*
X-61231Y-110085D01*
Y-107585D01*
G01X-57764D02*
X-57124D01*
G01X-57444D02*
Y-110085D01*
G01X-57764D02*
X-57124D01*
G01X-55804Y-109752D02*
X-55591Y-109960D01*
X-55351Y-110085D01*
X-55137D01*
X-54924Y-109960D01*
X-54764Y-109752D01*
X-54684Y-109460D01*
X-54737Y-109168D01*
X-54871Y-108918D01*
X-55111Y-108752D01*
X-55431Y-108668D01*
X-55617Y-108502D01*
X-55697Y-108210D01*
X-55644Y-107918D01*
X-55511Y-107710D01*
X-55324Y-107585D01*
X-55137D01*
X-54951Y-107668D01*
X-54791Y-107877D01*
G01X-51377Y-110085D02*
Y-107585D01*
X-50737D01*
X-50524Y-107710D01*
X-50364Y-108002D01*
X-50311Y-108335D01*
X-50364Y-108668D01*
X-50497Y-108918D01*
X-50737Y-109043D01*
X-51377D01*
G01X-49177Y-110085D02*
Y-107585D01*
X-48511D01*
X-48297Y-107710D01*
X-48164Y-107877D01*
X-48111Y-108210D01*
X-48164Y-108543D01*
X-48324Y-108752D01*
X-48511Y-108877D01*
X-49177D01*
G01X-48511D02*
X-48111Y-110085D01*
G01X-46444D02*
X-46657Y-110043D01*
X-46844Y-109877D01*
X-47004Y-109627D01*
X-47111Y-109335D01*
X-47164Y-109002D01*
Y-108668D01*
X-47111Y-108335D01*
X-47004Y-108043D01*
X-46844Y-107793D01*
X-46657Y-107627D01*
X-46444Y-107585D01*
X-46231Y-107627D01*
X-46044Y-107793D01*
X-45884Y-108043D01*
X-45777Y-108335D01*
X-45724Y-108668D01*
Y-109002D01*
X-45777Y-109335D01*
X-45884Y-109627D01*
X-46044Y-109877D01*
X-46231Y-110043D01*
X-46444Y-110085D01*
G01X-44777D02*
Y-107585D01*
X-44137D01*
X-43924Y-107710D01*
X-43764Y-108002D01*
X-43711Y-108335D01*
X-43764Y-108668D01*
X-43897Y-108918D01*
X-44137Y-109043D01*
X-44777D01*
G01X-42577Y-110085D02*
Y-107585D01*
X-41911D01*
X-41697Y-107710D01*
X-41564Y-107877D01*
X-41511Y-108210D01*
X-41564Y-108543D01*
X-41724Y-108752D01*
X-41911Y-108877D01*
X-42577D01*
G01X-41911D02*
X-41511Y-110085D01*
G01X-40164Y-107585D02*
X-39524D01*
G01X-39844D02*
Y-110085D01*
G01X-40164D02*
X-39524D01*
G01X-37111D02*
X-38177D01*
Y-107585D01*
X-37111D01*
G01X-37537Y-108793D02*
X-38177D01*
G01X-35444Y-107585D02*
Y-110085D01*
G01X-36057Y-107585D02*
X-34831D01*
G01X-33911Y-110085D02*
X-33244Y-107585D01*
X-32577Y-110085D01*
G01X-32817Y-109210D02*
X-33671D01*
G01X-31577Y-110085D02*
Y-107585D01*
X-30911D01*
X-30697Y-107710D01*
X-30564Y-107877D01*
X-30511Y-108210D01*
X-30564Y-108543D01*
X-30724Y-108752D01*
X-30911Y-108877D01*
X-31577D01*
G01X-30911D02*
X-30511Y-110085D01*
G01X-28844D02*
Y-108960D01*
X-29377Y-107585D01*
G01X-28311D02*
X-28844Y-108960D01*
G01X-24444Y-107585D02*
Y-110085D01*
G01X-25057Y-107585D02*
X-23831D01*
G01X-22244Y-110085D02*
X-22457Y-110043D01*
X-22644Y-109877D01*
X-22804Y-109627D01*
X-22911Y-109335D01*
X-22964Y-109002D01*
Y-108668D01*
X-22911Y-108335D01*
X-22804Y-108043D01*
X-22644Y-107793D01*
X-22457Y-107627D01*
X-22244Y-107585D01*
X-22031Y-107627D01*
X-21844Y-107793D01*
X-21684Y-108043D01*
X-21577Y-108335D01*
X-21524Y-108668D01*
Y-109002D01*
X-21577Y-109335D01*
X-21684Y-109627D01*
X-21844Y-109877D01*
X-22031Y-110043D01*
X-22244Y-110085D01*
G01X-17257Y-107793D02*
X-17417Y-107668D01*
X-17604Y-107585D01*
X-17817D01*
X-18057Y-107710D01*
X-18244Y-107918D01*
X-18377Y-108168D01*
X-18484Y-108585D01*
X-18511Y-108960D01*
X-18457Y-109335D01*
X-18377Y-109585D01*
X-18217Y-109835D01*
X-18031Y-110002D01*
X-17844Y-110085D01*
X-17657D01*
X-17471Y-110002D01*
X-17311Y-109877D01*
X-17177Y-109710D01*
G01X-15644Y-110085D02*
Y-108960D01*
X-16177Y-107585D01*
G01X-15111D02*
X-15644Y-108960D01*
G01X-13977Y-110085D02*
Y-107585D01*
X-13337D01*
X-13124Y-107710D01*
X-12964Y-108002D01*
X-12911Y-108335D01*
X-12964Y-108668D01*
X-13097Y-108918D01*
X-13337Y-109043D01*
X-13977D01*
G01X-11777Y-110085D02*
Y-107585D01*
X-11111D01*
X-10897Y-107710D01*
X-10764Y-107877D01*
X-10711Y-108210D01*
X-10764Y-108543D01*
X-10924Y-108752D01*
X-11111Y-108877D01*
X-11777D01*
G01X-11111D02*
X-10711Y-110085D01*
G01X-8511D02*
X-9577D01*
Y-107585D01*
X-8511D01*
G01X-8937Y-108793D02*
X-9577D01*
G01X-7404Y-109752D02*
X-7191Y-109960D01*
X-6951Y-110085D01*
X-6737D01*
X-6524Y-109960D01*
X-6364Y-109752D01*
X-6284Y-109460D01*
X-6337Y-109168D01*
X-6471Y-108918D01*
X-6711Y-108752D01*
X-7031Y-108668D01*
X-7217Y-108502D01*
X-7297Y-108210D01*
X-7244Y-107918D01*
X-7111Y-107710D01*
X-6924Y-107585D01*
X-6737D01*
X-6551Y-107668D01*
X-6391Y-107877D01*
G01X-5204Y-109752D02*
X-4991Y-109960D01*
X-4751Y-110085D01*
X-4537D01*
X-4324Y-109960D01*
X-4164Y-109752D01*
X-4084Y-109460D01*
X-4137Y-109168D01*
X-4271Y-108918D01*
X-4511Y-108752D01*
X-4831Y-108668D01*
X-5017Y-108502D01*
X-5097Y-108210D01*
X-5044Y-107918D01*
X-4911Y-107710D01*
X-4724Y-107585D01*
X-4537D01*
X-4351Y-107668D01*
X-4191Y-107877D01*
G01X-88719Y-101151D02*
X-88212Y-101568D01*
X-87642Y-101818D01*
X-87136D01*
X-86629Y-101568D01*
X-86249Y-101151D01*
X-86059Y-100568D01*
X-86186Y-99985D01*
X-86502Y-99485D01*
X-87072Y-99151D01*
X-87832Y-98985D01*
X-88276Y-98651D01*
X-88466Y-98068D01*
X-88339Y-97485D01*
X-88022Y-97068D01*
X-87579Y-96818D01*
X-87136D01*
X-86692Y-96985D01*
X-86312Y-97401D01*
G01X-83872Y-101818D02*
X-82289Y-96818D01*
X-80706Y-101818D01*
G01X-81276Y-100068D02*
X-83302D01*
G01X-78646Y-101818D02*
Y-96818D01*
X-75732Y-101818D01*
Y-96818D01*
G01X-68256Y-100818D02*
X-67939Y-101318D01*
X-67559Y-101651D01*
X-67116Y-101818D01*
X-66609Y-101651D01*
X-66229Y-101318D01*
X-65849Y-100818D01*
X-65722Y-100151D01*
Y-96818D01*
G01X-61889Y-101818D02*
X-62396Y-101735D01*
X-62839Y-101401D01*
X-63219Y-100901D01*
X-63472Y-100318D01*
X-63599Y-99651D01*
Y-98985D01*
X-63472Y-98318D01*
X-63219Y-97735D01*
X-62839Y-97235D01*
X-62396Y-96901D01*
X-61889Y-96818D01*
X-61382Y-96901D01*
X-60939Y-97235D01*
X-60559Y-97735D01*
X-60306Y-98318D01*
X-60179Y-98985D01*
Y-99651D01*
X-60306Y-100318D01*
X-60559Y-100901D01*
X-60939Y-101401D01*
X-61382Y-101735D01*
X-61889Y-101818D01*
G01X-58119Y-101151D02*
X-57612Y-101568D01*
X-57042Y-101818D01*
X-56536D01*
X-56029Y-101568D01*
X-55649Y-101151D01*
X-55459Y-100568D01*
X-55586Y-99985D01*
X-55902Y-99485D01*
X-56472Y-99151D01*
X-57232Y-98985D01*
X-57676Y-98651D01*
X-57866Y-98068D01*
X-57739Y-97485D01*
X-57422Y-97068D01*
X-56979Y-96818D01*
X-56536D01*
X-56092Y-96985D01*
X-55712Y-97401D01*
G01X-50422Y-101818D02*
X-52956D01*
Y-96818D01*
X-50422D01*
G01X-51436Y-99235D02*
X-52956D01*
G01X-46716Y-102735D02*
X-46462Y-101651D01*
G01X-34996Y-97235D02*
X-35376Y-96985D01*
X-35819Y-96818D01*
X-36326D01*
X-36896Y-97068D01*
X-37339Y-97485D01*
X-37656Y-97985D01*
X-37909Y-98818D01*
X-37972Y-99568D01*
X-37846Y-100318D01*
X-37656Y-100818D01*
X-37276Y-101318D01*
X-36832Y-101651D01*
X-36389Y-101818D01*
X-35946D01*
X-35502Y-101651D01*
X-35122Y-101401D01*
X-34806Y-101068D01*
G01X-32872Y-101818D02*
X-31289Y-96818D01*
X-29706Y-101818D01*
G01X-30276Y-100068D02*
X-32302D01*
G01X15983Y-101688D02*
Y-97688D01*
X16983D01*
X17383Y-97888D01*
X17683Y-98155D01*
X17933Y-98555D01*
X18133Y-99021D01*
X18183Y-99688D01*
X18133Y-100355D01*
X17933Y-100821D01*
X17683Y-101221D01*
X17383Y-101488D01*
X16983Y-101688D01*
X15983D01*
G01X19183Y-97688D02*
X19883Y-101688D01*
X20683Y-97688D01*
X21483Y-101688D01*
X22183Y-97688D01*
G01X24583Y-99688D02*
X25583D01*
Y-100888D01*
X25283Y-101288D01*
X24933Y-101555D01*
X24433Y-101688D01*
X23933Y-101555D01*
X23583Y-101288D01*
X23283Y-100888D01*
X23083Y-100421D01*
X22983Y-99888D01*
Y-99421D01*
X23083Y-99021D01*
X23283Y-98555D01*
X23583Y-98155D01*
X23883Y-97888D01*
X24283Y-97688D01*
X24633D01*
X25033Y-97821D01*
X25333Y-98088D01*
G01X30333Y-101688D02*
Y-97688D01*
X32633Y-101688D01*
Y-97688D01*
G01X35083Y-101688D02*
X34683Y-101621D01*
X34333Y-101355D01*
X34033Y-100955D01*
X33833Y-100488D01*
X33733Y-99955D01*
Y-99421D01*
X33833Y-98888D01*
X34033Y-98421D01*
X34333Y-98021D01*
X34683Y-97755D01*
X35083Y-97688D01*
X35483Y-97755D01*
X35833Y-98021D01*
X36133Y-98421D01*
X36333Y-98888D01*
X36433Y-99421D01*
Y-99955D01*
X36333Y-100488D01*
X36133Y-100955D01*
X35833Y-101355D01*
X35483Y-101621D01*
X35083Y-101688D01*
G01X38683Y-101821D02*
X38583Y-101755D01*
Y-101621D01*
X38683Y-101555D01*
X38783Y-101621D01*
Y-101755D01*
X38683Y-101821D01*
G01Y-100021D02*
X38583Y-99955D01*
Y-99821D01*
X38683Y-99755D01*
X38783Y-99821D01*
Y-99955D01*
X38683Y-100021D01*
G01X16083Y-82688D02*
Y-86688D01*
X18083D01*
G01X19433D02*
X20683Y-82688D01*
X21933Y-86688D01*
G01X21483Y-85288D02*
X19883D01*
G01X24283Y-86688D02*
Y-84888D01*
X23283Y-82688D01*
G01X25283D02*
X24283Y-84888D01*
G01X28883Y-86688D02*
X26883D01*
Y-82688D01*
X28883D01*
G01X28083Y-84621D02*
X26883D01*
G01X30483Y-86688D02*
Y-82688D01*
X31733D01*
X32133Y-82888D01*
X32383Y-83155D01*
X32483Y-83688D01*
X32383Y-84221D01*
X32083Y-84555D01*
X31733Y-84755D01*
X30483D01*
G01X31733D02*
X32483Y-86688D01*
G01X35083Y-86821D02*
X34983Y-86755D01*
Y-86621D01*
X35083Y-86555D01*
X35183Y-86621D01*
Y-86755D01*
X35083Y-86821D01*
G01Y-85021D02*
X34983Y-84955D01*
Y-84821D01*
X35083Y-84755D01*
X35183Y-84821D01*
Y-84955D01*
X35083Y-85021D01*
G01X15983Y-71688D02*
Y-67688D01*
X16983D01*
X17383Y-67888D01*
X17683Y-68155D01*
X17933Y-68555D01*
X18133Y-69021D01*
X18183Y-69688D01*
X18133Y-70355D01*
X17933Y-70821D01*
X17683Y-71221D01*
X17383Y-71488D01*
X16983Y-71688D01*
X15983D01*
G01X19683D02*
Y-67688D01*
X20933D01*
X21333Y-67888D01*
X21583Y-68155D01*
X21683Y-68688D01*
X21583Y-69221D01*
X21283Y-69555D01*
X20933Y-69755D01*
X19683D01*
G01X20933D02*
X21683Y-71688D01*
G01X23033D02*
X24283Y-67688D01*
X25533Y-71688D01*
G01X25083Y-70288D02*
X23483D01*
G01X26383Y-67688D02*
X27083Y-71688D01*
X27883Y-67688D01*
X28683Y-71688D01*
X29383Y-67688D01*
G01X30333Y-71688D02*
Y-67688D01*
X32633Y-71688D01*
Y-67688D01*
G01X39083Y-69555D02*
X39283Y-69355D01*
X39433Y-69021D01*
X39533Y-68555D01*
X39433Y-68155D01*
X39233Y-67888D01*
X38883Y-67688D01*
X37533D01*
Y-71688D01*
X39183D01*
X39533Y-71421D01*
X39733Y-71021D01*
X39833Y-70555D01*
X39733Y-70088D01*
X39433Y-69688D01*
X39083Y-69555D01*
X37533D01*
G01X42283Y-71688D02*
Y-69888D01*
X41283Y-67688D01*
G01X43283D02*
X42283Y-69888D01*
G01X45883Y-71821D02*
X45783Y-71755D01*
Y-71621D01*
X45883Y-71555D01*
X45983Y-71621D01*
Y-71755D01*
X45883Y-71821D01*
G01Y-70021D02*
X45783Y-69955D01*
Y-69821D01*
X45883Y-69755D01*
X45983Y-69821D01*
Y-69955D01*
X45883Y-70021D01*
G01X16083Y-56688D02*
Y-52688D01*
X17283D01*
X17683Y-52888D01*
X17983Y-53355D01*
X18083Y-53888D01*
X17983Y-54421D01*
X17733Y-54821D01*
X17283Y-55021D01*
X16083D01*
G01X19683Y-56688D02*
Y-52688D01*
X20933D01*
X21333Y-52888D01*
X21583Y-53155D01*
X21683Y-53688D01*
X21583Y-54221D01*
X21283Y-54555D01*
X20933Y-54755D01*
X19683D01*
G01X20933D02*
X21683Y-56688D01*
G01X24283D02*
X23883Y-56621D01*
X23533Y-56355D01*
X23233Y-55955D01*
X23033Y-55488D01*
X22933Y-54955D01*
Y-54421D01*
X23033Y-53888D01*
X23233Y-53421D01*
X23533Y-53021D01*
X23883Y-52755D01*
X24283Y-52688D01*
X24683Y-52755D01*
X25033Y-53021D01*
X25333Y-53421D01*
X25533Y-53888D01*
X25633Y-54421D01*
Y-54955D01*
X25533Y-55488D01*
X25333Y-55955D01*
X25033Y-56355D01*
X24683Y-56621D01*
X24283Y-56688D01*
G01X26883Y-55888D02*
X27133Y-56288D01*
X27433Y-56555D01*
X27783Y-56688D01*
X28183Y-56555D01*
X28483Y-56288D01*
X28783Y-55888D01*
X28883Y-55355D01*
Y-52688D01*
G01X32483Y-56688D02*
X30483D01*
Y-52688D01*
X32483D01*
G01X31683Y-54621D02*
X30483D01*
G01X36183Y-53021D02*
X35883Y-52821D01*
X35533Y-52688D01*
X35133D01*
X34683Y-52888D01*
X34333Y-53221D01*
X34083Y-53621D01*
X33883Y-54288D01*
X33833Y-54888D01*
X33933Y-55488D01*
X34083Y-55888D01*
X34383Y-56288D01*
X34733Y-56555D01*
X35083Y-56688D01*
X35433D01*
X35783Y-56555D01*
X36083Y-56355D01*
X36333Y-56088D01*
G01X38683Y-52688D02*
Y-56688D01*
G01X37533Y-52688D02*
X39833D01*
G01X42283Y-56821D02*
X42183Y-56755D01*
Y-56621D01*
X42283Y-56555D01*
X42383Y-56621D01*
Y-56755D01*
X42283Y-56821D01*
G01Y-55021D02*
X42183Y-54955D01*
Y-54821D01*
X42283Y-54755D01*
X42383Y-54821D01*
Y-54955D01*
X42283Y-55021D01*
G01X211083Y-101688D02*
Y-97688D01*
X212333D01*
X212733Y-97888D01*
X212983Y-98155D01*
X213083Y-98688D01*
X212983Y-99221D01*
X212683Y-99555D01*
X212333Y-99755D01*
X211083D01*
G01X212333D02*
X213083Y-101688D01*
G01X216683D02*
X214683D01*
Y-97688D01*
X216683D01*
G01X215883Y-99621D02*
X214683D01*
G01X218033Y-97688D02*
X219283Y-101688D01*
X220533Y-97688D01*
G01X222883Y-101821D02*
X222783Y-101755D01*
Y-101621D01*
X222883Y-101555D01*
X222983Y-101621D01*
Y-101755D01*
X222883Y-101821D01*
G01Y-100021D02*
X222783Y-99955D01*
Y-99821D01*
X222883Y-99755D01*
X222983Y-99821D01*
Y-99955D01*
X222883Y-100021D01*
G01X249983Y-101688D02*
Y-97688D01*
X250983D01*
X251383Y-97888D01*
X251683Y-98155D01*
X251933Y-98555D01*
X252133Y-99021D01*
X252183Y-99688D01*
X252133Y-100355D01*
X251933Y-100821D01*
X251683Y-101221D01*
X251383Y-101488D01*
X250983Y-101688D01*
X249983D01*
G01X253433D02*
X254683Y-97688D01*
X255933Y-101688D01*
G01X255483Y-100288D02*
X253883D01*
G01X258283Y-97688D02*
Y-101688D01*
G01X257133Y-97688D02*
X259433D01*
G01X262883Y-101688D02*
X260883D01*
Y-97688D01*
X262883D01*
G01X262083Y-99621D02*
X260883D01*
G01X265483Y-101821D02*
X265383Y-101755D01*
Y-101621D01*
X265483Y-101555D01*
X265583Y-101621D01*
Y-101755D01*
X265483Y-101821D01*
G01Y-100021D02*
X265383Y-99955D01*
Y-99821D01*
X265483Y-99755D01*
X265583Y-99821D01*
Y-99955D01*
X265483Y-100021D01*
G54D14*
X28787Y68795D03*
G54D23*
X61669Y126000D03*
X70331D03*
G54D33*
G01X-52483Y-52688D02*
X14583D01*
Y-112688D01*
X-131417D01*
Y-52688D01*
X-50193D01*
G01X14583Y-112688D02*
X349744D01*
Y-52688D01*
X14583D01*
G01Y-97688D02*
X349583D01*
G01X14583Y-82688D02*
X349583D01*
G01X14583Y-67688D02*
X349583D01*
G01X209583Y-112688D02*
Y-97688D01*
G01X248583Y-112688D02*
Y-97688D01*
G54D24*
X67929Y140500D03*
Y158500D03*
X84071Y140500D03*
Y158500D03*
G54D15*
X28787Y71000D03*
Y72969D03*
X37213D03*
Y71000D03*
Y69031D03*
G54D34*
G01X40504Y-105245D02*
X41204Y-104311D01*
X41804Y-103778D01*
X42604Y-103511D01*
X43304Y-103778D01*
X43804Y-104311D01*
X44204Y-105111D01*
X44304Y-106045D01*
X44204Y-106845D01*
X43804Y-107645D01*
X43204Y-108311D01*
X42504Y-108578D01*
X41704Y-108311D01*
X41004Y-107512D01*
X40604Y-106311D01*
X40504Y-104978D01*
X40704Y-103245D01*
X41004Y-102311D01*
X41504Y-101378D01*
X42204Y-100711D01*
X42904Y-100578D01*
X43604Y-100845D01*
X44104Y-101511D01*
G01X50404Y-100578D02*
X49604Y-100845D01*
X49004Y-101511D01*
X48604Y-102311D01*
X48304Y-103378D01*
X48204Y-104578D01*
X48304Y-105778D01*
X48604Y-106845D01*
X49004Y-107645D01*
X49604Y-108311D01*
X50404Y-108578D01*
X51204Y-108311D01*
X51804Y-107645D01*
X52204Y-106845D01*
X52504Y-105778D01*
X52604Y-104578D01*
X52504Y-103378D01*
X52204Y-102311D01*
X51804Y-101511D01*
X51204Y-100845D01*
X50404Y-100578D01*
G01X58404D02*
X57604Y-100845D01*
X57004Y-101511D01*
X56604Y-102311D01*
X56304Y-103378D01*
X56204Y-104578D01*
X56304Y-105778D01*
X56604Y-106845D01*
X57004Y-107645D01*
X57604Y-108311D01*
X58404Y-108578D01*
X59204Y-108311D01*
X59804Y-107645D01*
X60204Y-106845D01*
X60504Y-105778D01*
X60604Y-104578D01*
X60504Y-103378D01*
X60204Y-102311D01*
X59804Y-101511D01*
X59204Y-100845D01*
X58404Y-100578D01*
G01X65104Y-105911D02*
X67704D01*
G01X72704Y-107645D02*
X73404Y-108311D01*
X74204Y-108578D01*
X75004Y-108311D01*
X75704Y-107512D01*
X76204Y-106311D01*
X76404Y-105111D01*
Y-103645D01*
X76204Y-102445D01*
X75704Y-101378D01*
X75104Y-100845D01*
X74404Y-100578D01*
X73604Y-100845D01*
X73004Y-101378D01*
X72604Y-102178D01*
X72404Y-103245D01*
X72604Y-104178D01*
X73104Y-105111D01*
X73704Y-105645D01*
X74404Y-105778D01*
X75204Y-105512D01*
X75804Y-104845D01*
X76404Y-103645D01*
G01X82404Y-100578D02*
X81604Y-100845D01*
X81004Y-101511D01*
X80604Y-102311D01*
X80304Y-103378D01*
X80204Y-104578D01*
X80304Y-105778D01*
X80604Y-106845D01*
X81004Y-107645D01*
X81604Y-108311D01*
X82404Y-108578D01*
X83204Y-108311D01*
X83804Y-107645D01*
X84204Y-106845D01*
X84504Y-105778D01*
X84604Y-104578D01*
X84504Y-103378D01*
X84204Y-102311D01*
X83804Y-101511D01*
X83204Y-100845D01*
X82404Y-100578D01*
G01X88504Y-105245D02*
X89204Y-104311D01*
X89804Y-103778D01*
X90604Y-103511D01*
X91304Y-103778D01*
X91804Y-104311D01*
X92204Y-105111D01*
X92304Y-106045D01*
X92204Y-106845D01*
X91804Y-107645D01*
X91204Y-108311D01*
X90504Y-108578D01*
X89704Y-108311D01*
X89004Y-107512D01*
X88604Y-106311D01*
X88504Y-104978D01*
X88704Y-103245D01*
X89004Y-102311D01*
X89504Y-101378D01*
X90204Y-100711D01*
X90904Y-100578D01*
X91604Y-100845D01*
X92104Y-101511D01*
G01X96704Y-107645D02*
X97404Y-108311D01*
X98204Y-108578D01*
X99004Y-108311D01*
X99704Y-107512D01*
X100204Y-106311D01*
X100404Y-105111D01*
Y-103645D01*
X100204Y-102445D01*
X99704Y-101378D01*
X99104Y-100845D01*
X98404Y-100578D01*
X97604Y-100845D01*
X97004Y-101378D01*
X96604Y-102178D01*
X96404Y-103245D01*
X96604Y-104178D01*
X97104Y-105111D01*
X97704Y-105645D01*
X98404Y-105778D01*
X99204Y-105512D01*
X99804Y-104845D01*
X100404Y-103645D01*
G01X106404Y-108578D02*
X107104Y-108445D01*
X107904Y-108045D01*
X108404Y-107378D01*
X108604Y-106445D01*
X108404Y-105512D01*
X107804Y-104711D01*
X106904Y-104311D01*
X105904D01*
X105304Y-104045D01*
X104804Y-103378D01*
X104604Y-102445D01*
X104904Y-101511D01*
X105604Y-100845D01*
X106404Y-100578D01*
X107204Y-100845D01*
X107904Y-101511D01*
X108204Y-102445D01*
X108004Y-103378D01*
X107504Y-104045D01*
X106904Y-104311D01*
X105904D01*
X105004Y-104711D01*
X104404Y-105512D01*
X104204Y-106445D01*
X104404Y-107378D01*
X104904Y-108045D01*
X105704Y-108445D01*
X106404Y-108578D01*
G01X113104Y-105911D02*
X115704D01*
G01X122404Y-100578D02*
X121604Y-100845D01*
X121004Y-101511D01*
X120604Y-102311D01*
X120304Y-103378D01*
X120204Y-104578D01*
X120304Y-105778D01*
X120604Y-106845D01*
X121004Y-107645D01*
X121604Y-108311D01*
X122404Y-108578D01*
X123204Y-108311D01*
X123804Y-107645D01*
X124204Y-106845D01*
X124504Y-105778D01*
X124604Y-104578D01*
X124504Y-103378D01*
X124204Y-102311D01*
X123804Y-101511D01*
X123204Y-100845D01*
X122404Y-100578D01*
G01X130404Y-108578D02*
Y-100578D01*
X129204Y-102178D01*
G01Y-108578D02*
X131604D01*
G01X40304Y-93012D02*
X41104Y-93678D01*
X42004Y-94078D01*
X42804D01*
X43604Y-93678D01*
X44204Y-93012D01*
X44504Y-92078D01*
X44304Y-91145D01*
X43804Y-90345D01*
X42904Y-89811D01*
X41704Y-89545D01*
X41004Y-89011D01*
X40704Y-88078D01*
X40904Y-87145D01*
X41404Y-86478D01*
X42104Y-86078D01*
X42804D01*
X43504Y-86345D01*
X44104Y-87011D01*
G01X50404Y-94078D02*
X49604Y-93945D01*
X48904Y-93411D01*
X48304Y-92611D01*
X47904Y-91678D01*
X47704Y-90611D01*
Y-89545D01*
X47904Y-88478D01*
X48304Y-87545D01*
X48904Y-86745D01*
X49604Y-86211D01*
X50404Y-86078D01*
X51204Y-86211D01*
X51904Y-86745D01*
X52504Y-87545D01*
X52904Y-88478D01*
X53104Y-89545D01*
Y-90611D01*
X52904Y-91678D01*
X52504Y-92611D01*
X51904Y-93411D01*
X51204Y-93945D01*
X50404Y-94078D01*
G01X56404Y-86078D02*
Y-94078D01*
X60404D01*
G01X64204D02*
Y-86078D01*
X66204D01*
X67004Y-86478D01*
X67604Y-87011D01*
X68104Y-87811D01*
X68504Y-88745D01*
X68604Y-90078D01*
X68504Y-91411D01*
X68104Y-92345D01*
X67604Y-93145D01*
X67004Y-93678D01*
X66204Y-94078D01*
X64204D01*
G01X76404D02*
X72404D01*
Y-86078D01*
X76404D01*
G01X74804Y-89945D02*
X72404D01*
G01X80404Y-94078D02*
Y-86078D01*
X82904D01*
X83704Y-86478D01*
X84204Y-87011D01*
X84404Y-88078D01*
X84204Y-89145D01*
X83604Y-89811D01*
X82904Y-90211D01*
X80404D01*
G01X82904D02*
X84404Y-94078D01*
G01X88404D02*
Y-86078D01*
X90804D01*
X91604Y-86478D01*
X92204Y-87411D01*
X92404Y-88478D01*
X92204Y-89545D01*
X91704Y-90345D01*
X90804Y-90745D01*
X88404D01*
G01X95904Y-94078D02*
X98404Y-86078D01*
X100904Y-94078D01*
G01X100004Y-91278D02*
X96804D01*
G01X104304Y-93012D02*
X105104Y-93678D01*
X106004Y-94078D01*
X106804D01*
X107604Y-93678D01*
X108204Y-93012D01*
X108504Y-92078D01*
X108304Y-91145D01*
X107804Y-90345D01*
X106904Y-89811D01*
X105704Y-89545D01*
X105004Y-89011D01*
X104704Y-88078D01*
X104904Y-87145D01*
X105404Y-86478D01*
X106104Y-86078D01*
X106804D01*
X107504Y-86345D01*
X108104Y-87011D01*
G01X114404Y-86078D02*
Y-94078D01*
G01X112104Y-86078D02*
X116704D01*
G01X124404Y-94078D02*
X120404D01*
Y-86078D01*
X124404D01*
G01X122804Y-89945D02*
X120404D01*
G01X139204Y-89811D02*
X139604Y-89411D01*
X139904Y-88745D01*
X140104Y-87811D01*
X139904Y-87011D01*
X139504Y-86478D01*
X138804Y-86078D01*
X136104D01*
Y-94078D01*
X139404D01*
X140104Y-93545D01*
X140504Y-92745D01*
X140704Y-91811D01*
X140504Y-90878D01*
X139904Y-90078D01*
X139204Y-89811D01*
X136104D01*
G01X146404Y-94078D02*
X145604Y-93945D01*
X144904Y-93411D01*
X144304Y-92611D01*
X143904Y-91678D01*
X143704Y-90611D01*
Y-89545D01*
X143904Y-88478D01*
X144304Y-87545D01*
X144904Y-86745D01*
X145604Y-86211D01*
X146404Y-86078D01*
X147204Y-86211D01*
X147904Y-86745D01*
X148504Y-87545D01*
X148904Y-88478D01*
X149104Y-89545D01*
Y-90611D01*
X148904Y-91678D01*
X148504Y-92611D01*
X147904Y-93411D01*
X147204Y-93945D01*
X146404Y-94078D01*
G01X154404Y-86078D02*
Y-94078D01*
G01X152104Y-86078D02*
X156704D01*
G01X162404D02*
Y-94078D01*
G01X160104Y-86078D02*
X164704D01*
G01X170404Y-94078D02*
X169604Y-93945D01*
X168904Y-93411D01*
X168304Y-92611D01*
X167904Y-91678D01*
X167704Y-90611D01*
Y-89545D01*
X167904Y-88478D01*
X168304Y-87545D01*
X168904Y-86745D01*
X169604Y-86211D01*
X170404Y-86078D01*
X171204Y-86211D01*
X171904Y-86745D01*
X172504Y-87545D01*
X172904Y-88478D01*
X173104Y-89545D01*
Y-90611D01*
X172904Y-91678D01*
X172504Y-92611D01*
X171904Y-93411D01*
X171204Y-93945D01*
X170404Y-94078D01*
G01X175804D02*
Y-86078D01*
X178404Y-92745D01*
X181004Y-86078D01*
Y-94078D01*
G01X49004Y-79245D02*
Y-75645D01*
X47004Y-71245D01*
G01X51004D02*
X49004Y-75645D01*
G01X55004Y-77645D02*
X55504Y-78445D01*
X56104Y-78978D01*
X56804Y-79245D01*
X57604Y-78978D01*
X58204Y-78445D01*
X58804Y-77645D01*
X59004Y-76578D01*
Y-71245D01*
G01X62804D02*
Y-76978D01*
X63204Y-78179D01*
X64004Y-78978D01*
X65004Y-79245D01*
X66004Y-78978D01*
X66804Y-78179D01*
X67204Y-76978D01*
Y-71245D01*
G01X70704Y-79245D02*
Y-71245D01*
X75304Y-79245D01*
Y-71245D01*
G01X50200Y-56334D02*
X49600Y-55934D01*
X48900Y-55667D01*
X48100D01*
X47200Y-56067D01*
X46500Y-56734D01*
X46000Y-57534D01*
X45600Y-58867D01*
X45500Y-60067D01*
X45700Y-61267D01*
X46000Y-62067D01*
X46600Y-62867D01*
X47300Y-63400D01*
X48000Y-63667D01*
X48700D01*
X49400Y-63400D01*
X50000Y-63000D01*
X50500Y-62467D01*
G01X56000Y-63667D02*
Y-60067D01*
X54000Y-55667D01*
G01X58000D02*
X56000Y-60067D01*
G01X61000Y-55667D02*
X62400Y-63667D01*
X64000Y-55667D01*
X65600Y-63667D01*
X67000Y-55667D01*
G01X70300Y-62734D02*
X71000Y-63400D01*
X71800Y-63667D01*
X72600Y-63400D01*
X73300Y-62601D01*
X73800Y-61400D01*
X74000Y-60200D01*
Y-58734D01*
X73800Y-57534D01*
X73300Y-56467D01*
X72700Y-55934D01*
X72000Y-55667D01*
X71200Y-55934D01*
X70600Y-56467D01*
X70200Y-57267D01*
X70000Y-58334D01*
X70200Y-59267D01*
X70700Y-60200D01*
X71300Y-60734D01*
X72000Y-60867D01*
X72800Y-60601D01*
X73400Y-59934D01*
X74000Y-58734D01*
G01X80800Y-59400D02*
X81200Y-59000D01*
X81500Y-58334D01*
X81700Y-57400D01*
X81500Y-56600D01*
X81100Y-56067D01*
X80400Y-55667D01*
X77700D01*
Y-63667D01*
X81000D01*
X81700Y-63134D01*
X82100Y-62334D01*
X82300Y-61400D01*
X82100Y-60467D01*
X81500Y-59667D01*
X80800Y-59400D01*
X77700D01*
G01X88000Y-55667D02*
Y-63667D01*
G01X85700Y-55667D02*
X90300D01*
G01X93500Y-63667D02*
X96000Y-55667D01*
X98500Y-63667D01*
G01X97600Y-60867D02*
X94400D01*
G01X101800Y-55667D02*
Y-61400D01*
X102200Y-62601D01*
X103000Y-63400D01*
X104000Y-63667D01*
X105000Y-63400D01*
X105800Y-62601D01*
X106200Y-61400D01*
Y-55667D01*
G01X109800Y-63667D02*
Y-55667D01*
X111800D01*
X112600Y-56067D01*
X113200Y-56600D01*
X113700Y-57400D01*
X114100Y-58334D01*
X114200Y-59667D01*
X114100Y-61000D01*
X113700Y-61934D01*
X113200Y-62734D01*
X112600Y-63267D01*
X111800Y-63667D01*
X109800D01*
G01X118800Y-55667D02*
X121200D01*
G01X120000D02*
Y-63667D01*
G01X118800D02*
X121200D01*
G01X128000D02*
X127200Y-63534D01*
X126500Y-63000D01*
X125900Y-62200D01*
X125500Y-61267D01*
X125300Y-60200D01*
Y-59134D01*
X125500Y-58067D01*
X125900Y-57134D01*
X126500Y-56334D01*
X127200Y-55800D01*
X128000Y-55667D01*
X128800Y-55800D01*
X129500Y-56334D01*
X130100Y-57134D01*
X130500Y-58067D01*
X130700Y-59134D01*
Y-60200D01*
X130500Y-61267D01*
X130100Y-62200D01*
X129500Y-63000D01*
X128800Y-63534D01*
X128000Y-63667D01*
G01X133800Y-62067D02*
X134400Y-63000D01*
X135200Y-63534D01*
X136100Y-63667D01*
X136900Y-63534D01*
X137700Y-62867D01*
X138200Y-62067D01*
X138300Y-61267D01*
X138100Y-60334D01*
X137400Y-59667D01*
X136700Y-59400D01*
X135800D01*
G01X136700D02*
X137300Y-59000D01*
X137800Y-58334D01*
X138000Y-57534D01*
X137800Y-56734D01*
X137300Y-56067D01*
X136400Y-55667D01*
X135500Y-55800D01*
X134600Y-56334D01*
G01X226583Y-108688D02*
Y-100688D01*
X225383Y-102288D01*
G01Y-108688D02*
X227783D01*
G01X234583Y-108955D02*
X234383Y-108821D01*
Y-108555D01*
X234583Y-108421D01*
X234783Y-108555D01*
Y-108821D01*
X234583Y-108955D01*
G01X242583Y-100688D02*
X241783Y-100955D01*
X241183Y-101621D01*
X240783Y-102421D01*
X240483Y-103488D01*
X240383Y-104688D01*
X240483Y-105888D01*
X240783Y-106955D01*
X241183Y-107755D01*
X241783Y-108421D01*
X242583Y-108688D01*
X243383Y-108421D01*
X243983Y-107755D01*
X244383Y-106955D01*
X244683Y-105888D01*
X244783Y-104688D01*
X244683Y-103488D01*
X244383Y-102421D01*
X243983Y-101621D01*
X243383Y-100955D01*
X242583Y-100688D01*
G01X268583D02*
X267783Y-100955D01*
X267183Y-101621D01*
X266783Y-102421D01*
X266483Y-103488D01*
X266383Y-104688D01*
X266483Y-105888D01*
X266783Y-106955D01*
X267183Y-107755D01*
X267783Y-108421D01*
X268583Y-108688D01*
X269383Y-108421D01*
X269983Y-107755D01*
X270383Y-106955D01*
X270683Y-105888D01*
X270783Y-104688D01*
X270683Y-103488D01*
X270383Y-102421D01*
X269983Y-101621D01*
X269383Y-100955D01*
X268583Y-100688D01*
G01X274383Y-107088D02*
X274983Y-108021D01*
X275783Y-108555D01*
X276683Y-108688D01*
X277483Y-108555D01*
X278283Y-107888D01*
X278783Y-107088D01*
X278883Y-106288D01*
X278683Y-105355D01*
X277983Y-104688D01*
X277283Y-104421D01*
X276383D01*
G01X277283D02*
X277883Y-104021D01*
X278383Y-103355D01*
X278583Y-102555D01*
X278383Y-101755D01*
X277883Y-101088D01*
X276983Y-100688D01*
X276083Y-100821D01*
X275183Y-101355D01*
G01X282783Y-108955D02*
X286383Y-100688D01*
G01X292583D02*
X291783Y-100955D01*
X291183Y-101621D01*
X290783Y-102421D01*
X290483Y-103488D01*
X290383Y-104688D01*
X290483Y-105888D01*
X290783Y-106955D01*
X291183Y-107755D01*
X291783Y-108421D01*
X292583Y-108688D01*
X293383Y-108421D01*
X293983Y-107755D01*
X294383Y-106955D01*
X294683Y-105888D01*
X294783Y-104688D01*
X294683Y-103488D01*
X294383Y-102421D01*
X293983Y-101621D01*
X293383Y-100955D01*
X292583Y-100688D01*
G01X298383Y-107088D02*
X298983Y-108021D01*
X299783Y-108555D01*
X300683Y-108688D01*
X301483Y-108555D01*
X302283Y-107888D01*
X302783Y-107088D01*
X302883Y-106288D01*
X302683Y-105355D01*
X301983Y-104688D01*
X301283Y-104421D01*
X300383D01*
G01X301283D02*
X301883Y-104021D01*
X302383Y-103355D01*
X302583Y-102555D01*
X302383Y-101755D01*
X301883Y-101088D01*
X300983Y-100688D01*
X300083Y-100821D01*
X299183Y-101355D01*
G01X306783Y-108955D02*
X310383Y-100688D01*
G01X314683Y-102021D02*
X315283Y-101221D01*
X315983Y-100821D01*
X316783Y-100688D01*
X317783Y-100955D01*
X318483Y-101621D01*
X318683Y-102421D01*
X318583Y-103222D01*
X318183Y-103888D01*
X316183Y-105221D01*
X315283Y-106155D01*
X314683Y-107488D01*
X314483Y-108688D01*
X318683D01*
G01X324583Y-100688D02*
X323783Y-100955D01*
X323183Y-101621D01*
X322783Y-102421D01*
X322483Y-103488D01*
X322383Y-104688D01*
X322483Y-105888D01*
X322783Y-106955D01*
X323183Y-107755D01*
X323783Y-108421D01*
X324583Y-108688D01*
X325383Y-108421D01*
X325983Y-107755D01*
X326383Y-106955D01*
X326683Y-105888D01*
X326783Y-104688D01*
X326683Y-103488D01*
X326383Y-102421D01*
X325983Y-101621D01*
X325383Y-100955D01*
X324583Y-100688D01*
G54D16*
X28780Y94989D03*
X26220D03*
X28780Y84989D03*
X26220D03*
X28780Y90000D03*
X26220D03*
X28780Y104989D03*
X26220D03*
X28780Y124989D03*
X26220D03*
X28780Y114989D03*
X26220D03*
X28780Y134989D03*
X26220D03*
G54D25*
X71500Y174035D03*
Y190965D03*
G54D35*
G01X-117420Y-73513D02*
X-113776D01*
G01X-117556Y-73648D02*
X-113776D01*
G01X-117556Y-73782D02*
X-110670D01*
G01X-117556Y-73917D02*
X-110670D01*
G01X-117556Y-74052D02*
X-110670D01*
G01X-117556Y-74187D02*
X-110670D01*
G01X-117556Y-74322D02*
X-110670D01*
G01X-117556Y-74457D02*
X-110670D01*
G01X-117556Y-74593D02*
X-109320D01*
G01X-117556Y-74728D02*
X-109320D01*
G01X-117556Y-74863D02*
X-109320D01*
G01X-117556Y-74998D02*
X-109320D01*
G01X-117556Y-75132D02*
X-109320D01*
G01X-117691Y-75267D02*
X-109320D01*
G01X-117691Y-75402D02*
X-109320D01*
G01X-117691Y-75537D02*
X-102300D01*
G01X-117691Y-75672D02*
X-102300D01*
G01X-117691Y-75807D02*
X-102300D01*
G01X-117691Y-75943D02*
X-102300D01*
G01X-117691Y-76078D02*
X-102300D01*
G01X-117691Y-76213D02*
X-102300D01*
G01X-117691Y-76348D02*
X-102300D01*
G01X-117691Y-76482D02*
X-99600D01*
G01X-117556Y-76617D02*
X-99465D01*
G01X-117556Y-76752D02*
X-99330D01*
G01X-117556Y-76887D02*
X-99196D01*
G01X-117556Y-77022D02*
X-99061D01*
G01X-117556Y-77157D02*
X-99061D01*
G01X-117556Y-77293D02*
X-98926D01*
G01X-117556Y-77428D02*
X-98791D01*
G01X-117556Y-77563D02*
X-98656D01*
G01X-117556Y-77698D02*
X-98520D01*
G01X-117556Y-77832D02*
X-98385D01*
G01X-117556Y-77967D02*
X-98250D01*
G01X-117556Y-78102D02*
X-98250D01*
G01X-117420Y-78237D02*
X-98115D01*
G01X-117420Y-78372D02*
X-97980D01*
G01X-117420Y-78507D02*
X-97846D01*
G01X-117420Y-78643D02*
X-97711D01*
G01X-117420Y-78778D02*
X-97576D01*
G01X-117420Y-78913D02*
X-97441D01*
G01X-117420Y-79048D02*
X-97306D01*
G01X-117285Y-79182D02*
X-97306D01*
G01X-117285Y-79317D02*
X-97170D01*
G01X-117285Y-79452D02*
X-97035D01*
G01X-117285Y-79587D02*
X-96900D01*
G01X-117285Y-79722D02*
X-97035D01*
G01X-117150Y-79857D02*
X-97170D01*
G01X-117150Y-79993D02*
X-97170D01*
G01X-117150Y-80128D02*
X-97306D01*
G01X-117150Y-80263D02*
X-97441D01*
G01X-117015Y-80398D02*
X-97576D01*
G01X-117015Y-80532D02*
X-97576D01*
G01X-117015Y-80667D02*
X-97711D01*
G01X-117015Y-80802D02*
X-97846D01*
G01X-116880Y-80937D02*
X-97980D01*
G01X-116880Y-81072D02*
X-97980D01*
G01X-116880Y-81207D02*
X-98115D01*
G01X-116746Y-81343D02*
X-98250D01*
G01X-116746Y-81478D02*
X-98385D01*
G01X-116746Y-81613D02*
X-98385D01*
G01X-116611Y-81748D02*
X-98520D01*
G01X-116611Y-81882D02*
X-98656D01*
G01X-116611Y-82017D02*
X-98791D01*
G01X-115935Y-83502D02*
X-99870D01*
G01X-115800Y-83637D02*
X-99870D01*
G01X-115800Y-83772D02*
X-100006D01*
G01X-115665Y-83907D02*
X-100141D01*
G01X-115665Y-84043D02*
X-100276D01*
G01X-115530Y-84178D02*
X-100276D01*
G01X-115530Y-84313D02*
X-100411D01*
G01X-115396Y-84448D02*
X-100546D01*
G01X-115396Y-84582D02*
X-100680D01*
G01X-115261Y-84717D02*
X-100680D01*
G01X-115261Y-84852D02*
X-100815D01*
G01X-115126Y-84987D02*
X-100950D01*
G01X-114991Y-85122D02*
X-100950D01*
G01X-114991Y-85257D02*
X-101085D01*
G01X-114856Y-85393D02*
X-101220D01*
G01X-114856Y-85528D02*
X-102841D01*
G01X-114720Y-85663D02*
X-102976D01*
G01X-114585Y-85798D02*
X-102976D01*
G01X-114585Y-85932D02*
X-102976D01*
G01X-114450Y-86067D02*
X-102976D01*
G01X-114315Y-86202D02*
X-102976D01*
G01X-114180Y-86337D02*
X-102841D01*
G01X-114180Y-86472D02*
X-105811D01*
G01X-114046Y-86607D02*
X-105811D01*
G01X-113911Y-86743D02*
X-105811D01*
G01X-113776Y-86878D02*
X-105811D01*
G01X-113776Y-87013D02*
X-105811D01*
G01X-113641Y-87148D02*
X-105811D01*
G01X-113506Y-87282D02*
X-105811D01*
G01X-112561Y-88228D02*
X-112426D01*
G01X-112561Y-88363D02*
X-87180D01*
G01X-112426Y-88498D02*
X-87315D01*
G01X-112291Y-88632D02*
X-87450D01*
G01X-112156Y-88767D02*
X-87585D01*
G01X-111885Y-88902D02*
X-87720D01*
G01X-111750Y-89037D02*
X-87991D01*
G01X-111615Y-89172D02*
X-88126D01*
G01X-111480Y-89307D02*
X-88261D01*
G01X-111346Y-89443D02*
X-88396D01*
G01X-111211Y-89578D02*
X-88530D01*
G01X-111076Y-89713D02*
X-88665D01*
G01X-110806Y-89848D02*
X-88935D01*
G01X-110670Y-89982D02*
X-89070D01*
G01X-110535Y-90117D02*
X-89206D01*
G01X-116476Y-82152D02*
X-98791D01*
G01X-116476Y-82287D02*
X-98926D01*
G01X-116341Y-82422D02*
X-99061D01*
G01X-116341Y-82557D02*
X-99061D01*
G01X-116341Y-82693D02*
X-99196D01*
G01X-116206Y-82828D02*
X-99330D01*
G01X-116206Y-82963D02*
X-99465D01*
G01X-116070Y-83098D02*
X-99465D01*
G01X-116070Y-83232D02*
X-99600D01*
G01X-115935Y-83367D02*
X-99735D01*
G01X-117420Y-72837D02*
X-113776D01*
G01X-117420Y-72972D02*
X-113776D01*
G01X-117420Y-73107D02*
X-113776D01*
G01X-117420Y-73243D02*
X-113776D01*
G01X-117420Y-73378D02*
X-113776D01*
G01X-116611Y-69732D02*
X-110265D01*
G01X-116611Y-69867D02*
X-110265D01*
G01X-116611Y-70002D02*
X-110400D01*
G01X-116746Y-70137D02*
X-114720D01*
G01X-116746Y-70272D02*
X-114720D01*
G01X-116746Y-70407D02*
X-114720D01*
G01X-116880Y-70543D02*
X-114720D01*
G01X-116880Y-70678D02*
X-114720D01*
G01X-116880Y-70813D02*
X-114720D01*
G01X-113100Y-64063D02*
X-86641D01*
G01X-113235Y-64198D02*
X-86506D01*
G01X-113370Y-64332D02*
X-86370D01*
G01X-113506Y-64467D02*
X-86235D01*
G01X-113641Y-64602D02*
X-86100D01*
G01X-113776Y-64737D02*
X-85965D01*
G01X-113776Y-64872D02*
X-85965D01*
G01X-113911Y-65007D02*
X-85830D01*
G01X-114046Y-65143D02*
X-85696D01*
G01X-114180Y-65278D02*
X-85561D01*
G01X-114180Y-65413D02*
X-85561D01*
G01X-114315Y-65548D02*
X-85426D01*
G01X-114450Y-65682D02*
X-85291D01*
G01X-114585Y-65817D02*
X-85156D01*
G01X-114585Y-65952D02*
X-85156D01*
G01X-114720Y-66087D02*
X-85020D01*
G01X-114856Y-66222D02*
X-84885D01*
G01X-114856Y-66357D02*
X-84885D01*
G01X-114991Y-66493D02*
X-106620D01*
G01X-114991Y-66628D02*
X-106620D01*
G01X-115126Y-66763D02*
X-106620D01*
G01X-115261Y-66898D02*
X-106620D01*
G01X-115261Y-67032D02*
X-106620D01*
G01X-115396Y-67167D02*
X-106485D01*
G01X-115396Y-67302D02*
X-108646D01*
G01X-115530Y-67437D02*
X-108646D01*
G01X-115530Y-67572D02*
X-108646D01*
G01X-115665Y-67707D02*
X-108646D01*
G01X-115665Y-67843D02*
X-108646D01*
G01X-115800Y-67978D02*
X-108646D01*
G01X-115800Y-68113D02*
X-108646D01*
G01X-115935Y-68248D02*
X-112696D01*
G01X-115935Y-68382D02*
X-112696D01*
G01X-116070Y-68517D02*
X-112696D01*
G01X-116070Y-68652D02*
X-112696D01*
G01X-116206Y-68787D02*
X-112696D01*
G01X-116206Y-68922D02*
X-112696D01*
G01X-116341Y-69057D02*
X-112696D01*
G01X-116341Y-69193D02*
X-110265D01*
G01X-116341Y-69328D02*
X-110265D01*
G01X-116476Y-69463D02*
X-110265D01*
G01X-116476Y-69598D02*
X-110265D01*
G01X-110535Y-61632D02*
X-89206D01*
G01X-110670Y-61767D02*
X-89070D01*
G01X-110806Y-61902D02*
X-88935D01*
G01X-111076Y-62037D02*
X-88665D01*
G01X-111211Y-62172D02*
X-88530D01*
G01X-111346Y-62307D02*
X-88396D01*
G01X-111480Y-62443D02*
X-88261D01*
G01X-111615Y-62578D02*
X-88126D01*
G01X-111750Y-62713D02*
X-87856D01*
G01X-111885Y-62848D02*
X-87720D01*
G01X-112156Y-62982D02*
X-87585D01*
G01X-112291Y-63117D02*
X-87450D01*
G01X-112426Y-63252D02*
X-87315D01*
G01X-112561Y-63387D02*
X-87180D01*
G01X-112696Y-63522D02*
X-87046D01*
G01X-112830Y-63657D02*
X-86911D01*
G01X-112830Y-63793D02*
X-86776D01*
G01X-112965Y-63928D02*
X-86641D01*
G01X-106080Y-92548D02*
X-93661D01*
G01X-105676Y-92682D02*
X-94065D01*
G01X-110265Y-90252D02*
X-89476D01*
G01X-110130Y-90387D02*
X-89611D01*
G01X-109996Y-90522D02*
X-89746D01*
G01X-109726Y-90657D02*
X-90015D01*
G01X-109591Y-90793D02*
X-90150D01*
G01X-109320Y-90928D02*
X-90420D01*
G01X-109050Y-91063D02*
X-90691D01*
G01X-108915Y-91198D02*
X-90826D01*
G01X-108646Y-91332D02*
X-91096D01*
G01X-108376Y-91467D02*
X-91365D01*
G01X-108106Y-91602D02*
X-91635D01*
G01X-107835Y-91737D02*
X-91770D01*
G01X-107565Y-91872D02*
X-92041D01*
G01X-107296Y-92007D02*
X-92446D01*
G01X-107026Y-92143D02*
X-92715D01*
G01X-106756Y-92278D02*
X-92985D01*
G01X-106350Y-92413D02*
X-93391D01*
G01X-105270Y-92817D02*
X-94470D01*
G01X-104865Y-92952D02*
X-94876D01*
G01X-104326Y-93087D02*
X-95415D01*
G01X-103785Y-93222D02*
X-95956D01*
G01X-103111Y-93357D02*
X-96630D01*
G01X-102165Y-93493D02*
X-97441D01*
G01X-100546Y-93628D02*
X-99061D01*
G01X-97035Y-83502D02*
X-83806D01*
G01X-97035Y-83637D02*
X-83806D01*
G01X-97170Y-83772D02*
X-83941D01*
G01X-97306Y-83907D02*
X-83941D01*
G01X-97441Y-84043D02*
X-84076D01*
G01X-97441Y-84178D02*
X-84076D01*
G01X-97576Y-84313D02*
X-84211D01*
G01X-97711Y-84448D02*
X-84346D01*
G01X-97846Y-84582D02*
X-84346D01*
G01X-97846Y-84717D02*
X-84480D01*
G01X-97980Y-84852D02*
X-84480D01*
G01X-98115Y-84987D02*
X-84615D01*
G01X-98250Y-85122D02*
X-84750D01*
G01X-98250Y-85257D02*
X-84750D01*
G01X-98385Y-85393D02*
X-84885D01*
G01X-96091Y-78372D02*
X-95011D01*
G01X-96091Y-78507D02*
X-95011D01*
G01X-95956Y-78643D02*
X-95146D01*
G01X-95820Y-78778D02*
X-95280D01*
G01X-95685Y-78913D02*
X-95415D01*
G01X-94470Y-81072D02*
X-82861D01*
G01X-94606Y-81207D02*
X-82861D01*
G01X-94606Y-81343D02*
X-82996D01*
G01X-94741Y-81478D02*
X-82996D01*
G01X-95550Y-81613D02*
X-82996D01*
G01X-95685Y-81748D02*
X-83130D01*
G01X-95820Y-81882D02*
X-83130D01*
G01X-95956Y-82017D02*
X-83130D01*
G01X-95956Y-82152D02*
X-83265D01*
G01X-96091Y-82287D02*
X-83265D01*
G01X-103785Y-74593D02*
X-99870D01*
G01X-103785Y-74728D02*
X-99870D01*
G01X-103785Y-74863D02*
X-99870D01*
G01X-103785Y-74998D02*
X-99870D01*
G01X-103785Y-75132D02*
X-99870D01*
G01X-103785Y-75267D02*
X-99870D01*
G01X-103785Y-75402D02*
X-99870D01*
G01X-97846Y-76482D02*
X-93526D01*
G01X-97711Y-76617D02*
X-93661D01*
G01X-97576Y-76752D02*
X-93796D01*
G01X-97441Y-76887D02*
X-93796D01*
G01X-97306Y-77022D02*
X-93930D01*
G01X-97170Y-77157D02*
X-94065D01*
G01X-97035Y-77293D02*
X-94200D01*
G01X-96900Y-77428D02*
X-94200D01*
G01X-96900Y-77563D02*
X-94335D01*
G01X-96765Y-77698D02*
X-94470D01*
G01X-96630Y-77832D02*
X-94606D01*
G01X-96496Y-77967D02*
X-94606D01*
G01X-96361Y-78102D02*
X-94741D01*
G01X-96226Y-78237D02*
X-94876D01*
G01X-96226Y-82422D02*
X-83400D01*
G01X-96361Y-82557D02*
X-83400D01*
G01X-96361Y-82693D02*
X-83400D01*
G01X-96496Y-82828D02*
X-83535D01*
G01X-96630Y-82963D02*
X-83535D01*
G01X-96630Y-83098D02*
X-83670D01*
G01X-96765Y-83232D02*
X-83670D01*
G01X-96900Y-83367D02*
X-83806D01*
G01X-93526Y-79722D02*
X-82456D01*
G01X-93526Y-79857D02*
X-82591D01*
G01X-93661Y-79993D02*
X-82591D01*
G01X-93796Y-80128D02*
X-82591D01*
G01X-93930Y-80263D02*
X-82591D01*
G01X-93930Y-80398D02*
X-82726D01*
G01X-94065Y-80532D02*
X-82726D01*
G01X-94200Y-80667D02*
X-82726D01*
G01X-94335Y-80802D02*
X-82726D01*
G01X-94335Y-80937D02*
X-82861D01*
G01X-110130Y-61363D02*
X-89611D01*
G01X-110265Y-61498D02*
X-89476D01*
G01X-105676Y-59067D02*
X-94065D01*
G01X-106080Y-59202D02*
X-93661D01*
G01X-106350Y-59337D02*
X-93391D01*
G01X-106756Y-59472D02*
X-92985D01*
G01X-107026Y-59607D02*
X-92715D01*
G01X-107296Y-59743D02*
X-92446D01*
G01X-107565Y-59878D02*
X-92041D01*
G01X-107835Y-60013D02*
X-91770D01*
G01X-108106Y-60148D02*
X-91635D01*
G01X-108376Y-60282D02*
X-91365D01*
G01X-108646Y-60417D02*
X-91096D01*
G01X-108915Y-60552D02*
X-90826D01*
G01X-109050Y-60687D02*
X-90556D01*
G01X-109320Y-60822D02*
X-90420D01*
G01X-109591Y-60957D02*
X-90150D01*
G01X-109726Y-61093D02*
X-90015D01*
G01X-109996Y-61228D02*
X-89746D01*
G01X-95820Y-67302D02*
X-84346D01*
G01X-95820Y-67437D02*
X-84211D01*
G01X-95820Y-67572D02*
X-84076D01*
G01X-95820Y-67707D02*
X-84076D01*
G01X-95820Y-67843D02*
X-83941D01*
G01X-95820Y-67978D02*
X-83941D01*
G01X-95820Y-68113D02*
X-83806D01*
G01X-101085Y-66493D02*
X-84750D01*
G01X-101085Y-66628D02*
X-84615D01*
G01X-101085Y-66763D02*
X-84615D01*
G01X-101085Y-66898D02*
X-84480D01*
G01X-101085Y-67032D02*
X-84480D01*
G01X-101085Y-67167D02*
X-84346D01*
G01X-96765Y-68248D02*
X-83806D01*
G01X-96765Y-68382D02*
X-83670D01*
G01X-96765Y-68517D02*
X-83670D01*
G01X-96765Y-68652D02*
X-83670D01*
G01X-96765Y-68787D02*
X-83535D01*
G01X-96765Y-68922D02*
X-83535D01*
G01X-96765Y-69057D02*
X-83400D01*
G01X-100546Y-58122D02*
X-99061D01*
G01X-102165Y-58257D02*
X-97441D01*
G01X-103111Y-58393D02*
X-96630D01*
G01X-103785Y-58528D02*
X-95956D01*
G01X-104326Y-58663D02*
X-95415D01*
G01X-104865Y-58798D02*
X-94876D01*
G01X-105270Y-58932D02*
X-94470D01*
G01X-78406Y-90252D02*
X-75841D01*
G01X-78406Y-90387D02*
X-75841D01*
G01X-78406Y-90522D02*
X-75841D01*
G01X-78406Y-90657D02*
X-75841D01*
G01X-78406Y-90793D02*
X-75841D01*
G01X-78406Y-90928D02*
X-78270D01*
G01X-87315Y-88228D02*
X-87180D01*
G01X-83806Y-73513D02*
X-82185D01*
G01X-83806Y-73648D02*
X-82185D01*
G01X-84885Y-73782D02*
X-82185D01*
G01X-84885Y-73917D02*
X-82185D01*
G01X-84885Y-74052D02*
X-82185D01*
G01X-84885Y-74187D02*
X-82185D01*
G01X-84885Y-74322D02*
X-82185D01*
G01X-84885Y-74457D02*
X-82185D01*
G01X-87991Y-74593D02*
X-82185D01*
G01X-87991Y-74728D02*
X-82185D01*
G01X-87991Y-74863D02*
X-82185D01*
G01X-87991Y-74998D02*
X-82050D01*
G01X-87991Y-75132D02*
X-82050D01*
G01X-87991Y-75267D02*
X-82050D01*
G01X-87991Y-75402D02*
X-82050D01*
G01X-89746Y-75537D02*
X-86641D01*
G01X-89611Y-75672D02*
X-86641D01*
G01X-89611Y-75807D02*
X-86641D01*
G01X-89611Y-75943D02*
X-86641D01*
G01X-89611Y-76078D02*
X-86641D01*
G01X-89611Y-76213D02*
X-86641D01*
G01X-89611Y-76348D02*
X-86641D01*
G01X-91770Y-77428D02*
X-82185D01*
G01X-91906Y-77563D02*
X-82185D01*
G01X-92041Y-77698D02*
X-82185D01*
G01X-92041Y-77832D02*
X-82185D01*
G01X-92176Y-77967D02*
X-82185D01*
G01X-92311Y-78102D02*
X-82185D01*
G01X-92446Y-78237D02*
X-82185D01*
G01X-92446Y-78372D02*
X-82320D01*
G01X-92580Y-78507D02*
X-82320D01*
G01X-92715Y-78643D02*
X-82320D01*
G01X-92715Y-78778D02*
X-82320D01*
G01X-92850Y-78913D02*
X-82320D01*
G01X-92985Y-79048D02*
X-82320D01*
G01X-93120Y-79182D02*
X-82456D01*
G01X-93120Y-79317D02*
X-82456D01*
G01X-93256Y-79452D02*
X-82456D01*
G01X-93391Y-79587D02*
X-82456D01*
G01X-77056Y-83502D02*
X-71385D01*
G01X-76920Y-83637D02*
X-71520D01*
G01X-78406Y-87013D02*
X-75841D01*
G01X-78406Y-87148D02*
X-75841D01*
G01X-78406Y-87282D02*
X-75841D01*
G01X-78406Y-87417D02*
X-75841D01*
G01X-78406Y-87552D02*
X-75841D01*
G01X-78406Y-87687D02*
X-77596D01*
G01X-78406Y-87822D02*
X-77596D01*
G01X-78406Y-87957D02*
X-77596D01*
G01X-78406Y-88093D02*
X-77596D01*
G01X-78406Y-88228D02*
X-77596D01*
G01X-78406Y-88363D02*
X-77596D01*
G01X-78406Y-88498D02*
X-77596D01*
G01X-78406Y-88632D02*
X-76111D01*
G01X-78406Y-88767D02*
X-76111D01*
G01X-78406Y-88902D02*
X-76111D01*
G01X-78406Y-89037D02*
X-76111D01*
G01X-78406Y-89172D02*
X-76111D01*
G01X-78406Y-89307D02*
X-77596D01*
G01X-78406Y-89443D02*
X-77596D01*
G01X-78406Y-89578D02*
X-77596D01*
G01X-78406Y-89713D02*
X-77596D01*
G01X-78406Y-89848D02*
X-77596D01*
G01X-78406Y-89982D02*
X-77596D01*
G01X-78406Y-90117D02*
X-77596D01*
G01X-78541Y-73513D02*
X-75976D01*
G01X-78541Y-73648D02*
X-75976D01*
G01X-78541Y-73782D02*
X-75976D01*
G01X-78541Y-73917D02*
X-75976D01*
G01X-78541Y-74052D02*
X-75976D01*
G01X-78541Y-74187D02*
X-75976D01*
G01X-78541Y-74322D02*
X-75976D01*
G01X-78541Y-74457D02*
X-75976D01*
G01X-78541Y-74593D02*
X-75976D01*
G01X-78541Y-74728D02*
X-75976D01*
G01X-78541Y-74863D02*
X-75976D01*
G01X-78541Y-74998D02*
X-75976D01*
G01X-78541Y-75132D02*
X-75976D01*
G01X-78541Y-75267D02*
X-75976D01*
G01X-78541Y-75402D02*
X-75976D01*
G01X-78541Y-75537D02*
X-75976D01*
G01X-78541Y-75672D02*
X-75976D01*
G01X-78541Y-75807D02*
X-75976D01*
G01X-78541Y-75943D02*
X-75976D01*
G01X-78541Y-76078D02*
X-75976D01*
G01X-78541Y-76213D02*
X-75976D01*
G01X-78541Y-76348D02*
X-75976D01*
G01X-78541Y-76482D02*
X-75976D01*
G01X-78541Y-76617D02*
X-75976D01*
G01X-78541Y-76752D02*
X-75976D01*
G01X-78541Y-76887D02*
X-75976D01*
G01X-78541Y-77022D02*
X-75976D01*
G01X-78541Y-77157D02*
X-75976D01*
G01X-78541Y-77293D02*
X-75976D01*
G01X-78541Y-77428D02*
X-75976D01*
G01X-78541Y-77563D02*
X-75976D01*
G01X-78541Y-77698D02*
X-75976D01*
G01X-78541Y-77832D02*
X-75976D01*
G01X-78541Y-77967D02*
X-75976D01*
G01X-78541Y-78102D02*
X-75976D01*
G01X-78541Y-78237D02*
X-75976D01*
G01X-78541Y-78372D02*
X-75976D01*
G01X-78541Y-78507D02*
X-75976D01*
G01X-78541Y-78643D02*
X-75976D01*
G01X-78541Y-78778D02*
X-75976D01*
G01X-78541Y-78913D02*
X-75976D01*
G01X-78541Y-79048D02*
X-75976D01*
G01X-78541Y-79182D02*
X-75976D01*
G01X-78541Y-79317D02*
X-75976D01*
G01X-78541Y-79452D02*
X-75976D01*
G01X-78541Y-79587D02*
X-75976D01*
G01X-78541Y-79722D02*
X-75976D01*
G01X-78541Y-79857D02*
X-75976D01*
G01X-78541Y-79993D02*
X-75976D01*
G01X-78541Y-80128D02*
X-75976D01*
G01X-78541Y-80263D02*
X-75976D01*
G01X-78541Y-80398D02*
X-75976D01*
G01X-78541Y-80532D02*
X-75976D01*
G01X-78541Y-80667D02*
X-75841D01*
G01X-78541Y-80802D02*
X-75841D01*
G01X-78541Y-80937D02*
X-75841D01*
G01X-78541Y-81072D02*
X-75706D01*
G01X-78541Y-81207D02*
X-75570D01*
G01X-78406Y-81343D02*
X-75435D01*
G01X-78406Y-81478D02*
X-75300D01*
G01X-78406Y-81613D02*
X-75165D01*
G01X-78406Y-81748D02*
X-74761D01*
G01X-78270Y-81882D02*
X-70170D01*
G01X-78270Y-82017D02*
X-70170D01*
G01X-78135Y-82152D02*
X-70306D01*
G01X-78135Y-82287D02*
X-70306D01*
G01X-78000Y-82422D02*
X-70441D01*
G01X-77865Y-82557D02*
X-70441D01*
G01X-77865Y-82693D02*
X-70576D01*
G01X-77730Y-82828D02*
X-70711D01*
G01X-77596Y-82963D02*
X-70846D01*
G01X-77461Y-83098D02*
X-70846D01*
G01X-77326Y-83232D02*
X-70980D01*
G01X-77191Y-83367D02*
X-71115D01*
G01X-84480Y-72432D02*
X-82456D01*
G01X-84480Y-72567D02*
X-82456D01*
G01X-84480Y-72702D02*
X-82320D01*
G01X-83806Y-72837D02*
X-82320D01*
G01X-83806Y-72972D02*
X-82320D01*
G01X-83806Y-73107D02*
X-82320D01*
G01X-83806Y-73243D02*
X-82320D01*
G01X-83806Y-73378D02*
X-82320D01*
G01X-85561Y-69193D02*
X-83400D01*
G01X-85561Y-69328D02*
X-83400D01*
G01X-85561Y-69463D02*
X-83265D01*
G01X-85561Y-69598D02*
X-83265D01*
G01X-85561Y-69732D02*
X-83130D01*
G01X-85561Y-69867D02*
X-83130D01*
G01X-85426Y-70002D02*
X-83130D01*
G01X-84480Y-71893D02*
X-82591D01*
G01X-84480Y-72028D02*
X-82456D01*
G01X-84480Y-72163D02*
X-82456D01*
G01X-84480Y-72298D02*
X-82456D01*
G01X-78541Y-72432D02*
X-75976D01*
G01X-78541Y-72567D02*
X-75976D01*
G01X-78541Y-72702D02*
X-75976D01*
G01X-78541Y-72837D02*
X-75976D01*
G01X-78541Y-72972D02*
X-75976D01*
G01X-78541Y-73107D02*
X-75976D01*
G01X-78541Y-73243D02*
X-75976D01*
G01X-78541Y-73378D02*
X-75976D01*
G01X-76920Y-68113D02*
X-71520D01*
G01X-77056Y-68248D02*
X-71250D01*
G01X-77191Y-68382D02*
X-71115D01*
G01X-77326Y-68517D02*
X-70980D01*
G01X-77461Y-68652D02*
X-70846D01*
G01X-77596Y-68787D02*
X-70711D01*
G01X-77730Y-68922D02*
X-70711D01*
G01X-77865Y-69057D02*
X-70576D01*
G01X-77865Y-69193D02*
X-70441D01*
G01X-78000Y-69328D02*
X-70441D01*
G01X-78135Y-69463D02*
X-70306D01*
G01X-78135Y-69598D02*
X-70170D01*
G01X-78270Y-69732D02*
X-70170D01*
G01X-78270Y-69867D02*
X-70170D01*
G01X-78406Y-70002D02*
X-74896D01*
G01X-78406Y-70137D02*
X-75165D01*
G01X-78406Y-70272D02*
X-75300D01*
G01X-78406Y-70407D02*
X-75570D01*
G01X-78541Y-70543D02*
X-75570D01*
G01X-78541Y-70678D02*
X-75706D01*
G01X-78541Y-70813D02*
X-75841D01*
G01X-78541Y-70948D02*
X-75841D01*
G01X-78541Y-71082D02*
X-75841D01*
G01X-78541Y-71217D02*
X-75976D01*
G01X-78541Y-71352D02*
X-75976D01*
G01X-78541Y-71487D02*
X-75976D01*
G01X-78541Y-71622D02*
X-75976D01*
G01X-78541Y-71757D02*
X-75976D01*
G01X-78541Y-71893D02*
X-75976D01*
G01X-78541Y-72028D02*
X-75976D01*
G01X-78541Y-72163D02*
X-75976D01*
G01X-78541Y-72298D02*
X-75976D01*
G01X-74761Y-90252D02*
X-74085D01*
G01X-74761Y-90387D02*
X-74085D01*
G01X-74761Y-90522D02*
X-74085D01*
G01X-74761Y-90657D02*
X-74085D01*
G01X-74761Y-90793D02*
X-74085D01*
G01X-62611Y-90252D02*
X-59911D01*
G01X-62611Y-90387D02*
X-59911D01*
G01X-62611Y-90522D02*
X-60046D01*
G01X-62611Y-90657D02*
X-60180D01*
G01X-62611Y-90793D02*
X-60450D01*
G01X-62611Y-90928D02*
X-62476D01*
G01X-72061Y-90252D02*
X-71250D01*
G01X-70035D02*
X-67335D01*
G01X-66256D02*
X-63556D01*
G01X-72061Y-90387D02*
X-71250D01*
G01X-70035D02*
X-67335D01*
G01X-72061Y-90522D02*
X-71250D01*
G01X-70035D02*
X-67470D01*
G01X-72061Y-90657D02*
X-71250D01*
G01X-70035D02*
X-67606D01*
G01X-72061Y-90793D02*
X-71250D01*
G01X-70035D02*
X-67741D01*
G01X-71385Y-90928D02*
X-71250D01*
G01X-66256Y-90387D02*
X-63556D01*
G01X-66256Y-90522D02*
X-63556D01*
G01X-66256Y-90657D02*
X-63556D01*
G01X-66256Y-90793D02*
X-63556D01*
G01X-75570Y-84313D02*
X-72870D01*
G01X-74626Y-84448D02*
X-73815D01*
G01X-74896Y-87013D02*
X-74085D01*
G01X-74761Y-87148D02*
X-73950D01*
G01X-74761Y-87282D02*
X-73950D01*
G01X-74761Y-87417D02*
X-73815D01*
G01X-74761Y-87552D02*
X-73815D01*
G01X-72330D02*
X-71250D01*
G01X-74761Y-87687D02*
X-73680D01*
G01X-72330D02*
X-71250D01*
G01X-74761Y-87822D02*
X-73680D01*
G01X-72465D02*
X-71250D01*
G01X-74761Y-87957D02*
X-73546D01*
G01X-72465D02*
X-71250D01*
G01X-74761Y-88093D02*
X-73546D01*
G01X-72600D02*
X-71250D01*
G01X-74761Y-88228D02*
X-73411D01*
G01X-72600D02*
X-71250D01*
G01X-74761Y-88363D02*
X-73411D01*
G01X-72735D02*
X-71250D01*
G01X-74761Y-88498D02*
X-73276D01*
G01X-72735D02*
X-71250D01*
G01X-74761Y-88632D02*
X-73276D01*
G01X-72870D02*
X-71250D01*
G01X-74761Y-88767D02*
X-74085D01*
G01X-73950D02*
X-73141D01*
G01X-72870D02*
X-72061D01*
G01X-74761Y-88902D02*
X-74085D01*
G01X-73950D02*
X-73141D01*
G01X-72870D02*
X-72196D01*
G01X-74761Y-89037D02*
X-74085D01*
G01X-73815D02*
X-72196D01*
G01X-74761Y-89172D02*
X-74085D01*
G01X-73815D02*
X-72330D01*
G01X-74761Y-89307D02*
X-74085D01*
G01X-73680D02*
X-72330D01*
G01X-74761Y-89443D02*
X-74085D01*
G01X-73680D02*
X-72465D01*
G01X-74761Y-89578D02*
X-74085D01*
G01X-73546D02*
X-72465D01*
G01X-74761Y-89713D02*
X-74085D01*
G01X-73546D02*
X-72600D01*
G01X-74761Y-89848D02*
X-74085D01*
G01X-73411D02*
X-72600D01*
G01X-74761Y-89982D02*
X-74085D01*
G01X-73411D02*
X-72735D01*
G01X-74761Y-90117D02*
X-74085D01*
G01X-73276D02*
X-73141D01*
G01X-76650Y-83772D02*
X-71656D01*
G01X-76515Y-83907D02*
X-71926D01*
G01X-76246Y-84043D02*
X-72196D01*
G01X-75976Y-84178D02*
X-72465D01*
G01X-72330Y-78507D02*
X-69900D01*
G01X-72465Y-78643D02*
X-69765D01*
G01X-72465Y-78778D02*
X-69765D01*
G01X-72465Y-78913D02*
X-69765D01*
G01X-72465Y-79048D02*
X-69765D01*
G01X-72465Y-79182D02*
X-69765D01*
G01X-72465Y-79317D02*
X-69765D01*
G01X-72465Y-79452D02*
X-69765D01*
G01X-72465Y-79587D02*
X-69765D01*
G01X-72465Y-79722D02*
X-69765D01*
G01X-72465Y-79857D02*
X-69765D01*
G01X-72465Y-79993D02*
X-69765D01*
G01X-72465Y-80128D02*
X-69765D01*
G01X-72465Y-80263D02*
X-69765D01*
G01X-72465Y-80398D02*
X-69765D01*
G01X-72465Y-80532D02*
X-69765D01*
G01X-72465Y-80667D02*
X-69765D01*
G01X-72600Y-80802D02*
X-69900D01*
G01X-72600Y-80937D02*
X-69900D01*
G01X-72735Y-81072D02*
X-69900D01*
G01X-72735Y-81207D02*
X-69900D01*
G01X-72870Y-81343D02*
X-69900D01*
G01X-73006Y-81478D02*
X-70035D01*
G01X-73276Y-81613D02*
X-70035D01*
G01X-73546Y-81748D02*
X-70035D01*
G01X-65446Y-83502D02*
X-62880D01*
G01X-65446Y-83637D02*
X-62880D01*
G01X-65446Y-83772D02*
X-62880D01*
G01X-65446Y-83907D02*
X-62880D01*
G01X-65446Y-84043D02*
X-62880D01*
G01X-65446Y-84178D02*
X-62880D01*
G01X-62611Y-87013D02*
X-60585D01*
G01X-62611Y-87148D02*
X-60315D01*
G01X-62611Y-87282D02*
X-60180D01*
G01X-62611Y-87417D02*
X-60046D01*
G01X-62611Y-87552D02*
X-59911D01*
G01X-62611Y-87687D02*
X-61800D01*
G01X-62611Y-87822D02*
X-61800D01*
G01X-62611Y-87957D02*
X-61800D01*
G01X-62611Y-88093D02*
X-61800D01*
G01X-62611Y-88228D02*
X-61800D01*
G01X-62611Y-88363D02*
X-61800D01*
G01X-62611Y-88498D02*
X-61800D01*
G01X-62611Y-88632D02*
X-61800D01*
G01X-62611Y-88767D02*
X-61800D01*
G01X-62611Y-88902D02*
X-61800D01*
G01X-62611Y-89037D02*
X-61800D01*
G01X-62611Y-89172D02*
X-61800D01*
G01X-62611Y-89307D02*
X-61800D01*
G01X-62611Y-89443D02*
X-61800D01*
G01X-62611Y-89578D02*
X-61800D01*
G01X-62611Y-89713D02*
X-61800D01*
G01X-62611Y-89848D02*
X-61800D01*
G01X-62611Y-89982D02*
X-61800D01*
G01X-62611Y-90117D02*
X-61800D01*
G01X-72061Y-87013D02*
X-71250D01*
G01X-70035D02*
X-68011D01*
G01X-72061Y-87148D02*
X-71250D01*
G01X-70035D02*
X-67741D01*
G01X-72196Y-87282D02*
X-71250D01*
G01X-70035D02*
X-67606D01*
G01X-72196Y-87417D02*
X-71250D01*
G01X-70035D02*
X-67470D01*
G01X-70035Y-87552D02*
X-67335D01*
G01X-70035Y-87687D02*
X-69361D01*
G01X-70035Y-87822D02*
X-69361D01*
G01X-70035Y-87957D02*
X-69361D01*
G01X-70035Y-88093D02*
X-69361D01*
G01X-70035Y-88228D02*
X-69361D01*
G01X-70035Y-88363D02*
X-69361D01*
G01X-70035Y-88498D02*
X-69361D01*
G01X-70035Y-88632D02*
X-67470D01*
G01X-71926Y-88767D02*
X-71250D01*
G01X-70035D02*
X-67606D01*
G01X-72061Y-88902D02*
X-71250D01*
G01X-70035D02*
X-67741D01*
G01X-72061Y-89037D02*
X-71250D01*
G01X-70035D02*
X-67470D01*
G01X-72061Y-89172D02*
X-71250D01*
G01X-70035D02*
X-67335D01*
G01X-72061Y-89307D02*
X-71250D01*
G01X-70035D02*
X-69361D01*
G01X-72061Y-89443D02*
X-71250D01*
G01X-70035D02*
X-69361D01*
G01X-72061Y-89578D02*
X-71250D01*
G01X-70035D02*
X-69361D01*
G01X-72061Y-89713D02*
X-71250D01*
G01X-70035D02*
X-69361D01*
G01X-72061Y-89848D02*
X-71250D01*
G01X-70035D02*
X-69361D01*
G01X-72061Y-89982D02*
X-71250D01*
G01X-70035D02*
X-69361D01*
G01X-72061Y-90117D02*
X-71250D01*
G01X-70035D02*
X-69361D01*
G01X-66256Y-87013D02*
X-63556D01*
G01X-66256Y-87148D02*
X-63556D01*
G01X-66256Y-87282D02*
X-63556D01*
G01X-66256Y-87417D02*
X-63556D01*
G01X-66256Y-87552D02*
X-63556D01*
G01X-68280Y-87687D02*
X-67335D01*
G01X-66256D02*
X-65446D01*
G01X-68146Y-87822D02*
X-67200D01*
G01X-66256D02*
X-65446D01*
G01X-68011Y-87957D02*
X-67200D01*
G01X-66256D02*
X-65446D01*
G01X-68011Y-88093D02*
X-67200D01*
G01X-66256D02*
X-65446D01*
G01X-68011Y-88228D02*
X-67200D01*
G01X-66256D02*
X-65446D01*
G01X-68146Y-88363D02*
X-67335D01*
G01X-66256D02*
X-65446D01*
G01X-68280Y-88498D02*
X-67335D01*
G01X-66256D02*
X-65446D01*
G01X-66256Y-88632D02*
X-63826D01*
G01X-66256Y-88767D02*
X-63826D01*
G01X-66256Y-88902D02*
X-63826D01*
G01X-66256Y-89037D02*
X-63826D01*
G01X-66256Y-89172D02*
X-63826D01*
G01X-68280Y-89307D02*
X-67335D01*
G01X-66256D02*
X-65446D01*
G01X-68011Y-89443D02*
X-67200D01*
G01X-66256D02*
X-65446D01*
G01X-68011Y-89578D02*
X-67200D01*
G01X-66256D02*
X-65446D01*
G01X-68011Y-89713D02*
X-67200D01*
G01X-66256D02*
X-65446D01*
G01X-68011Y-89848D02*
X-67200D01*
G01X-66256D02*
X-65446D01*
G01X-68011Y-89982D02*
X-67200D01*
G01X-66256D02*
X-65446D01*
G01X-68146Y-90117D02*
X-67200D01*
G01X-66256D02*
X-65446D01*
G01X-65580Y-76348D02*
X-62611D01*
G01X-65580Y-76482D02*
X-62746D01*
G01X-65580Y-76617D02*
X-62746D01*
G01X-65446Y-76752D02*
X-62746D01*
G01X-65446Y-76887D02*
X-62880D01*
G01X-65446Y-77022D02*
X-62880D01*
G01X-65446Y-77157D02*
X-62880D01*
G01X-65446Y-77293D02*
X-62880D01*
G01X-65446Y-77428D02*
X-62880D01*
G01X-65446Y-77563D02*
X-62880D01*
G01X-65446Y-77698D02*
X-62880D01*
G01X-65446Y-77832D02*
X-62880D01*
G01X-65446Y-77967D02*
X-62880D01*
G01X-65446Y-78102D02*
X-62880D01*
G01X-65446Y-78237D02*
X-62880D01*
G01X-65446Y-78372D02*
X-62880D01*
G01X-65446Y-78507D02*
X-62880D01*
G01X-65446Y-78643D02*
X-62880D01*
G01X-65446Y-78778D02*
X-62880D01*
G01X-65446Y-78913D02*
X-62880D01*
G01X-65446Y-79048D02*
X-62880D01*
G01X-65446Y-79182D02*
X-62880D01*
G01X-65446Y-79317D02*
X-62880D01*
G01X-65446Y-79452D02*
X-62880D01*
G01X-65446Y-79587D02*
X-62880D01*
G01X-65446Y-79722D02*
X-62880D01*
G01X-65446Y-79857D02*
X-62880D01*
G01X-65446Y-79993D02*
X-62880D01*
G01X-65446Y-80128D02*
X-62880D01*
G01X-65446Y-80263D02*
X-62880D01*
G01X-65446Y-80398D02*
X-62880D01*
G01X-65446Y-80532D02*
X-62880D01*
G01X-65446Y-80667D02*
X-62880D01*
G01X-65446Y-80802D02*
X-62880D01*
G01X-65446Y-80937D02*
X-62880D01*
G01X-65446Y-81072D02*
X-62880D01*
G01X-65446Y-81207D02*
X-62880D01*
G01X-65446Y-81343D02*
X-62880D01*
G01X-65446Y-81478D02*
X-62880D01*
G01X-65446Y-81613D02*
X-62880D01*
G01X-65446Y-81748D02*
X-62880D01*
G01X-65446Y-81882D02*
X-62880D01*
G01X-65446Y-82017D02*
X-62880D01*
G01X-65446Y-82152D02*
X-62880D01*
G01X-65446Y-82287D02*
X-62880D01*
G01X-65446Y-82422D02*
X-62880D01*
G01X-65446Y-82557D02*
X-62880D01*
G01X-65446Y-82693D02*
X-62880D01*
G01X-65446Y-82828D02*
X-62880D01*
G01X-65446Y-82963D02*
X-62880D01*
G01X-65446Y-83098D02*
X-62880D01*
G01X-65446Y-83232D02*
X-62880D01*
G01X-65446Y-83367D02*
X-62880D01*
G01X-66526Y-73513D02*
X-61665D01*
G01X-66526Y-73648D02*
X-61800D01*
G01X-66391Y-73782D02*
X-61800D01*
G01X-66391Y-73917D02*
X-61800D01*
G01X-66391Y-74052D02*
X-61935D01*
G01X-66256Y-74187D02*
X-61935D01*
G01X-66256Y-74322D02*
X-61935D01*
G01X-66256Y-74457D02*
X-62070D01*
G01X-66120Y-74593D02*
X-62070D01*
G01X-66120Y-74728D02*
X-62070D01*
G01X-66120Y-74863D02*
X-62206D01*
G01X-65985Y-74998D02*
X-62206D01*
G01X-65985Y-75132D02*
X-62206D01*
G01X-65985Y-75267D02*
X-62341D01*
G01X-65850Y-75402D02*
X-62341D01*
G01X-65850Y-75537D02*
X-62341D01*
G01X-65850Y-75672D02*
X-62476D01*
G01X-65850Y-75807D02*
X-62476D01*
G01X-65715Y-75943D02*
X-62476D01*
G01X-65715Y-76078D02*
X-62611D01*
G01X-65715Y-76213D02*
X-62611D01*
G01X-60991Y-87687D02*
X-59911D01*
G01X-60720Y-87822D02*
X-59776D01*
G01X-60585Y-87957D02*
X-59776D01*
G01X-60585Y-88093D02*
X-59776D01*
G01X-60585Y-88228D02*
X-59776D01*
G01X-60450Y-88363D02*
X-59776D01*
G01X-60450Y-88498D02*
X-59641D01*
G01X-60450Y-88632D02*
X-59641D01*
G01X-60450Y-88767D02*
X-59641D01*
G01X-60450Y-88902D02*
X-59776D01*
G01X-60450Y-89037D02*
X-59641D01*
G01X-60450Y-89172D02*
X-59641D01*
G01X-60450Y-89307D02*
X-59641D01*
G01X-60450Y-89443D02*
X-59776D01*
G01X-60450Y-89578D02*
X-59776D01*
G01X-60585Y-89713D02*
X-59776D01*
G01X-60585Y-89848D02*
X-59776D01*
G01X-60720Y-89982D02*
X-59776D01*
G01X-60856Y-90117D02*
X-59776D01*
G01X-72465Y-72432D02*
X-69765D01*
G01X-72465Y-72567D02*
X-69765D01*
G01X-72465Y-72702D02*
X-69765D01*
G01X-72465Y-72837D02*
X-69765D01*
G01X-72465Y-72972D02*
X-69765D01*
G01X-72465Y-73107D02*
X-69765D01*
G01X-72330Y-73243D02*
X-69900D01*
G01X-74626Y-67302D02*
X-73680D01*
G01X-75570Y-67437D02*
X-72870D01*
G01X-73546Y-70002D02*
X-70035D01*
G01X-73276Y-70137D02*
X-70035D01*
G01X-73006Y-70272D02*
X-69900D01*
G01X-72870Y-70407D02*
X-69900D01*
G01X-72735Y-70543D02*
X-69900D01*
G01X-72735Y-70678D02*
X-69900D01*
G01X-72600Y-70813D02*
X-69900D01*
G01X-72600Y-70948D02*
X-69765D01*
G01X-72465Y-71082D02*
X-69765D01*
G01X-72465Y-71217D02*
X-69765D01*
G01X-72465Y-71352D02*
X-69765D01*
G01X-72465Y-71487D02*
X-69765D01*
G01X-72465Y-71622D02*
X-69765D01*
G01X-72465Y-71757D02*
X-69765D01*
G01X-72465Y-71893D02*
X-69765D01*
G01X-72465Y-72028D02*
X-69765D01*
G01X-72465Y-72163D02*
X-69765D01*
G01X-72465Y-72298D02*
X-69765D01*
G01X-75976Y-67572D02*
X-72465D01*
G01X-76246Y-67707D02*
X-72061D01*
G01X-76515Y-67843D02*
X-71926D01*
G01X-76650Y-67978D02*
X-71656D01*
G01X-66930Y-72432D02*
X-61396D01*
G01X-66796Y-72567D02*
X-61396D01*
G01X-66796Y-72702D02*
X-61396D01*
G01X-66796Y-72837D02*
X-61530D01*
G01X-66661Y-72972D02*
X-61530D01*
G01X-66661Y-73107D02*
X-61530D01*
G01X-66661Y-73243D02*
X-61665D01*
G01X-66526Y-73378D02*
X-61665D01*
G01X-62476Y-67572D02*
X-59641D01*
G01X-62476Y-67707D02*
X-59641D01*
G01X-62611Y-67843D02*
X-59776D01*
G01X-62611Y-67978D02*
X-59776D01*
G01X-62611Y-68113D02*
X-59776D01*
G01X-62746Y-68248D02*
X-59911D01*
G01X-62746Y-68382D02*
X-59911D01*
G01X-62746Y-68517D02*
X-59911D01*
G01X-62880Y-68652D02*
X-60046D01*
G01X-62880Y-68787D02*
X-60046D01*
G01X-62880Y-68922D02*
X-60180D01*
G01X-63015Y-69057D02*
X-60180D01*
G01X-63015Y-69193D02*
X-60180D01*
G01X-63015Y-69328D02*
X-60315D01*
G01X-63150Y-69463D02*
X-60315D01*
G01X-63150Y-69598D02*
X-60315D01*
G01X-63150Y-69732D02*
X-60450D01*
G01X-63285Y-69867D02*
X-60450D01*
G01X-63285Y-70002D02*
X-60450D01*
G01X-63285Y-70137D02*
X-60585D01*
G01X-63420Y-70272D02*
X-60585D01*
G01X-63420Y-70407D02*
X-60585D01*
G01X-63420Y-70543D02*
X-60720D01*
G01X-63556Y-70678D02*
X-60720D01*
G01X-63556Y-70813D02*
X-60856D01*
G01X-63556Y-70948D02*
X-60856D01*
G01X-63691Y-71082D02*
X-60856D01*
G01X-63691Y-71217D02*
X-60991D01*
G01X-63691Y-71352D02*
X-60991D01*
G01X-63691Y-71487D02*
X-60991D01*
G01X-63826Y-71622D02*
X-61126D01*
G01X-63826Y-71757D02*
X-61126D01*
G01X-63826Y-71893D02*
X-61261D01*
G01X-63961Y-72028D02*
X-61261D01*
G01X-63961Y-72163D02*
X-61261D01*
G01X-63961Y-72298D02*
X-61261D01*
G01X-68550Y-67572D02*
X-65850D01*
G01X-68550Y-67707D02*
X-65715D01*
G01X-68550Y-67843D02*
X-65715D01*
G01X-68550Y-67978D02*
X-65715D01*
G01X-68415Y-68113D02*
X-65580D01*
G01X-68415Y-68248D02*
X-65580D01*
G01X-68415Y-68382D02*
X-65580D01*
G01X-68280Y-68517D02*
X-65446D01*
G01X-68280Y-68652D02*
X-65446D01*
G01X-68280Y-68787D02*
X-65446D01*
G01X-68146Y-68922D02*
X-65446D01*
G01X-68146Y-69057D02*
X-65311D01*
G01X-68011Y-69193D02*
X-65311D01*
G01X-68011Y-69328D02*
X-65311D01*
G01X-68011Y-69463D02*
X-65176D01*
G01X-67876Y-69598D02*
X-65176D01*
G01X-67876Y-69732D02*
X-65176D01*
G01X-67876Y-69867D02*
X-65041D01*
G01X-67741Y-70002D02*
X-65041D01*
G01X-67741Y-70137D02*
X-65041D01*
G01X-67741Y-70272D02*
X-64906D01*
G01X-67606Y-70407D02*
X-64906D01*
G01X-67606Y-70543D02*
X-64906D01*
G01X-67470Y-70678D02*
X-64770D01*
G01X-67470Y-70813D02*
X-64770D01*
G01X-67470Y-70948D02*
X-64770D01*
G01X-67335Y-71082D02*
X-64635D01*
G01X-67335Y-71217D02*
X-64635D01*
G01X-67335Y-71352D02*
X-64635D01*
G01X-67200Y-71487D02*
X-64500D01*
G01X-67200Y-71622D02*
X-64500D01*
G01X-67200Y-71757D02*
X-64500D01*
G01X-67065Y-71893D02*
X-64365D01*
G01X-67065Y-72028D02*
X-64365D01*
G01X-66930Y-72163D02*
X-64365D01*
G01X-66930Y-72298D02*
X-64230D01*
G01X-51135Y-90252D02*
X-48435D01*
G01X-54780D02*
X-52215D01*
G01X-51135Y-90387D02*
X-48570D01*
G01X-51135Y-90522D02*
X-48706D01*
G01X-51135Y-90657D02*
X-48841D01*
G01X-51135Y-90793D02*
X-49111D01*
G01X-54780Y-90387D02*
X-52215D01*
G01X-54780Y-90522D02*
X-52215D01*
G01X-54780Y-90657D02*
X-52215D01*
G01X-54780Y-90793D02*
X-52215D01*
G01X-54780Y-90928D02*
X-54646D01*
G01X-58696Y-90252D02*
X-55996D01*
G01X-58696Y-90387D02*
X-56130D01*
G01X-58696Y-90522D02*
X-56130D01*
G01X-58696Y-90657D02*
X-56400D01*
G01X-58696Y-90793D02*
X-56535D01*
G01X-58696Y-90928D02*
X-58561D01*
G01X-43846Y-90252D02*
X-43035D01*
G01X-43846Y-90387D02*
X-43035D01*
G01X-43846Y-90522D02*
X-43035D01*
G01X-43846Y-90657D02*
X-43035D01*
G01X-43846Y-90793D02*
X-43035D01*
G01X-45061Y-90928D02*
X-44926D01*
G01X-43170D02*
X-43035D01*
G01X-45735Y-90252D02*
X-44926D01*
G01X-45735Y-90387D02*
X-44926D01*
G01X-45735Y-90522D02*
X-44926D01*
G01X-45735Y-90657D02*
X-44926D01*
G01X-45735Y-90793D02*
X-44926D01*
G01X-51270Y-87013D02*
X-49246D01*
G01X-51135Y-87148D02*
X-48976D01*
G01X-51135Y-87282D02*
X-48706D01*
G01X-51135Y-87417D02*
X-48570D01*
G01X-51135Y-87552D02*
X-48570D01*
G01X-51135Y-87687D02*
X-50461D01*
G01X-51135Y-87822D02*
X-50461D01*
G01X-51135Y-87957D02*
X-50461D01*
G01X-51135Y-88093D02*
X-50461D01*
G01X-51135Y-88228D02*
X-50461D01*
G01X-51135Y-88363D02*
X-50461D01*
G01X-51135Y-88498D02*
X-50461D01*
G01X-51135Y-88632D02*
X-50461D01*
G01X-51135Y-88767D02*
X-50461D01*
G01X-51135Y-88902D02*
X-50461D01*
G01X-51135Y-89037D02*
X-50461D01*
G01X-51135Y-89172D02*
X-50461D01*
G01X-51135Y-89307D02*
X-50461D01*
G01X-51135Y-89443D02*
X-50461D01*
G01X-51135Y-89578D02*
X-50461D01*
G01X-51135Y-89713D02*
X-50461D01*
G01X-51135Y-89848D02*
X-50461D01*
G01X-51135Y-89982D02*
X-50461D01*
G01X-51135Y-90117D02*
X-50461D01*
G01X-54780Y-87013D02*
X-52215D01*
G01X-54780Y-87148D02*
X-52215D01*
G01X-54780Y-87282D02*
X-52215D01*
G01X-54780Y-87417D02*
X-52215D01*
G01X-54780Y-87552D02*
X-52215D01*
G01X-54780Y-87687D02*
X-53970D01*
G01X-54780Y-87822D02*
X-53970D01*
G01X-54780Y-87957D02*
X-53970D01*
G01X-54780Y-88093D02*
X-53970D01*
G01X-54780Y-88228D02*
X-53970D01*
G01X-54780Y-88363D02*
X-53970D01*
G01X-54780Y-88498D02*
X-53970D01*
G01X-54780Y-88632D02*
X-52485D01*
G01X-54780Y-88767D02*
X-52485D01*
G01X-54780Y-88902D02*
X-52485D01*
G01X-54780Y-89037D02*
X-52485D01*
G01X-54780Y-89172D02*
X-52485D01*
G01X-54780Y-89307D02*
X-53970D01*
G01X-54780Y-89443D02*
X-53970D01*
G01X-54780Y-89578D02*
X-53970D01*
G01X-54780Y-89713D02*
X-53970D01*
G01X-54780Y-89848D02*
X-53970D01*
G01X-54780Y-89982D02*
X-53970D01*
G01X-54780Y-90117D02*
X-53970D01*
G01X-58020Y-83502D02*
X-55320D01*
G01X-58020Y-83637D02*
X-55320D01*
G01X-58020Y-83772D02*
X-55320D01*
G01X-58020Y-83907D02*
X-55320D01*
G01X-58020Y-84043D02*
X-55320D01*
G01X-58020Y-84178D02*
X-55320D01*
G01X-58696Y-87013D02*
X-56670D01*
G01X-58696Y-87148D02*
X-56400D01*
G01X-58696Y-87282D02*
X-56265D01*
G01X-58696Y-87417D02*
X-56130D01*
G01X-58696Y-87552D02*
X-55996D01*
G01X-58696Y-87687D02*
X-57885D01*
G01X-57076D02*
X-55996D01*
G01X-58696Y-87822D02*
X-57885D01*
G01X-56806D02*
X-55861D01*
G01X-58696Y-87957D02*
X-57885D01*
G01X-56670D02*
X-55861D01*
G01X-58696Y-88093D02*
X-57885D01*
G01X-56670D02*
X-55861D01*
G01X-58696Y-88228D02*
X-57885D01*
G01X-56670D02*
X-55861D01*
G01X-58696Y-88363D02*
X-57885D01*
G01X-56535D02*
X-55861D01*
G01X-58696Y-88498D02*
X-57885D01*
G01X-56535D02*
X-55861D01*
G01X-58696Y-88632D02*
X-57885D01*
G01X-56535D02*
X-55861D01*
G01X-58696Y-88767D02*
X-57885D01*
G01X-56535D02*
X-55861D01*
G01X-58696Y-88902D02*
X-57885D01*
G01X-56535D02*
X-55861D01*
G01X-58696Y-89037D02*
X-57885D01*
G01X-56535D02*
X-55861D01*
G01X-58696Y-89172D02*
X-57885D01*
G01X-56535D02*
X-55861D01*
G01X-58696Y-89307D02*
X-57885D01*
G01X-56535D02*
X-55861D01*
G01X-58696Y-89443D02*
X-57885D01*
G01X-56535D02*
X-55861D01*
G01X-58696Y-89578D02*
X-57885D01*
G01X-56670D02*
X-55861D01*
G01X-58696Y-89713D02*
X-57885D01*
G01X-56670D02*
X-55861D01*
G01X-58696Y-89848D02*
X-57885D01*
G01X-56670D02*
X-55861D01*
G01X-58696Y-89982D02*
X-57885D01*
G01X-56806D02*
X-55861D01*
G01X-58696Y-90117D02*
X-57885D01*
G01X-56941D02*
X-55861D01*
G01X-51811Y-73513D02*
X-49246D01*
G01X-51811Y-73648D02*
X-49246D01*
G01X-51811Y-73782D02*
X-49246D01*
G01X-51811Y-73917D02*
X-49246D01*
G01X-51811Y-74052D02*
X-49246D01*
G01X-51946Y-74187D02*
X-49246D01*
G01X-51946Y-74322D02*
X-49246D01*
G01X-51946Y-74457D02*
X-49246D01*
G01X-52080Y-74593D02*
X-49246D01*
G01X-52080Y-74728D02*
X-49246D01*
G01X-52215Y-74863D02*
X-49246D01*
G01X-52350Y-74998D02*
X-49380D01*
G01X-52485Y-75132D02*
X-49380D01*
G01X-52756Y-75267D02*
X-49380D01*
G01X-58020Y-73513D02*
X-55320D01*
G01X-58020Y-73648D02*
X-55320D01*
G01X-58020Y-73782D02*
X-55320D01*
G01X-58020Y-73917D02*
X-55320D01*
G01X-58020Y-74052D02*
X-55320D01*
G01X-58020Y-74187D02*
X-55320D01*
G01X-58020Y-74322D02*
X-55320D01*
G01X-58020Y-74457D02*
X-55320D01*
G01X-58020Y-74593D02*
X-55320D01*
G01X-58020Y-74728D02*
X-55320D01*
G01X-58020Y-74863D02*
X-55320D01*
G01X-58020Y-74998D02*
X-55320D01*
G01X-58020Y-75132D02*
X-55320D01*
G01X-58020Y-75267D02*
X-55320D01*
G01X-58020Y-75402D02*
X-49515D01*
G01X-58020Y-75537D02*
X-49515D01*
G01X-58020Y-75672D02*
X-49650D01*
G01X-58020Y-75807D02*
X-49650D01*
G01X-58020Y-75943D02*
X-49785D01*
G01X-58020Y-76078D02*
X-49785D01*
G01X-58020Y-76213D02*
X-49920D01*
G01X-58020Y-76348D02*
X-50056D01*
G01X-58020Y-76482D02*
X-50191D01*
G01X-58020Y-76617D02*
X-50191D01*
G01X-58020Y-76752D02*
X-50326D01*
G01X-58020Y-76887D02*
X-50461D01*
G01X-58020Y-77022D02*
X-50596D01*
G01X-58020Y-77157D02*
X-50865D01*
G01X-58020Y-77293D02*
X-51000D01*
G01X-58020Y-77428D02*
X-51135D01*
G01X-58020Y-77563D02*
X-51406D01*
G01X-58020Y-77698D02*
X-51676D01*
G01X-58020Y-77832D02*
X-52080D01*
G01X-58020Y-77967D02*
X-52485D01*
G01X-58020Y-78102D02*
X-55320D01*
G01X-58020Y-78237D02*
X-55320D01*
G01X-58020Y-78372D02*
X-55320D01*
G01X-58020Y-78507D02*
X-55320D01*
G01X-58020Y-78643D02*
X-55320D01*
G01X-58020Y-78778D02*
X-55320D01*
G01X-58020Y-78913D02*
X-55320D01*
G01X-58020Y-79048D02*
X-55320D01*
G01X-58020Y-79182D02*
X-55320D01*
G01X-58020Y-79317D02*
X-55320D01*
G01X-58020Y-79452D02*
X-55320D01*
G01X-58020Y-79587D02*
X-55320D01*
G01X-58020Y-79722D02*
X-55320D01*
G01X-58020Y-79857D02*
X-55320D01*
G01X-58020Y-79993D02*
X-55320D01*
G01X-58020Y-80128D02*
X-55320D01*
G01X-58020Y-80263D02*
X-55320D01*
G01X-58020Y-80398D02*
X-55320D01*
G01X-58020Y-80532D02*
X-55320D01*
G01X-58020Y-80667D02*
X-55320D01*
G01X-58020Y-80802D02*
X-55320D01*
G01X-58020Y-80937D02*
X-55320D01*
G01X-58020Y-81072D02*
X-55320D01*
G01X-58020Y-81207D02*
X-55320D01*
G01X-58020Y-81343D02*
X-55320D01*
G01X-58020Y-81478D02*
X-55320D01*
G01X-58020Y-81613D02*
X-55320D01*
G01X-58020Y-81748D02*
X-55320D01*
G01X-58020Y-81882D02*
X-55320D01*
G01X-58020Y-82017D02*
X-55320D01*
G01X-58020Y-82152D02*
X-55320D01*
G01X-58020Y-82287D02*
X-55320D01*
G01X-58020Y-82422D02*
X-55320D01*
G01X-58020Y-82557D02*
X-55320D01*
G01X-58020Y-82693D02*
X-55320D01*
G01X-58020Y-82828D02*
X-55320D01*
G01X-58020Y-82963D02*
X-55320D01*
G01X-58020Y-83098D02*
X-55320D01*
G01X-58020Y-83232D02*
X-55320D01*
G01X-58020Y-83367D02*
X-55320D01*
G01X-43846Y-87013D02*
X-43035D01*
G01X-43846Y-87148D02*
X-42900D01*
G01X-43846Y-87282D02*
X-42900D01*
G01X-43846Y-87417D02*
X-42765D01*
G01X-43846Y-87552D02*
X-42765D01*
G01X-43846Y-87687D02*
X-42630D01*
G01X-43846Y-87822D02*
X-42496D01*
G01X-43846Y-87957D02*
X-42496D01*
G01X-43846Y-88093D02*
X-42361D01*
G01X-43846Y-88228D02*
X-42226D01*
G01X-43846Y-88363D02*
X-42226D01*
G01X-43846Y-88498D02*
X-42091D01*
G01X-43846Y-88632D02*
X-43035D01*
G01X-43846Y-88767D02*
X-43035D01*
G01X-43846Y-88902D02*
X-43035D01*
G01X-43846Y-89037D02*
X-43035D01*
G01X-43846Y-89172D02*
X-43035D01*
G01X-43846Y-89307D02*
X-43035D01*
G01X-43846Y-89443D02*
X-43035D01*
G01X-43846Y-89578D02*
X-43035D01*
G01X-43846Y-89713D02*
X-43035D01*
G01X-43846Y-89848D02*
X-43035D01*
G01X-43846Y-89982D02*
X-43035D01*
G01X-43846Y-90117D02*
X-43035D01*
G01X-47085Y-83502D02*
X-44385D01*
G01X-47085Y-83637D02*
X-44385D01*
G01X-47085Y-83772D02*
X-44385D01*
G01X-47085Y-83907D02*
X-44385D01*
G01X-47085Y-84043D02*
X-44385D01*
G01X-47085Y-84178D02*
X-44520D01*
G01X-45735Y-87013D02*
X-44926D01*
G01X-45735Y-87148D02*
X-44926D01*
G01X-45735Y-87282D02*
X-44926D01*
G01X-45735Y-87417D02*
X-44926D01*
G01X-45735Y-87552D02*
X-44926D01*
G01X-49515Y-87687D02*
X-48435D01*
G01X-45735D02*
X-44926D01*
G01X-49246Y-87822D02*
X-48435D01*
G01X-45735D02*
X-44926D01*
G01X-49246Y-87957D02*
X-48300D01*
G01X-45735D02*
X-44926D01*
G01X-49111Y-88093D02*
X-48300D01*
G01X-45735D02*
X-44926D01*
G01X-49111Y-88228D02*
X-48300D01*
G01X-45735D02*
X-44926D01*
G01X-49111Y-88363D02*
X-48300D01*
G01X-45735D02*
X-44926D01*
G01X-49111Y-88498D02*
X-48300D01*
G01X-45735D02*
X-44926D01*
G01X-49111Y-88632D02*
X-48300D01*
G01X-45735D02*
X-44926D01*
G01X-49111Y-88767D02*
X-48300D01*
G01X-45735D02*
X-44926D01*
G01X-49111Y-88902D02*
X-48300D01*
G01X-45735D02*
X-44926D01*
G01X-49111Y-89037D02*
X-48300D01*
G01X-45735D02*
X-44926D01*
G01X-49111Y-89172D02*
X-48300D01*
G01X-45735D02*
X-44926D01*
G01X-49111Y-89307D02*
X-48300D01*
G01X-45735D02*
X-44926D01*
G01X-49111Y-89443D02*
X-48300D01*
G01X-45735D02*
X-44926D01*
G01X-49111Y-89578D02*
X-48300D01*
G01X-45735D02*
X-44926D01*
G01X-49111Y-89713D02*
X-48300D01*
G01X-45735D02*
X-44926D01*
G01X-49111Y-89848D02*
X-48300D01*
G01X-45735D02*
X-44926D01*
G01X-49246Y-89982D02*
X-48435D01*
G01X-45735D02*
X-44926D01*
G01X-49380Y-90117D02*
X-48435D01*
G01X-45735D02*
X-44926D01*
G01X-47085Y-73513D02*
X-44385D01*
G01X-47085Y-73648D02*
X-44385D01*
G01X-47085Y-73782D02*
X-44385D01*
G01X-47085Y-73917D02*
X-44385D01*
G01X-47085Y-74052D02*
X-44385D01*
G01X-47085Y-74187D02*
X-44385D01*
G01X-47085Y-74322D02*
X-44385D01*
G01X-47085Y-74457D02*
X-44385D01*
G01X-47085Y-74593D02*
X-44385D01*
G01X-47085Y-74728D02*
X-44385D01*
G01X-47085Y-74863D02*
X-44385D01*
G01X-47085Y-74998D02*
X-44250D01*
G01X-47085Y-75132D02*
X-38580D01*
G01X-47085Y-75267D02*
X-38715D01*
G01X-47085Y-75402D02*
X-38715D01*
G01X-47085Y-75537D02*
X-38850D01*
G01X-47085Y-75672D02*
X-38985D01*
G01X-47085Y-75807D02*
X-38985D01*
G01X-47085Y-75943D02*
X-39120D01*
G01X-47085Y-76078D02*
X-39256D01*
G01X-47085Y-76213D02*
X-39391D01*
G01X-47085Y-76348D02*
X-39526D01*
G01X-47085Y-76482D02*
X-39661D01*
G01X-47085Y-76617D02*
X-39796D01*
G01X-47085Y-76752D02*
X-39930D01*
G01X-47085Y-76887D02*
X-40065D01*
G01X-47085Y-77022D02*
X-40065D01*
G01X-47085Y-77157D02*
X-40065D01*
G01X-47085Y-77293D02*
X-40065D01*
G01X-47085Y-77428D02*
X-40065D01*
G01X-47085Y-77563D02*
X-44385D01*
G01X-47085Y-77698D02*
X-44385D01*
G01X-47085Y-77832D02*
X-44385D01*
G01X-47085Y-77967D02*
X-44385D01*
G01X-47085Y-78102D02*
X-44385D01*
G01X-47085Y-78237D02*
X-44385D01*
G01X-47085Y-78372D02*
X-44385D01*
G01X-47085Y-78507D02*
X-44385D01*
G01X-47085Y-78643D02*
X-44385D01*
G01X-47085Y-78778D02*
X-44385D01*
G01X-47085Y-78913D02*
X-44385D01*
G01X-47085Y-79048D02*
X-44385D01*
G01X-47085Y-79182D02*
X-44385D01*
G01X-47085Y-79317D02*
X-44385D01*
G01X-47085Y-79452D02*
X-44385D01*
G01X-47085Y-79587D02*
X-44385D01*
G01X-47085Y-79722D02*
X-44385D01*
G01X-47085Y-79857D02*
X-44385D01*
G01X-47085Y-79993D02*
X-44385D01*
G01X-47085Y-80128D02*
X-44385D01*
G01X-47085Y-80263D02*
X-44385D01*
G01X-47085Y-80398D02*
X-44385D01*
G01X-47085Y-80532D02*
X-44385D01*
G01X-47085Y-80667D02*
X-44385D01*
G01X-47085Y-80802D02*
X-44385D01*
G01X-47085Y-80937D02*
X-44385D01*
G01X-47085Y-81072D02*
X-44385D01*
G01X-47085Y-81207D02*
X-44385D01*
G01X-47085Y-81343D02*
X-44385D01*
G01X-47085Y-81478D02*
X-44385D01*
G01X-47085Y-81613D02*
X-44385D01*
G01X-47085Y-81748D02*
X-44385D01*
G01X-47085Y-81882D02*
X-44385D01*
G01X-47085Y-82017D02*
X-44385D01*
G01X-47085Y-82152D02*
X-44385D01*
G01X-47085Y-82287D02*
X-44385D01*
G01X-47085Y-82422D02*
X-44385D01*
G01X-47085Y-82557D02*
X-44385D01*
G01X-47085Y-82693D02*
X-44385D01*
G01X-47085Y-82828D02*
X-44385D01*
G01X-47085Y-82963D02*
X-44385D01*
G01X-47085Y-83098D02*
X-44385D01*
G01X-47085Y-83232D02*
X-44385D01*
G01X-47085Y-83367D02*
X-44385D01*
G01X-51811Y-72432D02*
X-49246D01*
G01X-51811Y-72567D02*
X-49246D01*
G01X-51811Y-72702D02*
X-49246D01*
G01X-51811Y-72837D02*
X-49246D01*
G01X-51811Y-72972D02*
X-49246D01*
G01X-51811Y-73107D02*
X-49246D01*
G01X-51811Y-73243D02*
X-49246D01*
G01X-51811Y-73378D02*
X-49246D01*
G01X-58020Y-72432D02*
X-55320D01*
G01X-58020Y-72567D02*
X-55320D01*
G01X-58020Y-72702D02*
X-55320D01*
G01X-58020Y-72837D02*
X-55320D01*
G01X-58020Y-72972D02*
X-55320D01*
G01X-58020Y-73107D02*
X-55320D01*
G01X-58020Y-73243D02*
X-55320D01*
G01X-58020Y-73378D02*
X-55320D01*
G01X-52350Y-70543D02*
X-49380D01*
G01X-52215Y-70678D02*
X-49246D01*
G01X-52080Y-70813D02*
X-49246D01*
G01X-51946Y-70948D02*
X-49246D01*
G01X-51946Y-71082D02*
X-49246D01*
G01X-51946Y-71217D02*
X-49246D01*
G01X-51811Y-71352D02*
X-49246D01*
G01X-51811Y-71487D02*
X-49246D01*
G01X-51811Y-71622D02*
X-49246D01*
G01X-51811Y-71757D02*
X-49246D01*
G01X-51811Y-71893D02*
X-49246D01*
G01X-51811Y-72028D02*
X-49246D01*
G01X-51811Y-72163D02*
X-49246D01*
G01X-51811Y-72298D02*
X-49246D01*
G01X-53026Y-70137D02*
X-49515D01*
G01X-52620Y-70272D02*
X-49380D01*
G01X-52485Y-70407D02*
X-49380D01*
G01X-57750Y-67437D02*
X-53161D01*
G01X-58020Y-67572D02*
X-52215D01*
G01X-58020Y-67707D02*
X-51811D01*
G01X-58020Y-67843D02*
X-51541D01*
G01X-58020Y-67978D02*
X-51270D01*
G01X-58020Y-68113D02*
X-51000D01*
G01X-58020Y-68248D02*
X-50865D01*
G01X-58020Y-68382D02*
X-50730D01*
G01X-58020Y-68517D02*
X-50596D01*
G01X-58020Y-68652D02*
X-50461D01*
G01X-58020Y-68787D02*
X-50326D01*
G01X-58020Y-68922D02*
X-50191D01*
G01X-58020Y-69057D02*
X-50056D01*
G01X-58020Y-69193D02*
X-49920D01*
G01X-58020Y-69328D02*
X-49920D01*
G01X-58020Y-69463D02*
X-49785D01*
G01X-58020Y-69598D02*
X-49650D01*
G01X-58020Y-69732D02*
X-49650D01*
G01X-58020Y-69867D02*
X-49515D01*
G01X-58020Y-70002D02*
X-49515D01*
G01X-58020Y-70137D02*
X-55185D01*
G01X-58020Y-70272D02*
X-55320D01*
G01X-58020Y-70407D02*
X-55320D01*
G01X-58020Y-70543D02*
X-55320D01*
G01X-58020Y-70678D02*
X-55320D01*
G01X-58020Y-70813D02*
X-55320D01*
G01X-58020Y-70948D02*
X-55320D01*
G01X-58020Y-71082D02*
X-55320D01*
G01X-58020Y-71217D02*
X-55320D01*
G01X-58020Y-71352D02*
X-55320D01*
G01X-58020Y-71487D02*
X-55320D01*
G01X-58020Y-71622D02*
X-55320D01*
G01X-58020Y-71757D02*
X-55320D01*
G01X-58020Y-71893D02*
X-55320D01*
G01X-58020Y-72028D02*
X-55320D01*
G01X-58020Y-72163D02*
X-55320D01*
G01X-58020Y-72298D02*
X-55320D01*
G01X-47085Y-72432D02*
X-44385D01*
G01X-47085Y-72567D02*
X-44385D01*
G01X-47085Y-72702D02*
X-44385D01*
G01X-47085Y-72837D02*
X-44385D01*
G01X-47085Y-72972D02*
X-44385D01*
G01X-47085Y-73107D02*
X-44385D01*
G01X-47085Y-73243D02*
X-44385D01*
G01X-47085Y-73378D02*
X-44385D01*
G01X-46950Y-67437D02*
X-42226D01*
G01X-47085Y-67572D02*
X-41415D01*
G01X-47085Y-67707D02*
X-40876D01*
G01X-47085Y-67843D02*
X-40606D01*
G01X-47085Y-67978D02*
X-40335D01*
G01X-47085Y-68113D02*
X-40200D01*
G01X-47085Y-68248D02*
X-39930D01*
G01X-47085Y-68382D02*
X-39796D01*
G01X-47085Y-68517D02*
X-39661D01*
G01X-47085Y-68652D02*
X-39526D01*
G01X-47085Y-68787D02*
X-39391D01*
G01X-47085Y-68922D02*
X-39256D01*
G01X-47085Y-69057D02*
X-39120D01*
G01X-47085Y-69193D02*
X-39120D01*
G01X-47085Y-69328D02*
X-38985D01*
G01X-47085Y-69463D02*
X-38850D01*
G01X-47085Y-69598D02*
X-38850D01*
G01X-47085Y-69732D02*
X-38715D01*
G01X-47085Y-69867D02*
X-38715D01*
G01X-47085Y-70002D02*
X-38580D01*
G01X-47085Y-70137D02*
X-44385D01*
G01X-47085Y-70272D02*
X-44385D01*
G01X-47085Y-70407D02*
X-44385D01*
G01X-47085Y-70543D02*
X-44385D01*
G01X-47085Y-70678D02*
X-44385D01*
G01X-47085Y-70813D02*
X-44385D01*
G01X-47085Y-70948D02*
X-44385D01*
G01X-47085Y-71082D02*
X-44385D01*
G01X-47085Y-71217D02*
X-44385D01*
G01X-47085Y-71352D02*
X-44385D01*
G01X-47085Y-71487D02*
X-44385D01*
G01X-47085Y-71622D02*
X-44385D01*
G01X-47085Y-71757D02*
X-44385D01*
G01X-47085Y-71893D02*
X-44385D01*
G01X-47085Y-72028D02*
X-44385D01*
G01X-47085Y-72163D02*
X-44385D01*
G01X-47085Y-72298D02*
X-44385D01*
G01X-41820Y-90252D02*
X-40741D01*
G01X-41820Y-90387D02*
X-40741D01*
G01X-41685Y-90522D02*
X-40741D01*
G01X-41550Y-90657D02*
X-40741D01*
G01X-41550Y-90793D02*
X-40741D01*
G01X-40876Y-90928D02*
X-40741D01*
G01X-34530Y-90252D02*
X-33315D01*
G01X-33180D02*
X-31965D01*
G01X-30750D02*
X-29941D01*
G01X-34396Y-90387D02*
X-32100D01*
G01X-30750D02*
X-29941D01*
G01X-34261Y-90522D02*
X-32235D01*
G01X-30750D02*
X-29941D01*
G01X-34126Y-90657D02*
X-32370D01*
G01X-30750D02*
X-29941D01*
G01X-33991Y-90793D02*
X-32506D01*
G01X-30750D02*
X-29941D01*
G01X-33585Y-90928D02*
X-32911D01*
G01X-30750D02*
X-30615D01*
G01X-37230Y-90252D02*
X-36420D01*
G01X-37230Y-90387D02*
X-36420D01*
G01X-37230Y-90522D02*
X-36420D01*
G01X-37230Y-90657D02*
X-36420D01*
G01X-37230Y-90793D02*
X-36420D01*
G01X-27915Y-90252D02*
X-27106D01*
G01X-27915Y-90387D02*
X-27106D01*
G01X-27915Y-90522D02*
X-27106D01*
G01X-27915Y-90657D02*
X-27106D01*
G01X-27915Y-90793D02*
X-27106D01*
G01X-27915Y-90928D02*
X-27780D01*
G01X-41011Y-83502D02*
X-38446D01*
G01X-41011Y-83637D02*
X-38446D01*
G01X-41011Y-83772D02*
X-38311D01*
G01X-41011Y-83907D02*
X-38311D01*
G01X-40876Y-84043D02*
X-38311D01*
G01X-40876Y-84178D02*
X-38311D01*
G01X-41550Y-87013D02*
X-40741D01*
G01X-41550Y-87148D02*
X-40741D01*
G01X-41550Y-87282D02*
X-40741D01*
G01X-41550Y-87417D02*
X-40741D01*
G01X-41550Y-87552D02*
X-40741D01*
G01X-41550Y-87687D02*
X-40741D01*
G01X-41550Y-87822D02*
X-40741D01*
G01X-41550Y-87957D02*
X-40741D01*
G01X-41550Y-88093D02*
X-40741D01*
G01X-41550Y-88228D02*
X-40741D01*
G01X-41550Y-88363D02*
X-40741D01*
G01X-41550Y-88498D02*
X-40741D01*
G01X-42900Y-88632D02*
X-41956D01*
G01X-41550D02*
X-40741D01*
G01X-42765Y-88767D02*
X-41956D01*
G01X-41550D02*
X-40741D01*
G01X-42765Y-88902D02*
X-41820D01*
G01X-41550D02*
X-40741D01*
G01X-42630Y-89037D02*
X-41685D01*
G01X-41550D02*
X-40741D01*
G01X-42630Y-89172D02*
X-41685D01*
G01X-41550D02*
X-40741D01*
G01X-42496Y-89307D02*
X-40741D01*
G01X-42361Y-89443D02*
X-40741D01*
G01X-42361Y-89578D02*
X-40741D01*
G01X-42226Y-89713D02*
X-40741D01*
G01X-42091Y-89848D02*
X-40741D01*
G01X-42091Y-89982D02*
X-40741D01*
G01X-41956Y-90117D02*
X-40741D01*
G01X-40876Y-73513D02*
X-38311D01*
G01X-40876Y-73648D02*
X-38311D01*
G01X-40876Y-73782D02*
X-38311D01*
G01X-41011Y-73917D02*
X-38311D01*
G01X-41011Y-74052D02*
X-38311D01*
G01X-41011Y-74187D02*
X-38311D01*
G01X-41146Y-74322D02*
X-38311D01*
G01X-41280Y-74457D02*
X-38446D01*
G01X-41415Y-74593D02*
X-38446D01*
G01X-41550Y-74728D02*
X-38446D01*
G01X-41685Y-74863D02*
X-38580D01*
G01X-42091Y-74998D02*
X-38580D01*
G01X-42765Y-77563D02*
X-39930D01*
G01X-42630Y-77698D02*
X-39930D01*
G01X-42630Y-77832D02*
X-39930D01*
G01X-42496Y-77967D02*
X-39930D01*
G01X-42496Y-78102D02*
X-39796D01*
G01X-42496Y-78237D02*
X-39796D01*
G01X-42496Y-78372D02*
X-39796D01*
G01X-42361Y-78507D02*
X-39796D01*
G01X-42361Y-78643D02*
X-39661D01*
G01X-42361Y-78778D02*
X-39661D01*
G01X-42361Y-78913D02*
X-39661D01*
G01X-42226Y-79048D02*
X-39661D01*
G01X-42226Y-79182D02*
X-39526D01*
G01X-42226Y-79317D02*
X-39526D01*
G01X-42091Y-79452D02*
X-39526D01*
G01X-42091Y-79587D02*
X-39391D01*
G01X-42091Y-79722D02*
X-39391D01*
G01X-42091Y-79857D02*
X-39391D01*
G01X-41956Y-79993D02*
X-39391D01*
G01X-41956Y-80128D02*
X-39256D01*
G01X-41956Y-80263D02*
X-39256D01*
G01X-41956Y-80398D02*
X-39256D01*
G01X-41820Y-80532D02*
X-39120D01*
G01X-41820Y-80667D02*
X-39120D01*
G01X-41820Y-80802D02*
X-39120D01*
G01X-41685Y-80937D02*
X-39120D01*
G01X-41685Y-81072D02*
X-38985D01*
G01X-41685Y-81207D02*
X-38985D01*
G01X-41685Y-81343D02*
X-38985D01*
G01X-41550Y-81478D02*
X-38985D01*
G01X-41550Y-81613D02*
X-38850D01*
G01X-41550Y-81748D02*
X-38850D01*
G01X-41550Y-81882D02*
X-38850D01*
G01X-41415Y-82017D02*
X-38850D01*
G01X-41415Y-82152D02*
X-38715D01*
G01X-41415Y-82287D02*
X-38715D01*
G01X-41415Y-82422D02*
X-38715D01*
G01X-41280Y-82557D02*
X-38715D01*
G01X-41280Y-82693D02*
X-38580D01*
G01X-41280Y-82828D02*
X-38580D01*
G01X-41146Y-82963D02*
X-38580D01*
G01X-41146Y-83098D02*
X-38580D01*
G01X-41146Y-83232D02*
X-38446D01*
G01X-41146Y-83367D02*
X-38446D01*
G01X-33856Y-87013D02*
X-32641D01*
G01X-30750D02*
X-29941D01*
G01X-34126Y-87148D02*
X-32370D01*
G01X-30750D02*
X-29941D01*
G01X-28050D02*
X-27106D01*
G01X-34261Y-87282D02*
X-32235D01*
G01X-30750D02*
X-29806D01*
G01X-28050D02*
X-27106D01*
G01X-34396Y-87417D02*
X-32100D01*
G01X-30750D02*
X-29806D01*
G01X-28185D02*
X-27106D01*
G01X-34530Y-87552D02*
X-31965D01*
G01X-30750D02*
X-29670D01*
G01X-28185D02*
X-27106D01*
G01X-34530Y-87687D02*
X-33585D01*
G01X-32911D02*
X-31965D01*
G01X-30750D02*
X-29670D01*
G01X-28320D02*
X-27106D01*
G01X-34665Y-87822D02*
X-33720D01*
G01X-32776D02*
X-31830D01*
G01X-30750D02*
X-29535D01*
G01X-28320D02*
X-27106D01*
G01X-34665Y-87957D02*
X-33856D01*
G01X-32641D02*
X-31830D01*
G01X-30750D02*
X-29535D01*
G01X-28456D02*
X-27106D01*
G01X-34665Y-88093D02*
X-33856D01*
G01X-32641D02*
X-31830D01*
G01X-30750D02*
X-29400D01*
G01X-28456D02*
X-27106D01*
G01X-34665Y-88228D02*
X-33856D01*
G01X-32641D02*
X-31830D01*
G01X-30750D02*
X-29400D01*
G01X-28591D02*
X-27106D01*
G01X-34665Y-88363D02*
X-33856D01*
G01X-32506D02*
X-31830D01*
G01X-30750D02*
X-29265D01*
G01X-28591D02*
X-27106D01*
G01X-34665Y-88498D02*
X-33991D01*
G01X-32506D02*
X-31830D01*
G01X-30750D02*
X-29265D01*
G01X-28726D02*
X-27106D01*
G01X-34665Y-88632D02*
X-33991D01*
G01X-32506D02*
X-31830D01*
G01X-30750D02*
X-29130D01*
G01X-28726D02*
X-27106D01*
G01X-34665Y-88767D02*
X-33991D01*
G01X-32506D02*
X-31830D01*
G01X-30750D02*
X-29130D01*
G01X-28861D02*
X-28050D01*
G01X-34665Y-88902D02*
X-33991D01*
G01X-32506D02*
X-31830D01*
G01X-30750D02*
X-29941D01*
G01X-29806D02*
X-28996D01*
G01X-28861D02*
X-28050D01*
G01X-34665Y-89037D02*
X-33991D01*
G01X-32506D02*
X-31830D01*
G01X-30750D02*
X-29941D01*
G01X-29806D02*
X-28185D01*
G01X-34665Y-89172D02*
X-33991D01*
G01X-32506D02*
X-31830D01*
G01X-30750D02*
X-29941D01*
G01X-29670D02*
X-28185D01*
G01X-34665Y-89307D02*
X-33991D01*
G01X-32506D02*
X-31830D01*
G01X-30750D02*
X-29941D01*
G01X-29670D02*
X-28320D01*
G01X-34665Y-89443D02*
X-33991D01*
G01X-32506D02*
X-31830D01*
G01X-30750D02*
X-29941D01*
G01X-29535D02*
X-28320D01*
G01X-34665Y-89578D02*
X-33856D01*
G01X-32641D02*
X-31830D01*
G01X-30750D02*
X-29941D01*
G01X-29535D02*
X-28456D01*
G01X-34665Y-89713D02*
X-33856D01*
G01X-32641D02*
X-31830D01*
G01X-30750D02*
X-29941D01*
G01X-29400D02*
X-28456D01*
G01X-34665Y-89848D02*
X-33856D01*
G01X-32641D02*
X-31830D01*
G01X-30750D02*
X-29941D01*
G01X-29400D02*
X-28591D01*
G01X-34665Y-89982D02*
X-33856D01*
G01X-32641D02*
X-31830D01*
G01X-30750D02*
X-29941D01*
G01X-29265D02*
X-28591D01*
G01X-34530Y-90117D02*
X-33720D01*
G01X-32776D02*
X-31830D01*
G01X-30750D02*
X-29941D01*
G01X-36015Y-83502D02*
X-27646D01*
G01X-36015Y-83637D02*
X-27646D01*
G01X-36015Y-83772D02*
X-27646D01*
G01X-36015Y-83907D02*
X-27646D01*
G01X-36015Y-84043D02*
X-27646D01*
G01X-36015Y-84178D02*
X-27780D01*
G01X-38311Y-87013D02*
X-35476D01*
G01X-38311Y-87148D02*
X-35476D01*
G01X-38311Y-87282D02*
X-35476D01*
G01X-38311Y-87417D02*
X-35476D01*
G01X-38311Y-87552D02*
X-35476D01*
G01X-37230Y-87687D02*
X-36420D01*
G01X-37230Y-87822D02*
X-36420D01*
G01X-37230Y-87957D02*
X-36420D01*
G01X-37230Y-88093D02*
X-36420D01*
G01X-37230Y-88228D02*
X-36420D01*
G01X-37230Y-88363D02*
X-36420D01*
G01X-37230Y-88498D02*
X-36420D01*
G01X-37230Y-88632D02*
X-36420D01*
G01X-37230Y-88767D02*
X-36420D01*
G01X-37230Y-88902D02*
X-36420D01*
G01X-37230Y-89037D02*
X-36420D01*
G01X-37230Y-89172D02*
X-36420D01*
G01X-37230Y-89307D02*
X-36420D01*
G01X-37230Y-89443D02*
X-36420D01*
G01X-37230Y-89578D02*
X-36420D01*
G01X-37230Y-89713D02*
X-36420D01*
G01X-37230Y-89848D02*
X-36420D01*
G01X-37230Y-89982D02*
X-36420D01*
G01X-37230Y-90117D02*
X-36420D01*
G01X-36015Y-73513D02*
X-33450D01*
G01X-36015Y-73648D02*
X-33450D01*
G01X-36015Y-73782D02*
X-33450D01*
G01X-36015Y-73917D02*
X-33450D01*
G01X-36015Y-74052D02*
X-33450D01*
G01X-36015Y-74187D02*
X-33450D01*
G01X-36015Y-74322D02*
X-33450D01*
G01X-36015Y-74457D02*
X-33315D01*
G01X-36015Y-74593D02*
X-28861D01*
G01X-36015Y-74728D02*
X-28861D01*
G01X-36015Y-74863D02*
X-28726D01*
G01X-36015Y-74998D02*
X-28726D01*
G01X-36015Y-75132D02*
X-28726D01*
G01X-36015Y-75267D02*
X-28726D01*
G01X-36015Y-75402D02*
X-28726D01*
G01X-36015Y-75537D02*
X-28726D01*
G01X-36015Y-75672D02*
X-28726D01*
G01X-36015Y-75807D02*
X-28726D01*
G01X-36015Y-75943D02*
X-28726D01*
G01X-36015Y-76078D02*
X-28726D01*
G01X-36015Y-76213D02*
X-28726D01*
G01X-36015Y-76348D02*
X-28726D01*
G01X-36015Y-76482D02*
X-28726D01*
G01X-36015Y-76617D02*
X-28726D01*
G01X-36015Y-76752D02*
X-28726D01*
G01X-36015Y-76887D02*
X-28726D01*
G01X-36015Y-77022D02*
X-28726D01*
G01X-36015Y-77157D02*
X-28861D01*
G01X-36015Y-77293D02*
X-33315D01*
G01X-36015Y-77428D02*
X-33450D01*
G01X-36015Y-77563D02*
X-33450D01*
G01X-36015Y-77698D02*
X-33450D01*
G01X-36015Y-77832D02*
X-33450D01*
G01X-36015Y-77967D02*
X-33450D01*
G01X-36015Y-78102D02*
X-33450D01*
G01X-36015Y-78237D02*
X-33450D01*
G01X-36015Y-78372D02*
X-33450D01*
G01X-36015Y-78507D02*
X-33450D01*
G01X-36015Y-78643D02*
X-33450D01*
G01X-36015Y-78778D02*
X-33450D01*
G01X-36015Y-78913D02*
X-33450D01*
G01X-36015Y-79048D02*
X-33450D01*
G01X-36015Y-79182D02*
X-33450D01*
G01X-36015Y-79317D02*
X-33450D01*
G01X-36015Y-79452D02*
X-33450D01*
G01X-36015Y-79587D02*
X-33450D01*
G01X-36015Y-79722D02*
X-33450D01*
G01X-36015Y-79857D02*
X-33450D01*
G01X-36015Y-79993D02*
X-33450D01*
G01X-36015Y-80128D02*
X-33450D01*
G01X-36015Y-80263D02*
X-33450D01*
G01X-36015Y-80398D02*
X-33450D01*
G01X-36015Y-80532D02*
X-33450D01*
G01X-36015Y-80667D02*
X-33450D01*
G01X-36015Y-80802D02*
X-33450D01*
G01X-36015Y-80937D02*
X-33450D01*
G01X-36015Y-81072D02*
X-33450D01*
G01X-36015Y-81207D02*
X-33450D01*
G01X-36015Y-81343D02*
X-33450D01*
G01X-36015Y-81478D02*
X-33450D01*
G01X-36015Y-81613D02*
X-33315D01*
G01X-36015Y-81748D02*
X-27780D01*
G01X-36015Y-81882D02*
X-27646D01*
G01X-36015Y-82017D02*
X-27646D01*
G01X-36015Y-82152D02*
X-27646D01*
G01X-36015Y-82287D02*
X-27646D01*
G01X-36015Y-82422D02*
X-27646D01*
G01X-36015Y-82557D02*
X-27646D01*
G01X-36015Y-82693D02*
X-27646D01*
G01X-36015Y-82828D02*
X-27646D01*
G01X-36015Y-82963D02*
X-27646D01*
G01X-36015Y-83098D02*
X-27646D01*
G01X-36015Y-83232D02*
X-27646D01*
G01X-36015Y-83367D02*
X-27646D01*
G01X-27915Y-87013D02*
X-27106D01*
G01X-26161Y-88093D02*
X-25350D01*
G01X-26161Y-88228D02*
X-25350D01*
G01X-26161Y-88363D02*
X-25350D01*
G01X-26161Y-88498D02*
X-25350D01*
G01X-26161Y-88632D02*
X-25350D01*
G01X-27915Y-88767D02*
X-27106D01*
G01X-26161D02*
X-25350D01*
G01X-27915Y-88902D02*
X-27106D01*
G01X-26161D02*
X-25350D01*
G01X-27915Y-89037D02*
X-27106D01*
G01X-26161D02*
X-25350D01*
G01X-27915Y-89172D02*
X-27106D01*
G01X-26161D02*
X-25350D01*
G01X-27915Y-89307D02*
X-27106D01*
G01X-26161D02*
X-25350D01*
G01X-27915Y-89443D02*
X-27106D01*
G01X-26161D02*
X-25350D01*
G01X-27915Y-89578D02*
X-27106D01*
G01X-26161D02*
X-25350D01*
G01X-27915Y-89713D02*
X-27106D01*
G01X-26161D02*
X-25350D01*
G01X-27915Y-89848D02*
X-27106D01*
G01X-27915Y-89982D02*
X-27106D01*
G01X-27915Y-90117D02*
X-27106D01*
G01X-40876Y-72432D02*
X-38311D01*
G01X-40876Y-72567D02*
X-38311D01*
G01X-40876Y-72702D02*
X-38311D01*
G01X-40876Y-72837D02*
X-38311D01*
G01X-40876Y-72972D02*
X-38311D01*
G01X-40876Y-73107D02*
X-38311D01*
G01X-40876Y-73243D02*
X-38311D01*
G01X-40876Y-73378D02*
X-38311D01*
G01X-41820Y-70137D02*
X-38580D01*
G01X-41550Y-70272D02*
X-38446D01*
G01X-41415Y-70407D02*
X-38446D01*
G01X-41280Y-70543D02*
X-38446D01*
G01X-41146Y-70678D02*
X-38311D01*
G01X-41011Y-70813D02*
X-38311D01*
G01X-41011Y-70948D02*
X-38311D01*
G01X-41011Y-71082D02*
X-38311D01*
G01X-40876Y-71217D02*
X-38311D01*
G01X-40876Y-71352D02*
X-38311D01*
G01X-40876Y-71487D02*
X-38311D01*
G01X-40876Y-71622D02*
X-38311D01*
G01X-40876Y-71757D02*
X-38311D01*
G01X-40876Y-71893D02*
X-38311D01*
G01X-40876Y-72028D02*
X-38311D01*
G01X-40876Y-72163D02*
X-38311D01*
G01X-40876Y-72298D02*
X-38311D01*
G01X-36015Y-72432D02*
X-33450D01*
G01X-36015Y-72567D02*
X-33450D01*
G01X-36015Y-72702D02*
X-33450D01*
G01X-36015Y-72837D02*
X-33450D01*
G01X-36015Y-72972D02*
X-33450D01*
G01X-36015Y-73107D02*
X-33450D01*
G01X-36015Y-73243D02*
X-33450D01*
G01X-36015Y-73378D02*
X-33450D01*
G01X-36015Y-67572D02*
X-27780D01*
G01X-36015Y-67707D02*
X-27646D01*
G01X-36015Y-67843D02*
X-27646D01*
G01X-36015Y-67978D02*
X-27646D01*
G01X-36015Y-68113D02*
X-27646D01*
G01X-36015Y-68248D02*
X-27646D01*
G01X-36015Y-68382D02*
X-27646D01*
G01X-36015Y-68517D02*
X-27646D01*
G01X-36015Y-68652D02*
X-27646D01*
G01X-36015Y-68787D02*
X-27646D01*
G01X-36015Y-68922D02*
X-27646D01*
G01X-36015Y-69057D02*
X-27646D01*
G01X-36015Y-69193D02*
X-27646D01*
G01X-36015Y-69328D02*
X-27646D01*
G01X-36015Y-69463D02*
X-27646D01*
G01X-36015Y-69598D02*
X-27646D01*
G01X-36015Y-69732D02*
X-27646D01*
G01X-36015Y-69867D02*
X-27646D01*
G01X-36015Y-70002D02*
X-27780D01*
G01X-36015Y-70137D02*
X-33315D01*
G01X-36015Y-70272D02*
X-33450D01*
G01X-36015Y-70407D02*
X-33450D01*
G01X-36015Y-70543D02*
X-33450D01*
G01X-36015Y-70678D02*
X-33450D01*
G01X-36015Y-70813D02*
X-33450D01*
G01X-36015Y-70948D02*
X-33450D01*
G01X-36015Y-71082D02*
X-33450D01*
G01X-36015Y-71217D02*
X-33450D01*
G01X-36015Y-71352D02*
X-33450D01*
G01X-36015Y-71487D02*
X-33450D01*
G01X-36015Y-71622D02*
X-33450D01*
G01X-36015Y-71757D02*
X-33450D01*
G01X-36015Y-71893D02*
X-33450D01*
G01X-36015Y-72028D02*
X-33450D01*
G01X-36015Y-72163D02*
X-33450D01*
G01X-36015Y-72298D02*
X-33450D01*
G01X-24541Y-90252D02*
X-23326D01*
G01X-22111D02*
X-21435D01*
G01X-20356D02*
X-19546D01*
G01X-18330D02*
X-17520D01*
G01X-22111Y-90387D02*
X-21435D01*
G01X-20356D02*
X-19411D01*
G01X-18330D02*
X-17520D01*
G01X-22111Y-90522D02*
X-21435D01*
G01X-20220D02*
X-19411D01*
G01X-18330D02*
X-17520D01*
G01X-22111Y-90657D02*
X-21435D01*
G01X-20220D02*
X-19276D01*
G01X-18330D02*
X-17520D01*
G01X-22111Y-90793D02*
X-21435D01*
G01X-20085D02*
X-19276D01*
G01X-18330D02*
X-17520D01*
G01X-25891Y-90252D02*
X-24811D01*
G01X-25891Y-90387D02*
X-23461D01*
G01X-25756Y-90522D02*
X-23596D01*
G01X-25620Y-90657D02*
X-23730D01*
G01X-25350Y-90793D02*
X-24000D01*
G01X-24946Y-90928D02*
X-24270D01*
G01X-10096Y-90252D02*
X-9015D01*
G01X-14280D02*
X-13200D01*
G01X-12930D02*
X-11715D01*
G01X-10096Y-90387D02*
X-9150D01*
G01X-10096Y-90522D02*
X-9150D01*
G01X-9961Y-90657D02*
X-9150D01*
G01X-9961Y-90793D02*
X-9285D01*
G01X-9420Y-90928D02*
X-9285D01*
G01X-14280Y-90387D02*
X-11850D01*
G01X-14146Y-90522D02*
X-11985D01*
G01X-14011Y-90657D02*
X-12120D01*
G01X-13741Y-90793D02*
X-12391D01*
G01X-13470Y-90928D02*
X-12661D01*
G01X-16441Y-90252D02*
X-15630D01*
G01X-16441Y-90387D02*
X-15496D01*
G01X-16306Y-90522D02*
X-15496D01*
G01X-16306Y-90657D02*
X-15361D01*
G01X-16170Y-90793D02*
X-15361D01*
G01X-16170Y-90928D02*
X-16035D01*
G01X-24135Y-83502D02*
X-18330D01*
G01X-24000Y-83637D02*
X-18600D01*
G01X-23730Y-83772D02*
X-18735D01*
G01X-23596Y-83907D02*
X-19006D01*
G01X-23326Y-84043D02*
X-19141D01*
G01X-22920Y-84178D02*
X-19546D01*
G01X-22515Y-84313D02*
X-19950D01*
G01X-21706Y-84448D02*
X-20761D01*
G01X-22246Y-87013D02*
X-20085D01*
G01X-18330D02*
X-16170D01*
G01X-22111Y-87148D02*
X-19815D01*
G01X-18330D02*
X-15900D01*
G01X-22111Y-87282D02*
X-19680D01*
G01X-18330D02*
X-15765D01*
G01X-22111Y-87417D02*
X-19546D01*
G01X-18330D02*
X-15630D01*
G01X-22111Y-87552D02*
X-19411D01*
G01X-18330D02*
X-15630D01*
G01X-24270Y-87687D02*
X-23326D01*
G01X-22111D02*
X-21435D01*
G01X-20356D02*
X-19411D01*
G01X-18330D02*
X-17520D01*
G01X-24135Y-87822D02*
X-23326D01*
G01X-22111D02*
X-21435D01*
G01X-20220D02*
X-19411D01*
G01X-18330D02*
X-17520D01*
G01X-24000Y-87957D02*
X-23191D01*
G01X-22111D02*
X-21435D01*
G01X-20085D02*
X-19276D01*
G01X-18330D02*
X-17520D01*
G01X-24000Y-88093D02*
X-23191D01*
G01X-22111D02*
X-21435D01*
G01X-20085D02*
X-19276D01*
G01X-18330D02*
X-17520D01*
G01X-24000Y-88228D02*
X-23191D01*
G01X-22111D02*
X-21435D01*
G01X-20085D02*
X-19276D01*
G01X-18330D02*
X-17520D01*
G01X-24000Y-88363D02*
X-23191D01*
G01X-22111D02*
X-21435D01*
G01X-20085D02*
X-19276D01*
G01X-18330D02*
X-17520D01*
G01X-24000Y-88498D02*
X-23191D01*
G01X-22111D02*
X-21435D01*
G01X-20220D02*
X-19411D01*
G01X-18330D02*
X-17520D01*
G01X-24000Y-88632D02*
X-23191D01*
G01X-22111D02*
X-21435D01*
G01X-20356D02*
X-19411D01*
G01X-18330D02*
X-17520D01*
G01X-24000Y-88767D02*
X-23191D01*
G01X-22111D02*
X-19546D01*
G01X-18330D02*
X-15630D01*
G01X-24000Y-88902D02*
X-23191D01*
G01X-22111D02*
X-19546D01*
G01X-18330D02*
X-15630D01*
G01X-24000Y-89037D02*
X-23191D01*
G01X-22111D02*
X-19680D01*
G01X-18330D02*
X-15765D01*
G01X-24000Y-89172D02*
X-23191D01*
G01X-22111D02*
X-19950D01*
G01X-18330D02*
X-16035D01*
G01X-24000Y-89307D02*
X-23191D01*
G01X-22111D02*
X-19950D01*
G01X-18330D02*
X-16035D01*
G01X-24000Y-89443D02*
X-23191D01*
G01X-22111D02*
X-21435D01*
G01X-20761D02*
X-19950D01*
G01X-18330D02*
X-17520D01*
G01X-24000Y-89578D02*
X-23191D01*
G01X-22111D02*
X-21435D01*
G01X-20761D02*
X-19815D01*
G01X-18330D02*
X-17520D01*
G01X-24000Y-89713D02*
X-23191D01*
G01X-22111D02*
X-21435D01*
G01X-20626D02*
X-19815D01*
G01X-18330D02*
X-17520D01*
G01X-24000Y-89848D02*
X-23191D01*
G01X-22111D02*
X-21435D01*
G01X-20626D02*
X-19680D01*
G01X-18330D02*
X-17520D01*
G01X-24135Y-89982D02*
X-23326D01*
G01X-22111D02*
X-21435D01*
G01X-20491D02*
X-19680D01*
G01X-18330D02*
X-17520D01*
G01X-24270Y-90117D02*
X-23326D01*
G01X-22111D02*
X-21435D01*
G01X-20491D02*
X-19546D01*
G01X-18330D02*
X-17520D01*
G01X-25215Y-87013D02*
X-24000D01*
G01X-25485Y-87148D02*
X-23865D01*
G01X-25620Y-87282D02*
X-23596D01*
G01X-25756Y-87417D02*
X-23461D01*
G01X-25891Y-87552D02*
X-23461D01*
G01X-26026Y-87687D02*
X-24946D01*
G01X-26026Y-87822D02*
X-25215D01*
G01X-26026Y-87957D02*
X-25215D01*
G01X-26026Y-89848D02*
X-25215D01*
G01X-26026Y-89982D02*
X-25215D01*
G01X-26026Y-90117D02*
X-25080D01*
G01X-24811Y-74322D02*
X-21030D01*
G01X-24676Y-74457D02*
X-20896D01*
G01X-24541Y-74593D02*
X-20626D01*
G01X-24541Y-74728D02*
X-20491D01*
G01X-24406Y-74863D02*
X-20356D01*
G01X-24270Y-74998D02*
X-20220D01*
G01X-24135Y-75132D02*
X-20085D01*
G01X-24000Y-75267D02*
X-19950D01*
G01X-23730Y-75402D02*
X-19680D01*
G01X-23596Y-75537D02*
X-19546D01*
G01X-23461Y-75672D02*
X-19411D01*
G01X-23326Y-75807D02*
X-19276D01*
G01X-23191Y-75943D02*
X-19141D01*
G01X-23056Y-76078D02*
X-19006D01*
G01X-22785Y-76213D02*
X-18870D01*
G01X-22650Y-76348D02*
X-18600D01*
G01X-22515Y-76482D02*
X-18465D01*
G01X-22380Y-76617D02*
X-18330D01*
G01X-22246Y-76752D02*
X-18196D01*
G01X-22111Y-76887D02*
X-18061D01*
G01X-21841Y-77022D02*
X-17926D01*
G01X-21706Y-77157D02*
X-17791D01*
G01X-21570Y-77293D02*
X-17791D01*
G01X-21435Y-77428D02*
X-17656D01*
G01X-21300Y-77563D02*
X-17520D01*
G01X-21165Y-77698D02*
X-17520D01*
G01X-21030Y-77832D02*
X-17385D01*
G01X-20761Y-77967D02*
X-17385D01*
G01X-20626Y-78102D02*
X-17250D01*
G01X-20491Y-78237D02*
X-17250D01*
G01X-20356Y-78372D02*
X-17115D01*
G01X-20220Y-78507D02*
X-17115D01*
G01X-20085Y-78643D02*
X-17115D01*
G01X-19950Y-78778D02*
X-16980D01*
G01X-19815Y-78913D02*
X-16980D01*
G01X-19680Y-79048D02*
X-16980D01*
G01X-19680Y-79182D02*
X-16980D01*
G01X-19680Y-79317D02*
X-16846D01*
G01X-19546Y-79452D02*
X-16846D01*
G01X-19546Y-79587D02*
X-16846D01*
G01X-19546Y-79722D02*
X-16846D01*
G01X-19546Y-79857D02*
X-16846D01*
G01X-19546Y-79993D02*
X-16846D01*
G01X-19546Y-80128D02*
X-16846D01*
G01X-19546Y-80263D02*
X-16846D01*
G01X-19546Y-80398D02*
X-16846D01*
G01X-19546Y-80532D02*
X-16846D01*
G01X-19546Y-80667D02*
X-16846D01*
G01X-19546Y-80802D02*
X-16846D01*
G01X-19680Y-80937D02*
X-16846D01*
G01X-19680Y-81072D02*
X-16846D01*
G01X-19815Y-81207D02*
X-16980D01*
G01X-19950Y-81343D02*
X-16980D01*
G01X-20085Y-81478D02*
X-16980D01*
G01X-20220Y-81613D02*
X-16980D01*
G01X-20626Y-81748D02*
X-17115D01*
G01X-24811Y-82693D02*
X-17656D01*
G01X-24811Y-82828D02*
X-17656D01*
G01X-24676Y-82963D02*
X-17791D01*
G01X-24541Y-83098D02*
X-17926D01*
G01X-24406Y-83232D02*
X-18061D01*
G01X-24270Y-83367D02*
X-18196D01*
G01X-25215Y-73513D02*
X-21976D01*
G01X-25215Y-73648D02*
X-21706D01*
G01X-25080Y-73782D02*
X-21570D01*
G01X-25080Y-73917D02*
X-21435D01*
G01X-24946Y-74052D02*
X-21300D01*
G01X-24946Y-74187D02*
X-21165D01*
G01X-25620Y-78913D02*
X-23056D01*
G01X-25620Y-79048D02*
X-23056D01*
G01X-25620Y-79182D02*
X-23056D01*
G01X-25620Y-79317D02*
X-23056D01*
G01X-25620Y-79452D02*
X-23056D01*
G01X-25620Y-79587D02*
X-23056D01*
G01X-25620Y-79722D02*
X-23056D01*
G01X-25620Y-79857D02*
X-23056D01*
G01X-25620Y-79993D02*
X-23056D01*
G01X-25620Y-80128D02*
X-23056D01*
G01X-25620Y-80263D02*
X-23056D01*
G01X-25620Y-80398D02*
X-22920D01*
G01X-25620Y-80532D02*
X-22920D01*
G01X-25620Y-80667D02*
X-22920D01*
G01X-25620Y-80802D02*
X-22920D01*
G01X-25620Y-80937D02*
X-22785D01*
G01X-25620Y-81072D02*
X-22785D01*
G01X-25485Y-81207D02*
X-22650D01*
G01X-25485Y-81343D02*
X-22515D01*
G01X-25485Y-81478D02*
X-22380D01*
G01X-25485Y-81613D02*
X-22111D01*
G01X-25350Y-81748D02*
X-21841D01*
G01X-25350Y-81882D02*
X-17115D01*
G01X-25215Y-82017D02*
X-17250D01*
G01X-25215Y-82152D02*
X-17250D01*
G01X-25080Y-82287D02*
X-17385D01*
G01X-25080Y-82422D02*
X-17385D01*
G01X-24946Y-82557D02*
X-17520D01*
G01X-13200Y-83502D02*
X-7396D01*
G01X-13065Y-83637D02*
X-7665D01*
G01X-12796Y-83772D02*
X-7800D01*
G01X-12661Y-83907D02*
X-8070D01*
G01X-11580Y-84313D02*
X-9015D01*
G01X-10770Y-84448D02*
X-9826D01*
G01X-11041Y-87013D02*
X-10096D01*
G01X-10906Y-87148D02*
X-10096D01*
G01X-10906Y-87282D02*
X-10096D01*
G01X-10906Y-87417D02*
X-10096D01*
G01X-10770Y-87552D02*
X-10096D01*
G01X-10770Y-87687D02*
X-9961D01*
G01X-10770Y-87822D02*
X-9961D01*
G01X-10770Y-87957D02*
X-9961D01*
G01X-10635Y-88093D02*
X-9961D01*
G01X-10635Y-88228D02*
X-9826D01*
G01X-9285D02*
X-7935D01*
G01X-10635Y-88363D02*
X-9826D01*
G01X-9285D02*
X-7800D01*
G01X-10635Y-88498D02*
X-9826D01*
G01X-9285D02*
X-7800D01*
G01X-10500Y-88632D02*
X-9826D01*
G01X-9285D02*
X-8611D01*
G01X-10500Y-88767D02*
X-9691D01*
G01X-9420D02*
X-8611D01*
G01X-10500Y-88902D02*
X-9691D01*
G01X-9420D02*
X-8611D01*
G01X-10500Y-89037D02*
X-9691D01*
G01X-9420D02*
X-8746D01*
G01X-10365Y-89172D02*
X-9691D01*
G01X-9556D02*
X-8746D01*
G01X-10365Y-89307D02*
X-8746D01*
G01X-10365Y-89443D02*
X-8880D01*
G01X-10230Y-89578D02*
X-8880D01*
G01X-10230Y-89713D02*
X-8880D01*
G01X-10230Y-89848D02*
X-9015D01*
G01X-10230Y-89982D02*
X-9015D01*
G01X-10096Y-90117D02*
X-9015D01*
G01X-12391Y-84043D02*
X-8206D01*
G01X-12120Y-84178D02*
X-8611D01*
G01X-13606Y-87013D02*
X-12526D01*
G01X-13876Y-87148D02*
X-12256D01*
G01X-14011Y-87282D02*
X-11985D01*
G01X-14146Y-87417D02*
X-11850D01*
G01X-14280Y-87552D02*
X-11850D01*
G01X-14415Y-87687D02*
X-13335D01*
G01X-12796D02*
X-11715D01*
G01X-14415Y-87822D02*
X-13606D01*
G01X-12526D02*
X-11715D01*
G01X-14415Y-87957D02*
X-13606D01*
G01X-12526D02*
X-11715D01*
G01X-14550Y-88093D02*
X-13741D01*
G01X-12391D02*
X-11580D01*
G01X-14550Y-88228D02*
X-13741D01*
G01X-12391D02*
X-11580D01*
G01X-14550Y-88363D02*
X-13741D01*
G01X-12391D02*
X-11580D01*
G01X-14550Y-88498D02*
X-13741D01*
G01X-12391D02*
X-11580D01*
G01X-14550Y-88632D02*
X-13741D01*
G01X-12391D02*
X-11580D01*
G01X-14550Y-88767D02*
X-13741D01*
G01X-12391D02*
X-11580D01*
G01X-14550Y-88902D02*
X-13741D01*
G01X-12391D02*
X-11580D01*
G01X-14550Y-89037D02*
X-13741D01*
G01X-12391D02*
X-11580D01*
G01X-14550Y-89172D02*
X-13741D01*
G01X-12391D02*
X-11580D01*
G01X-14550Y-89307D02*
X-13741D01*
G01X-12391D02*
X-11580D01*
G01X-14550Y-89443D02*
X-13741D01*
G01X-12391D02*
X-11580D01*
G01X-14550Y-89578D02*
X-13741D01*
G01X-12391D02*
X-11580D01*
G01X-14550Y-89713D02*
X-13741D01*
G01X-12391D02*
X-11580D01*
G01X-14550Y-89848D02*
X-13741D01*
G01X-12391D02*
X-11580D01*
G01X-14415Y-89982D02*
X-13606D01*
G01X-12526D02*
X-11715D01*
G01X-14415Y-90117D02*
X-13470D01*
G01X-12661D02*
X-11715D01*
G01X-16441Y-87687D02*
X-15496D01*
G01X-16306Y-87822D02*
X-15496D01*
G01X-16306Y-87957D02*
X-15496D01*
G01X-16170Y-88093D02*
X-15361D01*
G01X-16170Y-88228D02*
X-15361D01*
G01X-16306Y-88363D02*
X-15496D01*
G01X-16306Y-88498D02*
X-15496D01*
G01X-16441Y-88632D02*
X-15496D01*
G01X-16846Y-89443D02*
X-16035D01*
G01X-16846Y-89578D02*
X-15900D01*
G01X-16711Y-89713D02*
X-15900D01*
G01X-16711Y-89848D02*
X-15765D01*
G01X-16576Y-89982D02*
X-15765D01*
G01X-16576Y-90117D02*
X-15630D01*
G01X-11715Y-76348D02*
X-7665D01*
G01X-11580Y-76482D02*
X-7530D01*
G01X-11446Y-76617D02*
X-7396D01*
G01X-11311Y-76752D02*
X-7261D01*
G01X-11176Y-76887D02*
X-7126D01*
G01X-11041Y-77022D02*
X-6991D01*
G01X-10770Y-77157D02*
X-6856D01*
G01X-10635Y-77293D02*
X-6856D01*
G01X-10500Y-77428D02*
X-6720D01*
G01X-10365Y-77563D02*
X-6585D01*
G01X-10230Y-77698D02*
X-6585D01*
G01X-10096Y-77832D02*
X-6450D01*
G01X-9826Y-77967D02*
X-6450D01*
G01X-9691Y-78102D02*
X-6315D01*
G01X-9556Y-78237D02*
X-6315D01*
G01X-9420Y-78372D02*
X-6180D01*
G01X-9285Y-78507D02*
X-6180D01*
G01X-14280Y-73513D02*
X-11041D01*
G01X-14280Y-73648D02*
X-10906D01*
G01X-14146Y-73782D02*
X-10635D01*
G01X-14146Y-73917D02*
X-10500D01*
G01X-14011Y-74052D02*
X-10365D01*
G01X-14011Y-74187D02*
X-10230D01*
G01X-13876Y-74322D02*
X-10096D01*
G01X-13741Y-74457D02*
X-9961D01*
G01X-13741Y-74593D02*
X-9691D01*
G01X-13606Y-74728D02*
X-9556D01*
G01X-13470Y-74863D02*
X-9420D01*
G01X-13335Y-74998D02*
X-9285D01*
G01X-13200Y-75132D02*
X-9150D01*
G01X-13065Y-75267D02*
X-9015D01*
G01X-12796Y-75402D02*
X-8880D01*
G01X-12661Y-75537D02*
X-8611D01*
G01X-12526Y-75672D02*
X-8476D01*
G01X-12391Y-75807D02*
X-8341D01*
G01X-12256Y-75943D02*
X-8206D01*
G01X-12120Y-76078D02*
X-8070D01*
G01X-11985Y-76213D02*
X-7935D01*
G01X-14685Y-78913D02*
X-12120D01*
G01X-14685Y-79048D02*
X-12120D01*
G01X-14685Y-79182D02*
X-12120D01*
G01X-14685Y-79317D02*
X-12120D01*
G01X-14685Y-79452D02*
X-12120D01*
G01X-14685Y-79587D02*
X-12120D01*
G01X-14685Y-79722D02*
X-12120D01*
G01X-14685Y-79857D02*
X-12120D01*
G01X-14685Y-79993D02*
X-12120D01*
G01X-14685Y-80128D02*
X-12120D01*
G01X-9420Y-81613D02*
X-6180D01*
G01X-9691Y-81748D02*
X-6180D01*
G01X-14685Y-80263D02*
X-12120D01*
G01X-14685Y-80398D02*
X-12120D01*
G01X-14685Y-80532D02*
X-11985D01*
G01X-14685Y-80667D02*
X-11985D01*
G01X-14685Y-80802D02*
X-11985D01*
G01X-14685Y-80937D02*
X-11850D01*
G01X-14685Y-81072D02*
X-11850D01*
G01X-14550Y-81207D02*
X-11715D01*
G01X-14550Y-81343D02*
X-11580D01*
G01X-14550Y-81478D02*
X-11446D01*
G01X-14550Y-81613D02*
X-11176D01*
G01X-14415Y-81748D02*
X-10906D01*
G01X-14415Y-81882D02*
X-6180D01*
G01X-14280Y-82017D02*
X-6315D01*
G01X-14280Y-82152D02*
X-6315D01*
G01X-14146Y-82287D02*
X-6450D01*
G01X-14146Y-82422D02*
X-6450D01*
G01X-14011Y-82557D02*
X-6585D01*
G01X-13876Y-82693D02*
X-6720D01*
G01X-13876Y-82828D02*
X-6720D01*
G01X-13741Y-82963D02*
X-6856D01*
G01X-13606Y-83098D02*
X-6991D01*
G01X-13470Y-83232D02*
X-7126D01*
G01X-13335Y-83367D02*
X-7261D01*
G01X-19546Y-72432D02*
X-16846D01*
G01X-19546Y-72567D02*
X-16846D01*
G01X-19546Y-72702D02*
X-16846D01*
G01X-19411Y-72837D02*
X-16846D01*
G01X-19411Y-72972D02*
X-16980D01*
G01X-25620Y-72432D02*
X-22785D01*
G01X-25485Y-72567D02*
X-22785D01*
G01X-25485Y-72702D02*
X-22650D01*
G01X-25485Y-72837D02*
X-22650D01*
G01X-25485Y-72972D02*
X-22515D01*
G01X-25350Y-73107D02*
X-22380D01*
G01X-25350Y-73243D02*
X-22246D01*
G01X-25350Y-73378D02*
X-22111D01*
G01X-21706Y-67302D02*
X-20761D01*
G01X-22515Y-67437D02*
X-19950D01*
G01X-22920Y-67572D02*
X-19546D01*
G01X-23326Y-67707D02*
X-19141D01*
G01X-23596Y-67843D02*
X-18870D01*
G01X-23730Y-67978D02*
X-18735D01*
G01X-24000Y-68113D02*
X-18465D01*
G01X-24135Y-68248D02*
X-18330D01*
G01X-24270Y-68382D02*
X-18196D01*
G01X-24406Y-68517D02*
X-18061D01*
G01X-24541Y-68652D02*
X-17926D01*
G01X-24676Y-68787D02*
X-17791D01*
G01X-24811Y-68922D02*
X-17656D01*
G01X-24811Y-69057D02*
X-17656D01*
G01X-20626Y-70002D02*
X-17115D01*
G01X-20220Y-70137D02*
X-16980D01*
G01X-20085Y-70272D02*
X-16980D01*
G01X-19950Y-70407D02*
X-16980D01*
G01X-19815Y-70543D02*
X-16980D01*
G01X-19680Y-70678D02*
X-16846D01*
G01X-19680Y-70813D02*
X-16846D01*
G01X-19546Y-70948D02*
X-16846D01*
G01X-19546Y-71082D02*
X-16846D01*
G01X-19546Y-71217D02*
X-16846D01*
G01X-19546Y-71352D02*
X-16846D01*
G01X-19546Y-71487D02*
X-16846D01*
G01X-19546Y-71622D02*
X-16846D01*
G01X-19546Y-71757D02*
X-16846D01*
G01X-19546Y-71893D02*
X-16846D01*
G01X-19546Y-72028D02*
X-16846D01*
G01X-19546Y-72163D02*
X-16846D01*
G01X-19546Y-72298D02*
X-16846D01*
G01X-24946Y-69193D02*
X-17520D01*
G01X-25080Y-69328D02*
X-17385D01*
G01X-25080Y-69463D02*
X-17385D01*
G01X-25215Y-69598D02*
X-17250D01*
G01X-25215Y-69732D02*
X-17250D01*
G01X-25350Y-69867D02*
X-17115D01*
G01X-25350Y-70002D02*
X-21841D01*
G01X-25485Y-70137D02*
X-22246D01*
G01X-25485Y-70272D02*
X-22380D01*
G01X-25485Y-70407D02*
X-22515D01*
G01X-25485Y-70543D02*
X-22650D01*
G01X-25620Y-70678D02*
X-22785D01*
G01X-25620Y-70813D02*
X-22785D01*
G01X-25620Y-70948D02*
X-22920D01*
G01X-25620Y-71082D02*
X-22920D01*
G01X-25620Y-71217D02*
X-22920D01*
G01X-25620Y-71352D02*
X-22920D01*
G01X-25620Y-71487D02*
X-23056D01*
G01X-25620Y-71622D02*
X-22920D01*
G01X-25620Y-71757D02*
X-22920D01*
G01X-25620Y-71893D02*
X-22920D01*
G01X-25620Y-72028D02*
X-22920D01*
G01X-25620Y-72163D02*
X-22920D01*
G01X-25620Y-72298D02*
X-22920D01*
G01X-14685Y-72432D02*
X-11850D01*
G01X-14685Y-72567D02*
X-11850D01*
G01X-14550Y-72702D02*
X-11715D01*
G01X-14550Y-72837D02*
X-11715D01*
G01X-14550Y-72972D02*
X-11580D01*
G01X-14550Y-73107D02*
X-11446D01*
G01X-14415Y-73243D02*
X-11311D01*
G01X-14415Y-73378D02*
X-11176D01*
G01X-10770Y-67302D02*
X-9826D01*
G01X-11580Y-67437D02*
X-9015D01*
G01X-9691Y-70002D02*
X-6180D01*
G01X-11985Y-67572D02*
X-8611D01*
G01X-12391Y-67707D02*
X-8206D01*
G01X-12661Y-67843D02*
X-7935D01*
G01X-12796Y-67978D02*
X-7800D01*
G01X-13065Y-68113D02*
X-7530D01*
G01X-13200Y-68248D02*
X-7396D01*
G01X-13335Y-68382D02*
X-7261D01*
G01X-13470Y-68517D02*
X-7126D01*
G01X-13606Y-68652D02*
X-6991D01*
G01X-13741Y-68787D02*
X-6856D01*
G01X-13876Y-68922D02*
X-6720D01*
G01X-14011Y-69057D02*
X-6720D01*
G01X-14011Y-69193D02*
X-6585D01*
G01X-14146Y-69328D02*
X-6450D01*
G01X-14146Y-69463D02*
X-6450D01*
G01X-14280Y-69598D02*
X-6315D01*
G01X-14280Y-69732D02*
X-6315D01*
G01X-14415Y-69867D02*
X-6180D01*
G01X-14415Y-70002D02*
X-10906D01*
G01X-9420Y-70137D02*
X-6180D01*
G01X-14550D02*
X-11311D01*
G01X-14550Y-70272D02*
X-11446D01*
G01X-14550Y-70407D02*
X-11580D01*
G01X-14550Y-70543D02*
X-11715D01*
G01X-14685Y-70678D02*
X-11850D01*
G01X-14685Y-70813D02*
X-11850D01*
G01X-14685Y-70948D02*
X-11985D01*
G01X-14685Y-71082D02*
X-11985D01*
G01X-14685Y-71217D02*
X-11985D01*
G01X-14685Y-71352D02*
X-12120D01*
G01X-14685Y-71487D02*
X-12120D01*
G01X-14685Y-71622D02*
X-12120D01*
G01X-14685Y-71757D02*
X-12120D01*
G01X-14685Y-71893D02*
X-11985D01*
G01X-14685Y-72028D02*
X-11985D01*
G01X-14685Y-72163D02*
X-11985D01*
G01X-14685Y-72298D02*
X-11985D01*
G01X-8070Y-90252D02*
X-6991D01*
G01X-7935Y-90387D02*
X-6991D01*
G01X-7935Y-90522D02*
X-7126D01*
G01X-7935Y-90657D02*
X-7126D01*
G01X-7800Y-90793D02*
X-7126D01*
G01X-8880Y-87013D02*
X-8206D01*
G01X-8880Y-87148D02*
X-8206D01*
G01X-8880Y-87282D02*
X-8206D01*
G01X-9015Y-87417D02*
X-8070D01*
G01X-9015Y-87552D02*
X-8070D01*
G01X-9015Y-87687D02*
X-8070D01*
G01X-9150Y-87822D02*
X-8070D01*
G01X-9150Y-87957D02*
X-7935D01*
G01X-9150Y-88093D02*
X-7935D01*
G01X-6991Y-87013D02*
X-6180D01*
G01X-6991Y-87148D02*
X-6180D01*
G01X-6991Y-87282D02*
X-6180D01*
G01X-6991Y-87417D02*
X-6180D01*
G01X-7126Y-87552D02*
X-6315D01*
G01X-7126Y-87687D02*
X-6315D01*
G01X-7126Y-87822D02*
X-6315D01*
G01X-7126Y-87957D02*
X-6315D01*
G01X-7261Y-88093D02*
X-6450D01*
G01X-7261Y-88228D02*
X-6450D01*
G01X-7261Y-88363D02*
X-6450D01*
G01X-7261Y-88498D02*
X-6585D01*
G01X-8476Y-88632D02*
X-7800D01*
G01X-7396D02*
X-6585D01*
G01X-8476Y-88767D02*
X-7665D01*
G01X-7396D02*
X-6585D01*
G01X-8476Y-88902D02*
X-7665D01*
G01X-7396D02*
X-6585D01*
G01X-8341Y-89037D02*
X-7665D01*
G01X-7396D02*
X-6720D01*
G01X-8341Y-89172D02*
X-7665D01*
G01X-7530D02*
X-6720D01*
G01X-8341Y-89307D02*
X-6720D01*
G01X-8341Y-89443D02*
X-6720D01*
G01X-8206Y-89578D02*
X-6856D01*
G01X-8206Y-89713D02*
X-6856D01*
G01X-8206Y-89848D02*
X-6856D01*
G01X-8070Y-89982D02*
X-6856D01*
G01X-8070Y-90117D02*
X-6991D01*
G01X-9150Y-78643D02*
X-6180D01*
G01X-9015Y-78778D02*
X-6046D01*
G01X-8880Y-78913D02*
X-6046D01*
G01X-8880Y-79048D02*
X-6046D01*
G01X-8746Y-79182D02*
X-6046D01*
G01X-8746Y-79317D02*
X-5911D01*
G01X-8611Y-79452D02*
X-5911D01*
G01X-8611Y-79587D02*
X-5911D01*
G01X-8611Y-79722D02*
X-5911D01*
G01X-8611Y-79857D02*
X-5911D01*
G01X-8611Y-79993D02*
X-5911D01*
G01X-8611Y-80128D02*
X-5911D01*
G01X-8746Y-80937D02*
X-5911D01*
G01X-8746Y-81072D02*
X-6046D01*
G01X-8880Y-81207D02*
X-6046D01*
G01X-9015Y-81343D02*
X-6046D01*
G01X-9150Y-81478D02*
X-6046D01*
G01X-8611Y-80263D02*
X-5911D01*
G01X-8611Y-80398D02*
X-5911D01*
G01X-8611Y-80532D02*
X-5911D01*
G01X-8611Y-80667D02*
X-5911D01*
G01X-8611Y-80802D02*
X-5911D01*
G01X-4156Y-86878D02*
X-3750D01*
G01X-3211D02*
X-2941D01*
G01X-4156Y-87013D02*
X-3750D01*
G01X-3211D02*
X-2941D01*
G01X-4156Y-87148D02*
X-3750D01*
G01X-3346D02*
X-2941D01*
G01X-4156Y-87282D02*
X-3615D01*
G01X-3346D02*
X-3211D01*
G01X-3076D02*
X-2941D01*
G01X-4156Y-87417D02*
X-3885D01*
G01X-3750D02*
X-3615D01*
G01X-3346D02*
X-3211D01*
G01X-3076D02*
X-2941D01*
G01X-4156Y-87552D02*
X-3885D01*
G01X-3750D02*
X-3211D01*
G01X-3076D02*
X-2941D01*
G01X-4156Y-87687D02*
X-3885D01*
G01X-3750D02*
X-3346D01*
G01X-3076D02*
X-2941D01*
G01X-4156Y-87822D02*
X-3885D01*
G01X-3615D02*
X-3346D01*
G01X-3076D02*
X-2941D01*
G01X-4156Y-87957D02*
X-3885D01*
G01X-3615D02*
X-3480D01*
G01X-3076D02*
X-2941D01*
G01X-5370Y-86878D02*
X-4426D01*
G01X-5235Y-87013D02*
X-4426D01*
G01X-4965Y-87148D02*
X-4696D01*
G01X-4965Y-87282D02*
X-4696D01*
G01X-4965Y-87417D02*
X-4696D01*
G01X-4965Y-87552D02*
X-4696D01*
G01X-4965Y-87687D02*
X-4696D01*
G01X-4965Y-87822D02*
X-4696D01*
G01X-4965Y-87957D02*
X-4696D01*
G01X-8611Y-72432D02*
X-5911D01*
G01X-8611Y-72567D02*
X-5911D01*
G01X-8611Y-72702D02*
X-5911D01*
G01X-8611Y-72837D02*
X-5911D01*
G01X-8476Y-72972D02*
X-6046D01*
G01X-9150Y-70272D02*
X-6046D01*
G01X-9015Y-70407D02*
X-6046D01*
G01X-8880Y-70543D02*
X-6046D01*
G01X-8746Y-70678D02*
X-6046D01*
G01X-8746Y-70813D02*
X-5911D01*
G01X-8611Y-70948D02*
X-5911D01*
G01X-8611Y-71082D02*
X-5911D01*
G01X-8611Y-71217D02*
X-5911D01*
G01X-8611Y-71352D02*
X-5911D01*
G01X-8611Y-71487D02*
X-5911D01*
G01X-8611Y-71622D02*
X-5911D01*
G01X-8611Y-71757D02*
X-5911D01*
G01X-8611Y-71893D02*
X-5911D01*
G01X-8611Y-72028D02*
X-5911D01*
G01X-8611Y-72163D02*
X-5911D01*
G01X-8611Y-72298D02*
X-5911D01*
G01X-4291Y-67572D02*
X-3885D01*
G01X-4156Y-67707D02*
X-3750D01*
G01X-4020Y-67843D02*
X-3615D01*
G01X-4426Y-67978D02*
X-4156D01*
G01X-3885D02*
X-3615D01*
G01X-4291Y-68113D02*
X-4156D01*
G01X-3885D02*
X-3480D01*
G01X-3885Y-68248D02*
X-3480D01*
G01X-3750Y-68382D02*
X-3480D01*
G01X-4561Y-68517D02*
X-4426D01*
G01X-3885D02*
X-3480D01*
G01X-4561Y-68652D02*
X-4291D01*
G01X-3885D02*
X-3615D01*
G01X-4426Y-68787D02*
X-4156D01*
G01X-3885D02*
X-3615D01*
G01X-4291Y-68922D02*
X-4156D01*
G01X-4020D02*
X-3750D01*
G01X-4156Y-69057D02*
X-3750D01*
G01X-4830Y-67302D02*
X-4426D01*
G01X-5100Y-67437D02*
X-4020D01*
G01X-5370Y-67572D02*
X-4830D01*
G01X-5506Y-67707D02*
X-5100D01*
G01X-5506Y-67843D02*
X-5235D01*
G01X-4965D02*
X-4291D01*
G01X-5641Y-67978D02*
X-5370D01*
G01X-4965D02*
X-4830D01*
G01X-5641Y-68113D02*
X-5370D01*
G01X-4965D02*
X-4830D01*
G01X-5641Y-68248D02*
X-5370D01*
G01X-4965D02*
X-4156D01*
G01X-5641Y-68382D02*
X-5370D01*
G01X-4965D02*
X-4291D01*
G01X-5641Y-68517D02*
X-5370D01*
G01X-4965D02*
X-4830D01*
G01X-5641Y-68652D02*
X-5370D01*
G01X-4965D02*
X-4830D01*
G01X-5641Y-68787D02*
X-5235D01*
G01X-4965D02*
X-4830D01*
G01X-5506Y-68922D02*
X-5235D01*
G01X-4965D02*
X-4830D01*
G01X-5370Y-69057D02*
X-4965D01*
G01X-5235Y-69193D02*
X-3885D01*
G01X-4965Y-69328D02*
X-4156D01*
G54D17*
X53331Y42846D03*
X44669D03*
Y36154D03*
X53331D03*
G54D26*
X87500Y105250D03*
Y98750D03*
G54D18*
X67488Y23260D03*
Y27000D03*
Y30740D03*
X78512Y27000D03*
Y23260D03*
Y30740D03*
G54D27*
X98157Y61077D03*
Y59109D03*
Y57140D03*
Y55172D03*
Y53203D03*
Y76825D03*
Y74857D03*
Y72888D03*
Y70920D03*
Y68951D03*
Y66983D03*
Y65014D03*
Y63046D03*
Y78794D03*
G54D28*
X105400Y174250D03*
Y166750D03*
X115600D03*
Y170500D03*
Y174250D03*
X133400D03*
Y166750D03*
X143600D03*
Y170500D03*
Y174250D03*
G54D19*
X61500Y27327D03*
X65000Y37327D03*
Y40673D03*
X70500Y37327D03*
Y40673D03*
X74000D03*
Y37327D03*
X61500Y30673D03*
X60500Y46827D03*
Y50173D03*
X75500Y92173D03*
Y88827D03*
X72000Y92173D03*
Y88827D03*
X61500Y81827D03*
Y85173D03*
X68000Y92173D03*
Y88827D03*
X77500Y40673D03*
Y37327D03*
X81500Y40327D03*
Y43673D03*
X87500Y92173D03*
Y88827D03*
X79000Y92173D03*
Y88827D03*
X82500Y92173D03*
Y88827D03*
X97500Y44173D03*
Y40827D03*
X94000D03*
Y44173D03*
X99500Y170827D03*
Y174173D03*
X127000Y170327D03*
Y173673D03*
G54D29*
X183180Y44450D03*
Y176450D03*
X199320Y26930D03*
Y158930D03*
M02*
